<?xml version="1.0" encoding="UTF-8" standalone="no"?>
<svg
   xmlns:dc="http://purl.org/dc/elements/1.1/"
   xmlns:cc="http://creativecommons.org/ns#"
   xmlns:rdf="http://www.w3.org/1999/02/22-rdf-syntax-ns#"
   xmlns:svg="http://www.w3.org/2000/svg"
   xmlns="http://www.w3.org/2000/svg"
   viewBox="0 0 126.2125 126.2125"
   height="126.2125"
   width="126.2125"
   xml:space="preserve"
   version="1.1"
   id="svg2"><metadata
     id="metadata8"><rdf:RDF><cc:Work
         rdf:about=""><dc:format>image/svg+xml</dc:format><dc:type
           rdf:resource="http://purl.org/dc/dcmitype/StillImage" /></cc:Work></rdf:RDF></metadata><defs
     id="defs6" /><g
     transform="matrix(1.25,0,0,-1.25,0,126.2125)"
     id="g10"><g
       transform="scale(0.1,0.1)"
       id="g12"><path
         id="path14"
         style="fill:#818181;fill-opacity:1;fill-rule:nonzero;stroke:none"
         d="m 54.418,641.531 24.2383,-24.234 313.7417,313.75 -24.218,24.238 c -5.86,5.848 -15.719,5.84 -21.559,0.02 L 54.3984,663.074 C 51.5586,660.227 50,656.418 50,652.316 c 0,-4.101 1.5664,-7.929 4.418,-10.785 M 100.25,563.098 541.977,121.359 c 1.761,39.688 18.125,79.539 49.113,110.528 29.492,29.472 65.59,47.929 99.988,54.101 L 254.578,722.5 100.238,568.176 c -0.8278,-0.84 -1.0075,-1.836 -1.0075,-2.539 0,-0.696 0.1797,-1.699 1.0195,-2.539 M 614.066,50.0195 763.293,50.0117 c 11.066,25.9336 36.336,76.8363 79.266,119.7653 42.519,42.5 91.554,66.407 117.097,76.934 l -0.008,148.965 c -19.187,15.957 -43.089,24.383 -67.632,23.769 -28.145,-0.644 -55.164,-12.519 -76.086,-33.437 -20.942,-20.957 -35.567,-47.785 -40.11,-73.613 -3.789,-21.528 -0.152,-40.278 9.743,-50.157 4.886,-4.883 7.328,-11.293 7.328,-17.687 0,-6.395 -2.442,-12.805 -7.328,-17.688 -9.743,-9.754 -25.583,-9.754 -35.352,0 C 728.617,248.445 669.828,239.91 626.449,196.531 584.973,155.039 580.297,91.3789 614.066,50.0195 M 959.668,50 959.656,191.848 C 936.832,180.637 905.602,162.09 877.922,134.406 849.949,106.453 830.43,73.8008 818.473,50.0117 L 959.668,50 Z M 446.621,909.406 c -1.723,1.727 -3.402,1.739 -5.141,0.02 L 289.918,757.863 726.598,321.191 c 6.39,36.164 25.55,71.75 53.984,100.168 29.074,29.082 66.707,45.86 106.297,47.782 L 446.621,909.406 Z M 0,652.297 c -0.0117188,17.461 6.74609,33.848 19.0469,46.133 L 311.27,990.656 c 25.429,25.414 66.793,25.434 92.261,0 l 31.098,-31.113 c 3.07,0.547 6.211,0.918 9.398,0.918 14.34,0 27.793,-5.566 37.93,-15.684 l 520.373,-520.371 7.32,-7.328 L 1009.67,0 592.602,0.0195313 585.277,7.35156 64.8984,527.742 c -10.1171,10.11 -15.6875,23.578 -15.6679,37.934 0,3.203 0.3867,6.328 0.9297,9.414 L 19.0664,606.172 C 6.77344,618.469 0,634.855 0,652.297" /></g></g></svg>