<?xml version="1.0" encoding="UTF-8" standalone="no"?>
<svg
   xmlns:dc="http://purl.org/dc/elements/1.1/"
   xmlns:cc="http://creativecommons.org/ns#"
   xmlns:rdf="http://www.w3.org/1999/02/22-rdf-syntax-ns#"
   xmlns:svg="http://www.w3.org/2000/svg"
   xmlns="http://www.w3.org/2000/svg"
   viewBox="0 0 106.5875 126.25"
   height="126.25"
   width="106.5875"
   xml:space="preserve"
   version="1.1"
   id="svg2"><metadata
     id="metadata8"><rdf:RDF><cc:Work
         rdf:about=""><dc:format>image/svg+xml</dc:format><dc:type
           rdf:resource="http://purl.org/dc/dcmitype/StillImage" /></cc:Work></rdf:RDF></metadata><defs
     id="defs6" /><g
     transform="matrix(1.25,0,0,-1.25,0,126.25)"
     id="g10"><g
       transform="scale(0.1,0.1)"
       id="g12"><path
         id="path14"
         style="fill:#818181;fill-opacity:1;fill-rule:nonzero;stroke:none"
         d="M 802.68,50 50,50 50,253.242 c 0,136.094 105.191,255.391 261.754,296.848 9.562,2.539 16.738,10.469 18.285,20.242 1.563,9.773 -2.797,19.531 -11.098,24.902 -56.882,36.817 -90.832,99.051 -90.832,166.504 0,109.317 88.93,198.262 198.235,198.262 109.336,0 198.273,-88.945 198.273,-198.262 0,-67.453 -33.969,-129.687 -90.867,-166.484 -8.312,-5.391 -12.66,-15.149 -11.109,-24.922 1.547,-9.773 8.722,-17.703 18.293,-20.242 C 697.488,508.633 802.68,389.336 802.68,253.242 L 802.68,50 Z M 599.43,583.887 c 47.734,46.289 75.187,109.953 75.187,177.851 0,136.895 -111.371,248.262 -248.273,248.262 -136.875,0 -248.235,-111.367 -248.235,-248.262 0,-67.89 27.442,-131.562 75.172,-177.843 C 99.9805,526.563 0,398.391 0,253.242 L 0,25 C 0,11.1914 11.1992,0 25,0 l 802.68,0 c 13.808,0 25,11.1914 25,25 l 0,228.242 c 0,145.149 -99.961,273.321 -253.25,330.645" /></g></g></svg>