<?xml version="1.0" encoding="UTF-8" standalone="no"?>
<svg
   xmlns:dc="http://purl.org/dc/elements/1.1/"
   xmlns:cc="http://creativecommons.org/ns#"
   xmlns:rdf="http://www.w3.org/1999/02/22-rdf-syntax-ns#"
   xmlns:svg="http://www.w3.org/2000/svg"
   xmlns="http://www.w3.org/2000/svg"
   viewBox="0 0 126.25 126.4375"
   height="126.4375"
   width="126.25"
   xml:space="preserve"
   version="1.1"
   id="svg2"><metadata
     id="metadata8"><rdf:RDF><cc:Work
         rdf:about=""><dc:format>image/svg+xml</dc:format><dc:type
           rdf:resource="http://purl.org/dc/dcmitype/StillImage" /></cc:Work></rdf:RDF></metadata><defs
     id="defs6" /><g
     transform="matrix(1.25,0,0,-1.25,0,126.4375)"
     id="g10"><g
       transform="scale(0.1,0.1)"
       id="g12"><path
         id="path14"
         style="fill:#414040;fill-opacity:1;fill-rule:nonzero;stroke:none"
         d="m 959.98,853.027 c 0,59.832 -48.671,108.512 -108.503,108.512 -59.844,0 -108.508,-48.68 -108.508,-108.512 0,-59.828 48.664,-108.519 108.508,-108.519 59.832,0 108.503,48.691 108.503,108.519 m -267.011,0 c 0,87.403 71.094,158.513 158.508,158.513 87.402,0 158.503,-71.11 158.503,-158.513 0,-87.398 -71.101,-158.519 -158.503,-158.519 -87.414,0 -158.508,71.121 -158.508,158.519" /><path
         id="path16"
         style="fill:#414040;fill-opacity:1;fill-rule:nonzero;stroke:none"
         d="m 960,158.527 c 0,59.821 -48.68,108.5 -108.523,108.5 -59.844,0 -108.508,-48.679 -108.508,-108.5 0,-59.8395 48.664,-108.5309 108.508,-108.5309 C 911.32,49.9961 960,98.6875 960,158.527 m -267.031,0 c 0,87.395 71.094,158.5 158.508,158.5 87.421,0 158.523,-71.105 158.523,-158.5 C 1010,71.1133 938.898,0 851.477,0 764.063,0 692.969,71.1133 692.969,158.527" /><path
         id="path18"
         style="fill:#414040;fill-opacity:1;fill-rule:nonzero;stroke:none"
         d="m 267.012,506.418 c 0,59.84 -48.672,108.531 -108.504,108.531 C 98.6836,614.949 50,566.258 50,506.418 c 0,-59.82 48.6836,-108.492 108.508,-108.492 59.832,0 108.504,48.672 108.504,108.492 M 0,506.418 c 0,87.41 71.1055,158.531 158.508,158.531 87.402,0 158.504,-71.121 158.504,-158.531 0,-87.387 -71.102,-158.492 -158.504,-158.492 C 71.1055,347.926 0,419.031 0,506.418" /><path
         id="path20"
         style="fill:#414040;fill-opacity:1;fill-rule:nonzero;stroke:none"
         d="M 266.523,567.18 716.68,821.68 741.289,778.172 291.133,523.66 266.523,567.18" /><path
         id="path22"
         style="fill:#414040;fill-opacity:1;fill-rule:nonzero;stroke:none"
         d="m 266.523,445.578 24.61,43.52 L 741.289,234.586 716.68,191.074 266.523,445.578" /></g></g></svg>