<?xml version="1.0" encoding="UTF-8" standalone="no"?>
<svg
   xmlns:dc="http://purl.org/dc/elements/1.1/"
   xmlns:cc="http://creativecommons.org/ns#"
   xmlns:rdf="http://www.w3.org/1999/02/22-rdf-syntax-ns#"
   xmlns:svg="http://www.w3.org/2000/svg"
   xmlns="http://www.w3.org/2000/svg"
   viewBox="0 0 91.037498 59.287498"
   height="59.287498"
   width="91.037498"
   xml:space="preserve"
   version="1.1"
   id="svg2"><metadata
     id="metadata8"><rdf:RDF><cc:Work
         rdf:about=""><dc:format>image/svg+xml</dc:format><dc:type
           rdf:resource="http://purl.org/dc/dcmitype/StillImage" /></cc:Work></rdf:RDF></metadata><defs
     id="defs6" /><g
     transform="matrix(1.25,0,0,-1.25,0,59.2875)"
     id="g10"><g
       transform="scale(0.1,0.1)"
       id="g12"><path
         id="path14"
         style="fill:#96BF0D;fill-opacity:1;fill-rule:nonzero;stroke:none"
         d="m 44.9492,205.898 c 0,-12.421 -10.0273,-22.5 -22.4492,-22.5 -12.4219,0 -22.5,10.079 -22.5,22.5 0,12.422 10.0781,22.5 22.5,22.5 12.4219,0 22.4492,-10.078 22.4492,-22.5" /><path
         id="path16"
         style="fill:#96BF0D;fill-opacity:1;fill-rule:nonzero;stroke:none"
         d="m 435.461,66.2305 c -10.012,-3.9883 -17.578,-5.1446 -25.625,4.3398 l -13.02,22.9649 -34.675,61.2068 c -4.77,8.403 -15.43,11.367 -23.848,6.598 -8.422,-4.77 -11.367,-15.445 -6.602,-23.856 l 34.403,-60.7145 0.586,-1.0312 0.019,0.0078 8.75,-14.8164 6.477,-10.9727 0.984,-1.6718 c 1.387,-1.6602 2.774,-3.2813 4.199,-4.6914 11.758,-11.7344 24.395,-15.3946 35.618,-15.3946 12.8,0 23.757,4.6328 29.441,7.0391 0.996,0.4219 1.797,0.7539 2.559,1.0351 l -6.766,10.5196 -12.5,19.4375" /><path
         id="path18"
         style="fill:#96BF0D;fill-opacity:1;fill-rule:nonzero;stroke:none"
         d="m 349.465,45.9063 c -1.067,-0.586 -10.129,-4.8204 -20.078,7.3671 l -0.188,0.3321 -29.14,50.7345 c -4.805,8.375 -15.508,11.285 -23.887,6.461 -8.391,-4.817 -11.277,-15.508 -6.465,-23.8908 l 27.59,-48.043 0.723,-1.2461 -0.129,-0.082 1.054,-1.7969 0.75,-1.2578 c 13.645,-18.8438 30.051,-24.75393 43.91,-24.75393 9.266,0 17.379,2.57423 22.735,5.51173 l -14.582,26.4922 -2.293,4.1719" /><path
         id="path20"
         style="fill:#96BF0D;fill-opacity:1;fill-rule:nonzero;stroke:none"
         d="m 705.84,198.516 c -12.422,0 -22.5,-10.078 -22.5,-22.5 0,-12.422 10.078,-22.5 22.5,-22.5 12.422,0 22.5,10.078 22.5,22.5 0,12.422 -10.078,22.5 -22.5,22.5" /><path
         id="path22"
         style="fill:#96BF0D;fill-opacity:1;fill-rule:nonzero;stroke:none"
         d="m 264.59,34.9102 c -8.762,0.0664 -20.059,3.3828 -28.328,17.3867 l -77.207,132.1291 -38.508,0 0,213.914 112.266,0 27.753,35 -140.019,0 0,40.918 -119.48059,0 0,-35 84.48049,0 0,-300.488 -85.242212,0 0,-35 120.242312,0 0,45.484 18.523,0 67.016,-114.6837 C 221.953,7.67188 245.637,0 265.148,0 c 6.93,0.00390625 13.282,1 18.622,2.42188 L 264.59,34.9102" /><path
         id="path24"
         style="fill:#96BF0D;fill-opacity:1;fill-rule:nonzero;stroke:none"
         d="m 551.746,141.492 -108.672,207.688 0.031,0.511 c -9.492,0.606 -68.894,5.797 -69.492,5.844 l -8.215,0.719 -73.125,-74.27 c -12.039,-8.961 -22.949,-12.406 -32.546,-10.168 -9.571,2.215 -17.539,9.954 -22.688,16.629 l 80.07,104.371 c 23.204,29.161 44.981,30.731 45.301,30.77 l 127.5,0.09 117.883,-51.504 0,-230.496 -56.047,-0.184 z m 91.047,268.879 84.707,0 0,35 -119.707,0 0,-35.012 -109.52,47.856 -0.039,-0.09 0,0.559 -136.078,-0.098 c -3.875,-0.059 -38.843,-1.762 -72.625,-44.223 l -94.258,-122.859 4.715,-9.723 c 1.782,-3.672 18.371,-36.117 51.516,-43.988 4.726,-1.121 9.48,-1.68 14.269,-1.68 16.024,0 32.352,6.282 48.692,18.77 l 64.312,65.074 c 10.188,-0.887 27.832,-2.406 41.957,-3.59 L 529.797,107.953 c -0.039,-0.066 -0.078,-0.14 -0.117,-0.211 -5.325,-9.9764 -11.399,-18.4959 -16.7,-22.5115 -1.378,-1.0469 -2.687,-1.75 -3.917,-2.1055 -0.379,-0.1133 -0.809,-0.4102 -1.172,-0.4492 -1.629,-0.1367 -5.34,1.4336 -10.371,6.8984 l -29.434,46.0388 -41.172,64.414 c -5.203,8.149 -16.035,10.536 -24.172,5.325 -8.14,-5.204 -10.523,-16.032 -5.32,-24.168 l 37.949,-59.36 2.559,-4.011 0.019,0.003 19.387,-30.1441 12.437,-19.3477 0.286,-0.4414 c 0.437,-0.5039 0.879,-0.9726 1.308,-1.457 0.176,-0.1914 0.344,-0.3906 0.52,-0.5742 6.179,-6.7422 12.625,-11.6094 19.336,-14.5782 5.23,-2.3203 10.601,-3.625 16.132,-3.625 0.567,0 1.141,0.0625 1.708,0.086 0.773,0.0351 1.542,0.039 2.324,0.1172 7.097,0.7148 13.554,3.3476 19.414,7.1914 18.476,12.1093 30.769,36.3008 37.058,51.512 l 39.934,0.125 0,-31.7972 120.469,0 0,35.0002 -85.469,0 0,300.488" /></g></g></svg>