<?xml version="1.0" encoding="UTF-8" standalone="no"?>
<svg
   xmlns:dc="http://purl.org/dc/elements/1.1/"
   xmlns:cc="http://creativecommons.org/ns#"
   xmlns:rdf="http://www.w3.org/1999/02/22-rdf-syntax-ns#"
   xmlns:svg="http://www.w3.org/2000/svg"
   xmlns="http://www.w3.org/2000/svg"
   viewBox="0 0 126.0625 92.775002"
   height="92.775002"
   width="126.0625"
   xml:space="preserve"
   version="1.1"
   id="svg2"><metadata
     id="metadata8"><rdf:RDF><cc:Work
         rdf:about=""><dc:format>image/svg+xml</dc:format><dc:type
           rdf:resource="http://purl.org/dc/dcmitype/StillImage" /></cc:Work></rdf:RDF></metadata><defs
     id="defs6" /><g
     transform="matrix(1.25,0,0,-1.25,0,92.775)"
     id="g10"><g
       transform="scale(0.1,0.1)"
       id="g12"><path
         id="path14"
         style="fill:#231f20;fill-opacity:1;fill-rule:nonzero;stroke:none"
         d="m 231.41,135.293 c -52.996,0 -96.121,43.117 -96.121,96.125 0,52.996 43.125,96.102 96.121,96.102 53,0 96.117,-43.106 96.117,-96.102 0,-53.008 -43.117,-96.125 -96.117,-96.125 m 0,242.227 c -80.582,0 -146.1209,-65.536 -146.1209,-146.102 0,-80.566 65.5389,-146.125 146.1209,-146.125 80.578,0 146.117,65.559 146.117,146.125 0,80.566 -65.539,146.102 -146.117,146.102 M 777.094,135.293 c -52.989,0 -96.102,43.117 -96.102,96.125 0,52.996 43.113,96.102 96.102,96.102 53,0 96.125,-43.106 96.125,-96.102 0,-53.008 -43.125,-96.125 -96.125,-96.125 m 0,242.227 c -80.567,0 -146.102,-65.536 -146.102,-146.102 0,-80.566 65.535,-146.125 146.102,-146.125 80.578,0 146.125,65.559 146.125,146.125 0,80.566 -65.547,146.102 -146.125,146.102 M 777.113,50 c -100.039,0 -181.406,81.379 -181.406,181.418 0,100.027 81.367,181.406 181.406,181.406 60.996,0 114.922,-30.351 147.832,-76.64 l 4.317,-6.321 C 947.699,301.477 958.52,267.715 958.52,231.418 958.52,131.379 877.145,50 777.113,50 M 562.574,614.465 c 0.36,42.93 35.36,77.734 78.387,77.734 24.707,0 47.363,-11.535 62.062,-30.676 0.575,-1.257 1.2,-2.507 2,-3.691 l 7.825,-11.434 c 0.254,-0.343 0.457,-0.734 0.73,-1.054 L 845.395,452.531 c -21.602,6.68 -44.532,10.293 -68.282,10.293 -80.156,0 -150.898,-40.976 -192.441,-103.066 l -22.098,254.707 z m -99.082,-376.406 25.719,296.621 30.109,0 25.723,-296.621 -81.551,0 z m -39.629,121.699 c -41.543,62.09 -112.297,103.066 -192.453,103.066 -23.574,0 -46.328,-3.574 -67.773,-10.156 l 139.093,205.254 0.008,0.019 c 14.668,21.454 38.895,34.258 64.825,34.258 43.027,0 78.027,-34.804 78.39,-77.734 L 423.863,359.758 Z M 231.41,50 C 131.383,50 50,131.379 50,231.418 c 0,30.633 7.6992,59.473 21.1563,84.793 l 21.7656,32.121 c 33.2971,39.383 82.9921,64.492 138.4881,64.492 100.031,0 181.418,-81.379 181.418,-181.406 C 412.828,131.379 331.441,50 231.41,50 m 742.891,302.375 c -0.215,0.352 -0.352,0.723 -0.586,1.055 l -1.68,2.461 c -2.625,4.109 -5.371,8.144 -8.262,12.07 l -210.222,307.5 c -22.598,41.23 -65.403,66.738 -112.59,66.738 -70.809,0 -128.418,-57.59 -128.418,-128.39 0,-6.766 0.605,-13.575 1.66,-20.301 l 0.781,-8.828 -21.433,0 2.328,26.972 c 0.035,0.352 -0.031,0.692 -0.02,1.055 0.02,0.371 0.121,0.723 0.121,1.102 0,70.8 -57.613,128.39 -128.417,128.39 -42.5,0 -82.192,-20.988 -106.192,-56.152 -0.039,-0.059 -0.058,-0.117 -0.101,-0.176 L 53.2891,378.965 C 42.8359,366.359 33.7188,352.609 26.0977,337.969 26.0703,337.902 26.0313,337.844 26,337.785 9.42969,305.91 0,269.758 0,231.418 0,103.82 103.813,0 231.41,0 344.188,0 438.32,81.1133 458.695,188.059 l 91.145,0 C 570.211,81.1133 664.34,0 777.113,0 c 127.598,0 231.407,103.82 231.407,231.418 0,44.316 -12.54,85.73 -34.219,120.957" /></g></g></svg>