<?xml version="1.0" encoding="UTF-8" standalone="no"?>
<svg
   xmlns:dc="http://purl.org/dc/elements/1.1/"
   xmlns:cc="http://creativecommons.org/ns#"
   xmlns:rdf="http://www.w3.org/1999/02/22-rdf-syntax-ns#"
   xmlns:svg="http://www.w3.org/2000/svg"
   xmlns="http://www.w3.org/2000/svg"
   viewBox="0 0 126.3875 126.25"
   height="126.25"
   width="126.3875"
   xml:space="preserve"
   version="1.1"
   id="svg2"><metadata
     id="metadata8"><rdf:RDF><cc:Work
         rdf:about=""><dc:format>image/svg+xml</dc:format><dc:type
           rdf:resource="http://purl.org/dc/dcmitype/StillImage" /></cc:Work></rdf:RDF></metadata><defs
     id="defs6" /><g
     transform="matrix(1.25,0,0,-1.25,0,126.25)"
     id="g10"><g
       transform="scale(0.1,0.1)"
       id="g12"><path
         id="path14"
         style="fill:#ffffff;fill-opacity:1;fill-rule:nonzero;stroke:none"
         d="m 863.781,391.465 c -62.898,-62.91 -146.543,-97.547 -235.496,-97.547 -88.957,0 -172.597,34.637 -235.508,97.527 -62.89,62.922 -97.539,146.555 -97.539,235.52 0,88.945 34.629,172.586 97.539,235.488 C 455.688,925.352 539.328,960 628.285,960 717.25,960 800.883,925.352 863.793,862.453 993.637,732.598 993.617,521.32 863.781,391.465 m 35.364,506.34 C 826.789,970.137 730.598,1010 628.285,1010 525.969,1010 429.777,970.137 357.434,897.805 285.082,825.449 245.227,729.27 245.238,626.965 c 0,-93.613 33.446,-182.043 94.539,-251.848 L 7.31641,42.668 C -2.4375,32.9102 -2.4375,17.0781 7.31641,7.32031 12.2109,2.42969 18.5977,0 25.0039,0 31.3984,0 37.7969,2.42969 42.6797,7.32813 L 375.031,339.668 c 70,-61.863 158.996,-95.75 253.254,-95.75 102.313,0 198.504,39.832 270.848,112.195 149.347,149.356 149.347,392.344 0.012,541.692" /><path
         id="path16"
         style="fill:#ffffff;fill-opacity:1;fill-rule:nonzero;stroke:none"
         d="m 863.781,391.465 c -62.898,-62.91 -146.543,-97.547 -235.496,-97.547 -88.957,0 -172.597,34.637 -235.508,97.527 -62.89,62.922 -97.539,146.555 -97.539,235.52 0,88.945 34.629,172.586 97.539,235.488 C 455.688,925.352 539.328,960 628.285,960 717.25,960 800.883,925.352 863.793,862.453 993.637,732.598 993.617,521.32 863.781,391.465 m 35.364,506.34 C 826.789,970.137 730.598,1010 628.285,1010 525.969,1010 429.777,970.137 357.434,897.805 285.082,825.449 245.227,729.27 245.238,626.965 c 0,-93.613 33.446,-182.043 94.539,-251.848 L 7.31641,42.668 C -2.4375,32.9102 -2.4375,17.0781 7.31641,7.32031 12.2109,2.42969 18.5977,0 25.0039,0 31.3984,0 37.7969,2.42969 42.6797,7.32813 L 375.031,339.668 c 70,-61.863 158.996,-95.75 253.254,-95.75 102.313,0 198.504,39.832 270.848,112.195 149.347,149.356 149.347,392.344 0.012,541.692" /></g></g></svg>