<?xml version="1.0" encoding="UTF-8" standalone="no"?>
<svg
   xmlns:dc="http://purl.org/dc/elements/1.1/"
   xmlns:cc="http://creativecommons.org/ns#"
   xmlns:rdf="http://www.w3.org/1999/02/22-rdf-syntax-ns#"
   xmlns:svg="http://www.w3.org/2000/svg"
   xmlns="http://www.w3.org/2000/svg"
   viewBox="0 0 102.5375 126.3875"
   height="126.3875"
   width="102.5375"
   xml:space="preserve"
   version="1.1"
   id="svg2"><metadata
     id="metadata8"><rdf:RDF><cc:Work
         rdf:about=""><dc:format>image/svg+xml</dc:format><dc:type
           rdf:resource="http://purl.org/dc/dcmitype/StillImage" /></cc:Work></rdf:RDF></metadata><defs
     id="defs6" /><g
     transform="matrix(1.25,0,0,-1.25,0,126.3875)"
     id="g10"><g
       transform="scale(0.1,0.1)"
       id="g12"><path
         id="path14"
         style="fill:#96bf0d;fill-opacity:1;fill-rule:nonzero;stroke:none"
         d="m 697.891,532.164 0,-193.184 -481.782,0 -131.5973,96.594 131.5973,96.59 481.782,0 z m -575.52,143.781 0,193.184 481.781,0 131.61,-96.594 -131.61,-96.59 -481.781,0 z m 305.871,-50 192.293,0 199.715,146.59 -199.715,146.594 -192.293,0 0,67.012 c 0,13.808 -11.191,24.999 -25,24.999 -13.812,0 -25,-11.191 -25,-24.999 l 0,-67.012 -305.8709,0 0,-293.184 305.8709,0 0,-43.781 -178.512,0 L 0,435.574 199.73,288.98 l 178.512,0 0,-263.9839 C 378.242,11.1797 389.43,0 403.242,0 c 13.809,0 25,11.1797 25,24.9961 l 0,263.9839 319.649,0 0,293.184 -319.649,0 0,43.781" /></g></g></svg>