<?xml version="1.0" encoding="UTF-8" standalone="no"?>
<svg
   xmlns:dc="http://purl.org/dc/elements/1.1/"
   xmlns:cc="http://creativecommons.org/ns#"
   xmlns:rdf="http://www.w3.org/1999/02/22-rdf-syntax-ns#"
   xmlns:svg="http://www.w3.org/2000/svg"
   xmlns="http://www.w3.org/2000/svg"
   viewBox="0 0 126.275 126.2875"
   height="126.2875"
   width="126.275"
   xml:space="preserve"
   version="1.1"
   id="svg2"><metadata
     id="metadata8"><rdf:RDF><cc:Work
         rdf:about=""><dc:format>image/svg+xml</dc:format><dc:type
           rdf:resource="http://purl.org/dc/dcmitype/StillImage" /></cc:Work></rdf:RDF></metadata><defs
     id="defs6" /><g
     transform="matrix(1.25,0,0,-1.25,0,126.2875)"
     id="g10"><g
       transform="scale(0.1,0.1)"
       id="g12"><path
         id="path14"
         style="fill:#ffffff;fill-opacity:1;fill-rule:nonzero;stroke:none"
         d="m 528.871,579.352 -25.332,-126.649 -22.957,126.649 48.289,0 z m -97.422,41.027 c -4.75,-5.703 -6.726,-13.203 -5.41,-20.488 l 51.703,-285.149 c 2.141,-11.816 12.371,-20.437 24.367,-20.535 l 0.231,0 c 11.902,0 22.172,8.398 24.512,20.098 l 57.031,285.144 c 1.469,7.336 -0.43,14.953 -5.18,20.754 -4.742,5.781 -11.84,9.149 -19.332,9.149 l -108.73,0 c -7.407,0 -14.45,-3.289 -19.192,-8.973 M 505,247.059 c -22.258,0 -40.297,-18.047 -40.297,-40.325 0,-22.246 18.039,-40.312 40.297,-40.312 22.273,0 40.313,18.066 40.313,40.312 0,22.278 -18.04,40.325 -40.313,40.325 M 65.4492,49.9961 505,929.402 944.551,49.9961 l -879.1018,0 z M 1006.06,38.7852 527.375,996.5 c -4.242,8.47 -12.891,13.82 -22.375,13.82 -9.465,0 -18.117,-5.35 -22.355,-13.82 L 2.64453,36.1797 C -1.23828,28.4141 -0.820313,19.2148 3.73047,11.8633 8.29297,4.48828 16.3438,0 25,0 l 960.199,0 c 13.813,0 25.001,11.1992 25.001,24.9961 0,5.0977 -1.53,9.8437 -4.14,13.7891" /></g></g></svg>