<?xml version="1.0" encoding="UTF-8" standalone="no"?>
<svg
   xmlns:dc="http://purl.org/dc/elements/1.1/"
   xmlns:cc="http://creativecommons.org/ns#"
   xmlns:rdf="http://www.w3.org/1999/02/22-rdf-syntax-ns#"
   xmlns:svg="http://www.w3.org/2000/svg"
   xmlns="http://www.w3.org/2000/svg"
   viewBox="0 0 9.125 14.8625"
   height="14.8625"
   width="9.125"
   xml:space="preserve"
   version="1.1"
   id="svg2"><metadata
     id="metadata8"><rdf:RDF><cc:Work
         rdf:about=""><dc:format>image/svg+xml</dc:format><dc:type
           rdf:resource="http://purl.org/dc/dcmitype/StillImage" /></cc:Work></rdf:RDF></metadata><defs
     id="defs6" /><g
     transform="matrix(1.25,0,0,-1.25,0,14.8625)"
     id="g10"><g
       transform="scale(0.1,0.1)"
       id="g12"><path
         id="path14"
         style="fill:#989898;fill-opacity:1;fill-rule:nonzero;stroke:none"
         d="m 31.2422,59.4531 38.8476,38.8555 c 3.9063,3.9104 3.9063,10.2344 0,14.1444 l -3.5351,3.531 c -3.9063,3.907 -10.2344,3.907 -14.1406,0 L 6.69141,70.2539 C 6.61328,70.1836 6.52344,70.168 6.45703,70.0977 L 2.92188,66.5625 C 0.957031,64.5977 -0.0078125,62.0313 0,59.4531 -0.0078125,56.8828 0.957031,54.3047 2.92188,52.3438 L 6.45703,48.8086 C 6.52344,48.7422 6.62109,48.7227 6.69141,48.6523 L 52.4141,2.92969 c 3.9062,-3.906253 10.2343,-3.906253 14.1406,0 l 3.5351,3.52734 c 3.9063,3.90237 3.9063,10.24217 0,14.14847 L 31.2422,59.4531" /></g></g></svg>