<?xml version="1.0" encoding="UTF-8" standalone="no"?>
<svg
   xmlns:dc="http://purl.org/dc/elements/1.1/"
   xmlns:cc="http://creativecommons.org/ns#"
   xmlns:rdf="http://www.w3.org/1999/02/22-rdf-syntax-ns#"
   xmlns:svg="http://www.w3.org/2000/svg"
   xmlns="http://www.w3.org/2000/svg"
   viewBox="0 0 126.025 129.8875"
   height="129.8875"
   width="126.025"
   xml:space="preserve"
   version="1.1"
   id="svg2"><metadata
     id="metadata8"><rdf:RDF><cc:Work
         rdf:about=""><dc:format>image/svg+xml</dc:format><dc:type
           rdf:resource="http://purl.org/dc/dcmitype/StillImage" /></cc:Work></rdf:RDF></metadata><defs
     id="defs6" /><g
     transform="matrix(1.25,0,0,-1.25,0,129.8875)"
     id="g10"><g
       transform="scale(0.1,0.1)"
       id="g12"><path
         id="path14"
         style="fill:#ffffff;fill-opacity:1;fill-rule:nonzero;stroke:none"
         d="m 361.039,798.379 c 13.809,0 25,11.191 25,25 0,13.809 -11.191,25 -25,25 l -157.539,0 c -13.809,0 -25,-11.191 -25,-25 0,-13.809 11.191,-25 25,-25 l 53.496,0 0,-312.461 -53.496,0 c -13.809,0 -25,-11.191 -25,-25 0,-13.828 11.191,-25 25,-25 l 157.539,0 c 13.809,0 25,11.172 25,25 0,13.809 -11.191,25 -25,25 l -54.043,0 0,312.461 54.043,0 z M 958.188,432.422 c 0,-69.641 -56.649,-126.289 -126.29,-126.289 l -116.335,0 0,-197.922 -232.52,197.922 -306.754,0 C 106.66,306.133 50,362.781 50,432.422 l 0,430.371 c 0,69.648 56.66,126.316 126.289,126.316 l 655.609,0 c 69.641,0 126.29,-56.668 126.29,-126.316 l 0,-430.371 z m -126.29,606.688 -655.609,0 C 79.0938,1039.11 0,960.008 0,862.793 L 0,432.422 C 0,335.215 79.0938,256.133 176.289,256.133 l 288.352,0 L 765.563,0 l 0,256.133 66.335,0 c 97.211,0 176.292,79.082 176.292,176.289 l 0,430.371 c 0,97.215 -79.081,176.317 -176.292,176.317" /></g></g></svg>