<?xml version="1.0" encoding="UTF-8" standalone="no"?>
<svg
   xmlns:dc="http://purl.org/dc/elements/1.1/"
   xmlns:cc="http://creativecommons.org/ns#"
   xmlns:rdf="http://www.w3.org/1999/02/22-rdf-syntax-ns#"
   xmlns:svg="http://www.w3.org/2000/svg"
   xmlns="http://www.w3.org/2000/svg"
   viewBox="0 0 126.3875 127.0625"
   height="127.0625"
   width="126.3875"
   xml:space="preserve"
   version="1.1"
   id="svg2"><metadata
     id="metadata8"><rdf:RDF><cc:Work
         rdf:about=""><dc:format>image/svg+xml</dc:format><dc:type
           rdf:resource="http://purl.org/dc/dcmitype/StillImage" /></cc:Work></rdf:RDF></metadata><defs
     id="defs6" /><g
     transform="matrix(1.25,0,0,-1.25,0,127.0625)"
     id="g10"><g
       transform="scale(0.1,0.1)"
       id="g12"><path
         id="path14"
         style="fill:#414040;fill-opacity:1;fill-rule:nonzero;stroke:none"
         d="M 176.77,966.48 C 106.863,966.48 50,909.605 50,839.711 L 50,409.496 C 50,339.594 106.863,282.75 176.77,282.75 l 306.96,0 233.997,-180.898 0,180.898 116.589,0 c 69.895,0 126.758,56.844 126.758,126.746 l 0,430.215 c 0,69.894 -56.863,126.769 -126.758,126.769 l -657.546,0 z M 767.727,0 466.672,232.75 l -289.902,0 C 79.2969,232.75 0,312.035 0,409.496 l 0,430.215 c 0,97.473 79.2969,176.769 176.77,176.769 l 657.546,0 c 97.461,0 176.754,-79.296 176.754,-176.769 l 0,-430.215 c 0,-97.461 -79.293,-176.746 -176.754,-176.746 l -66.589,0 0,-232.75" /></g></g></svg>