<?xml version="1.0" encoding="UTF-8" standalone="no"?>
<svg
   xmlns:dc="http://purl.org/dc/elements/1.1/"
   xmlns:cc="http://creativecommons.org/ns#"
   xmlns:rdf="http://www.w3.org/1999/02/22-rdf-syntax-ns#"
   xmlns:svg="http://www.w3.org/2000/svg"
   xmlns="http://www.w3.org/2000/svg"
   viewBox="0 0 126.3875 127.0625"
   height="127.0625"
   width="126.3875"
   xml:space="preserve"
   version="1.1"
   id="svg2"><metadata
     id="metadata8"><rdf:RDF><cc:Work
         rdf:about=""><dc:format>image/svg+xml</dc:format><dc:type
           rdf:resource="http://purl.org/dc/dcmitype/StillImage" /></cc:Work></rdf:RDF></metadata><defs
     id="defs6" /><g
     transform="matrix(1.25,0,0,-1.25,0,127.0625)"
     id="g10"><g
       transform="scale(0.1,0.1)"
       id="g12"><path
         id="path14"
         style="fill:#231f20;fill-opacity:1;fill-rule:nonzero;stroke:none"
         d="m 961.086,409.496 c 0,-69.891 -56.867,-126.746 -126.762,-126.746 l -116.59,0 0,-180.898 -233.984,180.898 -306.973,0 C 106.875,282.75 50,339.605 50,409.496 l 0,430.215 c 0,69.902 56.875,126.769 126.777,126.769 l 657.547,0 c 69.895,0 126.762,-56.867 126.762,-126.769 l 0,-430.215 z m -126.762,606.984 -657.547,0 C 79.3086,1016.48 0,937.184 0,839.711 L 0,409.496 C 0,312.035 79.3086,232.75 176.777,232.75 l 289.903,0 L 767.734,0 l 0,232.75 66.59,0 c 97.461,0 176.756,79.285 176.756,176.746 l 0,430.215 c 0,97.473 -79.295,176.769 -176.756,176.769" /></g></g></svg>