<?xml version="1.0" encoding="UTF-8" standalone="no"?>
<svg
   xmlns:dc="http://purl.org/dc/elements/1.1/"
   xmlns:cc="http://creativecommons.org/ns#"
   xmlns:rdf="http://www.w3.org/1999/02/22-rdf-syntax-ns#"
   xmlns:svg="http://www.w3.org/2000/svg"
   xmlns="http://www.w3.org/2000/svg"
   viewBox="0 0 126.9625 125.8875"
   height="125.8875"
   width="126.9625"
   xml:space="preserve"
   version="1.1"
   id="svg2"><metadata
     id="metadata8"><rdf:RDF><cc:Work
         rdf:about=""><dc:format>image/svg+xml</dc:format><dc:type
           rdf:resource="http://purl.org/dc/dcmitype/StillImage" /></cc:Work></rdf:RDF></metadata><defs
     id="defs6" /><g
     transform="matrix(1.25,0,0,-1.25,0,125.8875)"
     id="g10"><g
       transform="scale(0.1,0.1)"
       id="g12"><path
         id="path14"
         style="fill:#414040;fill-opacity:1;fill-rule:nonzero;stroke:none"
         d="m 452.129,518.754 -100.688,-181.781 194.438,0.343 -93.75,181.438 z M 308.973,286.906 c -8.856,0 -17.043,4.668 -21.535,12.293 -4.508,7.629 -4.637,17.071 -0.336,24.817 L 431.031,583.84 c 4.457,8.055 13.09,12.976 22.215,12.879 9.227,-0.133 17.625,-5.321 21.852,-13.524 L 609.113,323.879 c 4.008,-7.754 3.676,-17.012 -0.843,-24.473 -4.528,-7.453 -12.598,-12.004 -21.329,-12.011 L 309,286.906 l -0.027,0" /><path
         id="path16"
         style="fill:#414040;fill-opacity:1;fill-rule:nonzero;stroke:none"
         d="m 753.488,50.0039 67.461,0 L 452.59,732.504 67.8008,50.0039 l 64.1292,0 92.109,167.5271 c 4.391,7.989 12.777,12.957 21.899,12.957 l 399.953,0 c 9.39,0 17.988,-5.273 22.254,-13.621 L 753.488,50.0039 Z M 863.047,0 738.199,0 c -9.39,0 -17.992,5.25 -22.261,13.6055 l -85.34,166.8825 -369.868,0 L 168.617,12.9492 C 164.219,4.96094 155.824,0 146.711,0 L 24.9961,0 C 16.1172,0 7.89844,4.71875 3.41797,12.375 -1.07422,20.0586 -1.14063,29.5313 3.23047,37.2773 L 431.289,796.523 c 4.481,7.93 12.77,12.825 22.008,12.735 9.109,-0.086 17.449,-5.125 21.773,-13.133 L 883.488,39.3945 c 2.871,-4.0703 4.559,-9.0312 4.559,-14.3906 C 888.047,11.1719 876.855,0 863.047,0" /><path
         id="path18"
         style="fill:#414040;fill-opacity:1;fill-rule:nonzero;stroke:none"
         d="m 837.492,650.813 c -13.808,0 -25,11.179 -25,25 l 0,306.328 c 0,13.797 11.192,24.999 25,24.999 13.809,0 25,-11.202 25,-24.999 l 0,-306.328 c 0,-13.821 -11.191,-25 -25,-25" /><path
         id="path20"
         style="fill:#414040;fill-opacity:1;fill-rule:nonzero;stroke:none"
         d="m 990.664,803.984 -306.309,0 c -13.812,0 -25,11.172 -25,25 0,13.813 11.188,25 25,25 l 306.309,0 c 13.806,0 24.996,-11.187 24.996,-25 0,-13.828 -11.19,-25 -24.996,-25" /></g></g></svg>