<?xml version="1.0" encoding="UTF-8" standalone="no"?>
<svg
   xmlns:dc="http://purl.org/dc/elements/1.1/"
   xmlns:cc="http://creativecommons.org/ns#"
   xmlns:rdf="http://www.w3.org/1999/02/22-rdf-syntax-ns#"
   xmlns:svg="http://www.w3.org/2000/svg"
   xmlns="http://www.w3.org/2000/svg"
   viewBox="0 0 146.25 87.212502"
   height="87.212502"
   width="146.25"
   xml:space="preserve"
   version="1.1"
   id="svg2"><metadata
     id="metadata8"><rdf:RDF><cc:Work
         rdf:about=""><dc:format>image/svg+xml</dc:format><dc:type
           rdf:resource="http://purl.org/dc/dcmitype/StillImage" /></cc:Work></rdf:RDF></metadata><defs
     id="defs6" /><g
     transform="matrix(1.25,0,0,-1.25,0,87.2125)"
     id="g10"><g
       transform="scale(0.1,0.1)"
       id="g12"><path
         id="path14"
         style="fill:#96BF0D;fill-opacity:1;fill-rule:nonzero;stroke:none"
         d="m 351.477,189.711 c -38.528,0 -69.856,-31.332 -69.856,-69.844 0,-38.5193 31.328,-69.867 69.856,-69.867 38.515,0 69.851,31.3477 69.851,69.867 0,38.512 -31.336,69.844 -69.851,69.844 M 351.477,0 c -66.086,0 -119.856,53.7695 -119.856,119.867 0,66.078 53.77,119.844 119.856,119.844 66.082,0 119.851,-53.766 119.851,-119.844 C 471.328,53.7695 417.559,0 351.477,0" /><path
         id="path16"
         style="fill:#96BF0D;fill-opacity:1;fill-rule:nonzero;stroke:none"
         d="m 968.098,189.711 c -38.508,0 -69.836,-31.332 -69.836,-69.844 0,-38.5193 31.328,-69.867 69.836,-69.867 38.512,0 69.852,31.3477 69.852,69.867 0,38.512 -31.34,69.844 -69.852,69.844 M 968.098,0 c -66.075,0 -119.836,53.7695 -119.836,119.867 0,66.078 53.761,119.844 119.836,119.844 66.082,0 119.852,-53.766 119.852,-119.844 C 1087.95,53.7695 1034.18,0 968.098,0" /><path
         id="path18"
         style="fill:#96BF0D;fill-opacity:1;fill-rule:nonzero;stroke:none"
         d="m 1122.31,94.8672 -59.36,0 c -13.81,0 -25,11.1878 -25,24.9998 0,13.809 11.19,25 25,25 l 57.05,0 0,45.481 -935.203,0 c -13.809,0 -25,11.191 -25,25 0,13.808 11.191,25 25,25 l 985.203,0 0,-97.805 c 0,-26.297 -21.4,-47.6758 -47.69,-47.6758" /><path
         id="path20"
         style="fill:#96BF0D;fill-opacity:1;fill-rule:nonzero;stroke:none"
         d="m 873.262,94.8672 -426.914,0 c -13.809,0 -25,11.1878 -25,24.9998 0,13.809 11.191,25 25,25 l 426.914,0 c 13.808,0 25,-11.191 25,-25 0,-13.812 -11.192,-24.9998 -25,-24.9998" /><path
         id="path22"
         style="fill:#96BF0D;fill-opacity:1;fill-rule:nonzero;stroke:none"
         d="m 256.602,94.8672 -71.817,0 c -13.808,0 -25,11.1878 -25,24.9998 0,13.809 11.192,25 25,25 l 71.817,0 c 13.808,0 25,-11.191 25,-25 0,-13.812 -11.192,-24.9998 -25,-24.9998" /><path
         id="path24"
         style="fill:#96BF0D;fill-opacity:1;fill-rule:nonzero;stroke:none"
         d="m 808.73,190.348 -623.945,0 c -13.797,0 -25,11.183 -25,25 l 0,174.097 c 0,13.809 11.203,25 25,25 13.809,0 25,-11.191 25,-25 l 0,-149.097 573.945,0 0,407.394 -573.945,0 0,-131.695 c 0,-13.809 -11.191,-25 -25,-25 -13.797,0 -25,11.191 -25,25 l 0,156.695 c 0,13.813 11.203,25 25,25 l 623.945,0 c 13.809,0 25,-11.187 25,-25 l 0,-457.394 c 0,-13.817 -11.191,-25 -25,-25" /><path
         id="path26"
         style="fill:#96BF0D;fill-opacity:1;fill-rule:nonzero;stroke:none"
         d="m 833.73,240.348 286.27,0 0,112.175 -82.27,31.661 c -5.61,2.148 -10.26,6.261 -13.09,11.582 l -76.105,142.949 -114.805,0 0,-298.367 z m 311.27,-50 -336.27,0 c -13.808,0 -25,11.183 -25,25 l 0,348.367 c 0,13.808 11.192,25 25,25 l 154.825,0 c 9.238,0 17.726,-5.102 22.07,-13.25 l 78.765,-147.981 89.57,-34.472 c 9.67,-3.703 16.04,-12.989 16.04,-23.321 l 0,-154.343 c 0,-13.817 -11.19,-25 -25,-25" /><path
         id="path28"
         style="fill:#96BF0D;fill-opacity:1;fill-rule:nonzero;stroke:none"
         d="m 286.406,491.086 -174.824,0 c -13.8086,0 -25,11.184 -25,25 0,13.809 11.1914,25 25,25 l 174.824,0 c 13.809,0 25,-11.191 25,-25 0,-13.816 -11.191,-25 -25,-25" /><path
         id="path30"
         style="fill:#96BF0D;fill-opacity:1;fill-rule:nonzero;stroke:none"
         d="m 286.406,364.414 -261.406,0 c -13.8086,0 -25,11.188 -25,25 0,13.809 11.1914,25 25,25 l 261.406,0 c 13.809,0 25,-11.191 25,-25 0,-13.812 -11.191,-25 -25,-25" /></g></g></svg>