<?xml version="1.0" encoding="UTF-8" standalone="no"?>
<svg
   xmlns:dc="http://purl.org/dc/elements/1.1/"
   xmlns:cc="http://creativecommons.org/ns#"
   xmlns:rdf="http://www.w3.org/1999/02/22-rdf-syntax-ns#"
   xmlns:svg="http://www.w3.org/2000/svg"
   xmlns="http://www.w3.org/2000/svg"
   viewBox="0 0 126.4375 125.1375"
   height="125.1375"
   width="126.4375"
   xml:space="preserve"
   version="1.1"
   id="svg2"><metadata
     id="metadata8"><rdf:RDF><cc:Work
         rdf:about=""><dc:format>image/svg+xml</dc:format><dc:type
           rdf:resource="http://purl.org/dc/dcmitype/StillImage" /></cc:Work></rdf:RDF></metadata><defs
     id="defs6" /><g
     transform="matrix(1.25,0,0,-1.25,0,125.1375)"
     id="g10"><g
       transform="scale(0.1,0.1)"
       id="g12"><path
         id="path14"
         style="fill:#96BF0D;fill-opacity:1;fill-rule:nonzero;stroke:none"
         d="M 888.195,0 123.328,0 C 55.3242,0 0,55.3203 0,123.336 l 0,458.906 c 0,68.02 55.3242,123.34 123.328,123.34 l 313.387,0 70.562,98.801 c 4.688,6.562 12.266,10.469 20.336,10.469 l 63.5,0 c 13.809,0 25,-11.192 25,-25 0,-13.821 -11.191,-25 -25,-25 l -50.629,0 -70.574,-98.789 c -4.683,-6.583 -12.269,-10.481 -20.34,-10.481 l -326.242,0 C 82.9023,655.582 50,622.684 50,582.242 L 50,123.336 C 50,82.8984 82.9023,49.9961 123.328,49.9961 l 764.867,0 c 40.45,0 73.348,32.9023 73.348,73.3399 l 0,458.906 c 0,40.442 -32.898,73.34 -73.348,73.34 -8.246,0 -15.965,4.063 -20.621,10.871 l -46.691,68.125 c -7.82,11.375 -4.922,26.934 6.472,34.746 11.395,7.821 26.938,4.903 34.758,-6.484 l 39.774,-58.008 c 61.593,-6.828 109.653,-59.199 109.653,-122.59 l 0,-458.906 C 1011.54,55.3203 956.211,0 888.195,0" /><path
         id="path16"
         style="fill:#96BF0D;fill-opacity:1;fill-rule:nonzero;stroke:none"
         d="m 221.68,524.461 c -16.348,0 -29.641,-13.281 -29.641,-29.621 0,-16.348 13.293,-29.637 29.641,-29.637 16.34,0 29.629,13.289 29.629,29.637 0,16.34 -13.289,29.621 -29.629,29.621 m 0,-109.258 c -43.922,0 -79.641,35.723 -79.641,79.637 0,43.898 35.719,79.621 79.641,79.621 43.91,0 79.629,-35.723 79.629,-79.621 0,-43.914 -35.719,-79.637 -79.629,-79.637" /><path
         id="path18"
         style="fill:#96BF0D;fill-opacity:1;fill-rule:nonzero;stroke:none"
         d="m 625.977,551.785 c -97.692,0 -177.157,-79.472 -177.157,-177.148 0,-97.676 79.465,-177.149 177.157,-177.149 97.671,0 177.128,79.473 177.128,177.149 0,97.676 -79.457,177.148 -177.128,177.148 m 0,-404.297 c -125.25,0 -227.157,101.903 -227.157,227.149 0,125.242 101.907,227.148 227.157,227.148 125.238,0 227.128,-101.906 227.128,-227.148 0,-125.246 -101.89,-227.149 -227.128,-227.149" /><path
         id="path20"
         style="fill:#96BF0D;fill-opacity:1;fill-rule:nonzero;stroke:none"
         d="m 270.852,666.512 c -13.813,0 -25,11.191 -25,25 l 0,54.636 c 0,13.332 -10.84,24.172 -24.172,24.172 -13.328,0 -24.168,-10.84 -24.168,-24.172 l 0,-54.636 c 0,-13.809 -11.192,-25 -25,-25 -13.813,0 -25,11.191 -25,25 l 0,54.636 c 0,40.899 33.269,74.172 74.168,74.172 40.898,0 74.172,-33.273 74.172,-74.172 l 0,-54.636 c 0,-13.809 -11.196,-25 -25,-25" /><path
         id="path22"
         style="fill:#96BF0D;fill-opacity:1;fill-rule:nonzero;stroke:none"
         d="m 625.977,453.621 c -43.551,0 -78.981,-35.43 -78.981,-78.984 0,-43.555 35.43,-78.965 78.981,-78.965 43.539,0 78.961,35.41 78.961,78.965 0,43.554 -35.422,78.984 -78.961,78.984 m 0,-207.949 c -71.122,0 -128.981,57.851 -128.981,128.965 0,71.121 57.859,128.984 128.981,128.984 71.097,0 128.961,-57.863 128.961,-128.984 0,-71.114 -57.864,-128.965 -128.961,-128.965" /><path
         id="path24"
         style="fill:#96BF0D;fill-opacity:1;fill-rule:nonzero;stroke:none"
         d="m 684.816,789.852 c 36.528,-19.629 66.668,-49.68 86.375,-86.153 20.391,37.664 51.715,66.844 87.469,85.84 -36.957,19.695 -67.394,50.059 -87.207,86.941 -19.711,-36.687 -49.949,-66.921 -86.637,-86.628 m 86.637,-211.25 c -13.805,0 -25,11.179 -25,25 0,88.906 -72.34,161.25 -161.265,161.25 -13.817,0 -25,11.179 -25,25 0,13.808 11.183,25 25,25 88.925,0 161.265,72.332 161.265,161.25 0,13.808 11.195,24.998 25,24.998 13.813,0 25,-11.19 25,-24.998 0,-88.918 72.34,-161.25 161.262,-161.25 13.808,0 25,-11.192 25,-25 0,-13.821 -11.192,-25 -25,-25 -65.027,0 -161.262,-51.25 -161.262,-161.25 0,-13.821 -11.187,-25 -25,-25" /></g></g></svg>