<?xml version="1.0" encoding="UTF-8" standalone="no"?>
<svg
   xmlns:dc="http://purl.org/dc/elements/1.1/"
   xmlns:cc="http://creativecommons.org/ns#"
   xmlns:rdf="http://www.w3.org/1999/02/22-rdf-syntax-ns#"
   xmlns:svg="http://www.w3.org/2000/svg"
   xmlns="http://www.w3.org/2000/svg"
   viewBox="0 0 89.625 70.300003"
   height="70.300003"
   width="89.625"
   xml:space="preserve"
   version="1.1"
   id="svg2"><metadata
     id="metadata8"><rdf:RDF><cc:Work
         rdf:about=""><dc:format>image/svg+xml</dc:format><dc:type
           rdf:resource="http://purl.org/dc/dcmitype/StillImage" /></cc:Work></rdf:RDF></metadata><defs
     id="defs6" /><g
     transform="matrix(1.25,0,0,-1.25,0,70.3)"
     id="g10"><g
       transform="scale(0.1,0.1)"
       id="g12"><path
         id="path14"
         style="fill:#FFFFFF;fill-opacity:1;fill-rule:nonzero;stroke:none"
         d="m 484.082,35 -114.16,0 0,113.418 c 0,9.668 -7.832,17.5 -17.5,17.5 l -105.215,0 c -9.656,0 -17.5,-7.832 -17.5,-17.5 l 0,-113.418 -114.199,0 0,204.813 183.828,164.628 72.305,-62.812 c 1.379,13.531 3.418,27.437 5.937,41.383 l -66.64,57.965 c -6.661,5.918 -16.692,5.902 -23.309,-0.036 L 86.3398,260.668 c -3.7109,-3.32 -5.832,-8.063 -5.832,-13.035 l 0,-230.133 c 0,-9.66797 7.8438,-17.5 17.5,-17.5 l 166.6212,0 0.078,130.918 70.215,0 L 334.98,0 501.582,0 c 9.668,0 17.5,7.83203 17.5,17.5 l 0,96.719 c -11.687,2.383 -23.445,5.871 -35,10.625 l 0,-89.844" /><path
         id="path16"
         style="fill:#FFFFFF;fill-opacity:1;fill-rule:nonzero;stroke:none"
         d="m 310.461,528.477 c -6.602,5.734 -16.406,5.703 -22.981,-0.032 l -107.011,-93.343 0,37.32 c 0,9.664 -7.832,17.5 -17.5,17.5 l -65.7424,0 c -9.6563,0 -17.5,-7.836 -17.5,-17.5 l 0,-125.199 -73.73051,-64.317 c -7.28515,-6.355 -8.03515,-17.41 -1.67968,-24.691 6.35939,-7.281 17.41409,-8.031 24.68749,-1.688 l 85.7231,74.782 0,123.613 30.742,0 -0.028,-96.82 153.575,133.964 85.691,-74.347 c 2.981,13.047 6.211,25.84 9.523,38.074 l -83.769,72.684" /><path
         id="path18"
         style="fill:#FFFFFF;fill-opacity:1;fill-rule:nonzero;stroke:none"
         d="m 675.09,248.926 c -10.352,-25.879 -32.824,-47.813 -61.574,-61.113 l -17.254,50.023 43.242,70.137 c 4.344,7.05 2.148,16.293 -4.902,20.64 -7.063,4.352 -16.289,2.157 -20.637,-4.898 l -30.344,-49.219 -21.383,62.004 23.387,37.777 c 4.367,7.039 2.188,16.289 -4.852,20.649 -7.062,4.367 -16.289,2.187 -20.656,-4.86 l -10.508,-16.964 -24.394,70.742 c -3.152,9.129 -13.106,14.004 -22.254,10.832 -9.133,-3.149 -13.984,-13.11 -10.832,-22.25 l 24.23,-70.25 -18.898,7.586 c -7.695,3.093 -16.434,-0.653 -19.512,-8.336 -3.086,-7.692 0.656,-16.422 8.34,-19.508 l 43.008,-17.254 21.418,-62.117 -58.652,22.316 c -7.727,2.95 -16.399,-0.941 -19.348,-8.687 -2.949,-7.738 0.937,-16.406 8.683,-19.352 l 82.059,-31.219 16.731,-48.488 c -8.145,-1.492 -16.407,-2.344 -24.758,-2.344 -23.594,0 -101.914,7.715 -118.953,106.965 -10.547,61.481 28.523,187.035 45.175,236.453 42.594,-27.851 146.805,-99.949 178.875,-158.3 22.637,-41.172 27.532,-78.504 14.563,-110.965 z m 16.113,127.828 c -44.922,81.738 -202.969,178.937 -209.668,183.035 -4.484,2.731 -9.933,3.313 -14.883,1.598 -4.953,-1.723 -8.867,-5.578 -10.675,-10.492 -2.813,-7.668 -68.817,-188.727 -53.993,-275.075 17.215,-100.312 90.555,-136.047 153.446,-136.047 12.258,0 24.386,1.387 36.269,3.957 l 17.629,-51.1011 c 2.5,-7.25 9.277,-11.8008 16.543,-11.8008 1.883,0 3.817,0.3047 5.703,0.9571 9.141,3.1562 13.992,13.1171 10.84,22.2578 L 625,154.504 c 38.328,16.836 68.547,46.305 82.59,81.434 11.719,29.32 18.387,77.554 -16.387,140.816" /></g></g></svg>