<?xml version="1.0" encoding="UTF-8" standalone="no"?>
<svg
   xmlns:dc="http://purl.org/dc/elements/1.1/"
   xmlns:cc="http://creativecommons.org/ns#"
   xmlns:rdf="http://www.w3.org/1999/02/22-rdf-syntax-ns#"
   xmlns:svg="http://www.w3.org/2000/svg"
   xmlns="http://www.w3.org/2000/svg"
   viewBox="0 0 98.925003 127.3375"
   height="127.3375"
   width="98.925003"
   xml:space="preserve"
   version="1.1"
   id="svg2"><metadata
     id="metadata8"><rdf:RDF><cc:Work
         rdf:about=""><dc:format>image/svg+xml</dc:format><dc:type
           rdf:resource="http://purl.org/dc/dcmitype/StillImage" /></cc:Work></rdf:RDF></metadata><defs
     id="defs6" /><g
     transform="matrix(1.25,0,0,-1.25,0,127.3375)"
     id="g10"><g
       transform="scale(0.1,0.1)"
       id="g12"><path
         id="path14"
         style="fill:#414040;fill-opacity:1;fill-rule:nonzero;stroke:none"
         d="m 712.34,331.383 -261.152,0 0,420.988 261.14,0 -99.969,-210.422 99.981,-210.566 z m -311.152,110 -351.188,0 0,420.976 351.188,0 0,-420.976 z m 390.261,360.988 -340.261,0 0,109.988 -401.188,0 0,81.289 c 0,13.802 -11.1992,25.002 -25,25.002 -13.8125,0 -25,-11.2 -25,-25.002 L 0,24.9961 C 0,11.1914 11.1875,0 25,0 38.8008,0 50,11.1914 50,24.9961 l 0,366.3869 351.188,0 0,-110 390.253,0 -123.73,260.558 123.738,260.43" /></g></g></svg>