<?xml version="1.0" encoding="UTF-8" standalone="no"?>
<svg
   xmlns:dc="http://purl.org/dc/elements/1.1/"
   xmlns:cc="http://creativecommons.org/ns#"
   xmlns:rdf="http://www.w3.org/1999/02/22-rdf-syntax-ns#"
   xmlns:svg="http://www.w3.org/2000/svg"
   xmlns="http://www.w3.org/2000/svg"
   viewBox="0 0 81.775002 106.0375"
   height="106.0375"
   width="81.775002"
   xml:space="preserve"
   version="1.1"
   id="svg2"><metadata
     id="metadata8"><rdf:RDF><cc:Work
         rdf:about=""><dc:format>image/svg+xml</dc:format><dc:type
           rdf:resource="http://purl.org/dc/dcmitype/StillImage" /></cc:Work></rdf:RDF></metadata><defs
     id="defs6" /><g
     transform="matrix(1.25,0,0,-1.25,0,106.0375)"
     id="g10"><g
       transform="scale(0.1,0.1)"
       id="g12"><path
         id="path14"
         style="fill:#414040;fill-opacity:1;fill-rule:nonzero;stroke:none"
         d="m 604.238,74.25 -371.14,150.602 0,385.82 371.14,161.359 0,-697.781 z m -421.14,158.766 -112.2308,0 C 59.3711,233.016 50,242.383 50,253.887 l 0,327.304 c 0,11.512 9.3711,20.879 20.8672,20.879 l 112.2308,0 0,-369.054 z m 19.804,419.054 -132.0348,0 C 31.7852,652.07 0,620.273 0,581.191 L 0,253.887 c 0,-39.082 31.7852,-70.871 70.8672,-70.871 l 132.3398,0 L 654.238,0 l 0,848.281 L 202.902,652.07" /></g></g></svg>