<?xml version="1.0" encoding="UTF-8" standalone="no"?>
<svg
   xmlns:dc="http://purl.org/dc/elements/1.1/"
   xmlns:cc="http://creativecommons.org/ns#"
   xmlns:rdf="http://www.w3.org/1999/02/22-rdf-syntax-ns#"
   xmlns:svg="http://www.w3.org/2000/svg"
   xmlns="http://www.w3.org/2000/svg"
   viewBox="0 0 126.3 113.3375"
   height="113.3375"
   width="126.3"
   xml:space="preserve"
   version="1.1"
   id="svg2"><metadata
     id="metadata8"><rdf:RDF><cc:Work
         rdf:about=""><dc:format>image/svg+xml</dc:format><dc:type
           rdf:resource="http://purl.org/dc/dcmitype/StillImage" /></cc:Work></rdf:RDF></metadata><defs
     id="defs6" /><g
     transform="matrix(1.25,0,0,-1.25,0,113.3375)"
     id="g10"><g
       transform="scale(0.1,0.1)"
       id="g12"><path
         id="path14"
         style="fill:#414040;fill-opacity:1;fill-rule:nonzero;stroke:none"
         d="m 398.859,264.07 c -10.222,0 -19.429,6.235 -23.222,15.743 l -84.192,211.3 -39.058,-85.82 c -4.071,-8.914 -12.957,-14.641 -22.758,-14.641 l -146.9923,0 c -13.8086,0 -25,11.196 -25,25 0,13.813 11.1914,25 25,25 l 130.9103,0 56.68,124.512 c 4.14,9.121 13.507,14.981 23.351,14.641 10.02,-0.235 18.918,-6.438 22.617,-15.735 l 81.383,-204.234 90.098,252.352 c 3.633,10.156 13.371,17.277 24.14,16.582 10.782,-0.262 20.18,-7.415 23.321,-17.723 l 51.801,-170.395 118.597,0 c 13.813,0 25,-11.187 25,-25 0,-13.804 -11.187,-25 -25,-25 l -137.137,0 c -11,0 -20.722,7.2 -23.91,17.735 L 509.316,524.082 422.398,280.664 c -3.492,-9.797 -12.691,-16.398 -23.089,-16.594 l -0.45,0" /><path
         id="path16"
         style="fill:#414040;fill-opacity:1;fill-rule:nonzero;stroke:none"
         d="m 505.203,0 0,0 c -6.695,0 -13.117,2.68359 -17.808,7.44922 L 230.094,268.621 c -9.68,9.848 -9.571,25.664 0.273,35.352 9.836,9.699 25.668,9.562 35.356,-0.25 L 505.203,60.6133 847.602,408.105 c 72.812,72.813 112.832,158.036 112.832,240.071 0,126.66 -80.731,208.512 -205.668,208.512 -13.813,0 -25,11.195 -25,25 0,13.808 11.187,25 25,25 152.929,0 255.664,-103.883 255.664,-258.512 0,-95.395 -45.215,-193.164 -127.344,-275.293 L 523.004,7.44922 C 518.316,2.68359 511.895,0 505.203,0" /><path
         id="path18"
         style="fill:#414040;fill-opacity:1;fill-rule:nonzero;stroke:none"
         d="m 53.6328,494.988 c -9.5508,0 -18.6719,5.508 -22.832,14.785 C 10.3633,555.461 0,602.02 0,648.176 c 0,154.629 102.734,258.512 255.637,258.512 129.476,0 184.199,-59.52 249.566,-136.266 65.379,76.734 120.07,136.266 249.559,136.266 13.812,0 25,-11.192 25,-25 0,-13.805 -11.188,-25 -25,-25 -110.559,0 -150.938,-47.477 -217.836,-126.141 l -12.723,-14.942 c -4.75,-5.546 -11.687,-8.75 -19,-8.75 -7.301,0 -14.25,3.204 -18.992,8.75 l -12.625,14.833 C 406.652,809.172 366.242,856.688 255.637,856.688 130.715,856.688 50,774.836 50,648.176 50,609.109 58.8906,569.402 76.4414,530.203 82.0781,517.605 76.4297,502.82 63.8438,497.18 c -3.3321,-1.489 -6.793,-2.192 -10.211,-2.192" /></g></g></svg>