<?xml version="1.0" encoding="UTF-8" standalone="no"?>
<svg
   xmlns:dc="http://purl.org/dc/elements/1.1/"
   xmlns:cc="http://creativecommons.org/ns#"
   xmlns:rdf="http://www.w3.org/1999/02/22-rdf-syntax-ns#"
   xmlns:svg="http://www.w3.org/2000/svg"
   xmlns="http://www.w3.org/2000/svg"
   viewBox="0 0 126.25 126.55"
   height="126.55"
   width="126.25"
   xml:space="preserve"
   version="1.1"
   id="svg2"><metadata
     id="metadata8"><rdf:RDF><cc:Work
         rdf:about=""><dc:format>image/svg+xml</dc:format><dc:type
           rdf:resource="http://purl.org/dc/dcmitype/StillImage" /></cc:Work></rdf:RDF></metadata><defs
     id="defs6" /><g
     transform="matrix(1.25,0,0,-1.25,0,126.55)"
     id="g10"><g
       transform="scale(0.1,0.1)"
       id="g12"><path
         id="path14"
         style="fill:#818181;fill-opacity:1;fill-rule:nonzero;stroke:none"
         d="m 895.059,204.352 -96.371,0 c -13.809,0 -25,11.187 -25,25 0,13.808 11.191,25 25,25 l 96.371,0 c 35.793,0 64.914,29.109 64.914,64.898 l 0,297.977 c 0,35.785 -29.121,64.894 -64.914,64.894 l -780.153,0 C 79.1172,682.121 50,653.012 50,617.227 L 50,319.25 c 0,-35.789 29.1172,-64.898 64.906,-64.898 l 96.383,0 c 13.809,0 25,-11.192 25,-25 0,-13.813 -11.191,-25 -25,-25 l -96.383,0 C 51.5469,204.352 0,255.891 0,319.25 l 0,297.977 c 0,63.351 51.5469,114.894 114.906,114.894 l 780.153,0 c 63.359,0 114.911,-51.543 114.911,-114.894 l 0,-297.977 c 0,-63.359 -51.552,-114.898 -114.911,-114.898" /><path
         id="path16"
         style="fill:#818181;fill-opacity:1;fill-rule:nonzero;stroke:none"
         d="m 818.234,584.371 c -9.152,0 -16.593,-7.449 -16.593,-16.601 0,-9.149 7.441,-16.582 16.593,-16.582 9.129,0 16.559,7.433 16.559,16.582 0,9.152 -7.43,16.601 -16.559,16.601 m 0,-83.183 c -36.718,0 -66.593,29.863 -66.593,66.582 0,36.718 29.875,66.601 66.593,66.601 36.7,0 66.559,-29.883 66.559,-66.601 0,-36.719 -29.859,-66.582 -66.559,-66.582" /><path
         id="path18"
         style="fill:#818181;fill-opacity:1;fill-rule:nonzero;stroke:none"
         d="m 236.293,49.9961 537.398,0 0,349.3589 -537.398,0 0,-349.3589 z M 780.723,0 229.262,0 c -23.699,0 -42.969,19.2734 -42.969,42.9648 l 0,363.3792 c 0,23.711 19.27,43.011 42.969,43.011 l 551.461,0 c 23.691,0 42.968,-19.3 42.968,-43.011 l 0,-363.3792 C 823.691,19.2734 804.414,0 780.723,0" /><path
         id="path20"
         style="fill:#818181;fill-opacity:1;fill-rule:nonzero;stroke:none"
         d="m 801.652,772.902 c -13.808,0 -25,11.188 -25,25 l 0,164.477 -537.414,0 0,-164.477 c 0,-13.812 -11.187,-25 -25,-25 -13.808,0 -25,11.188 -25,25 l 0,214.478 637.414,0 0,-214.478 c 0,-13.812 -11.191,-25 -25,-25" /><path
         id="path22"
         style="fill:#818181;fill-opacity:1;fill-rule:nonzero;stroke:none"
         d="m 659.504,141.301 -310.184,0 c -13.797,0 -25,11.187 -25,25 0,13.808 11.203,25 25,25 l 310.184,0 c 13.809,0 25,-11.192 25,-25 0,-13.813 -11.191,-25 -25,-25" /><path
         id="path24"
         style="fill:#818181;fill-opacity:1;fill-rule:nonzero;stroke:none"
         d="m 632.531,255.73 -256.25,0 c -13.808,0 -25,11.188 -25,25 0,13.809 11.192,25 25,25 l 256.25,0 c 13.809,0 25,-11.191 25,-25 0,-13.812 -11.191,-25 -25,-25" /></g></g></svg>