<?xml version="1.0" encoding="UTF-8" standalone="no"?>
<svg
   xmlns:dc="http://purl.org/dc/elements/1.1/"
   xmlns:cc="http://creativecommons.org/ns#"
   xmlns:rdf="http://www.w3.org/1999/02/22-rdf-syntax-ns#"
   xmlns:svg="http://www.w3.org/2000/svg"
   xmlns="http://www.w3.org/2000/svg"
   viewBox="0 0 126.3875 126.25"
   height="126.25"
   width="126.3875"
   xml:space="preserve"
   version="1.1"
   id="svg2"><metadata
     id="metadata8"><rdf:RDF><cc:Work
         rdf:about=""><dc:format>image/svg+xml</dc:format><dc:type
           rdf:resource="http://purl.org/dc/dcmitype/StillImage" /></cc:Work></rdf:RDF></metadata><defs
     id="defs6" /><g
     transform="matrix(1.25,0,0,-1.25,0,126.25)"
     id="g10"><g
       transform="scale(0.1,0.1)"
       id="g12"><path
         id="path14"
         style="fill:#ffffff;fill-opacity:1;fill-rule:nonzero;stroke:none"
         d="m 382.863,243.93 c 102.313,0 198.512,39.832 270.852,112.172 72.348,72.359 112.211,168.558 112.211,270.859 0,102.32 -39.863,198.5 -112.211,270.84 C 581.375,970.148 485.176,1010 382.863,1010 280.555,1010 184.355,970.148 112.004,897.801 -37.3359,748.469 -37.3359,505.48 112.016,356.109 184.355,283.762 280.555,243.93 382.863,243.93 m 0,716.07 c 88.961,0 172.59,-34.648 235.5,-97.551 62.91,-62.898 97.563,-146.527 97.563,-235.488 0,-88.949 -34.66,-172.59 -97.563,-235.5 -62.898,-62.902 -146.539,-97.531 -235.5,-97.531 -88.961,0 -172.597,34.629 -235.5,97.531 C 17.5234,521.328 17.5156,732.609 147.355,862.449 210.266,925.352 293.902,960 382.863,960" /><path
         id="path16"
         style="fill:#ffffff;fill-opacity:1;fill-rule:nonzero;stroke:none"
         d="m 986.145,0 c 6.402,0 12.789,2.42188 17.685,7.30078 9.75,9.77342 9.75,25.60152 0,35.38282 L 656.375,390.133 c -9.762,9.742 -25.578,9.742 -35.352,0 -9.75,-9.778 -9.75,-25.61 0,-35.348 L 968.465,7.30859 C 973.363,2.42188 979.746,0 986.145,0" /></g></g></svg>