<?xml version="1.0" encoding="UTF-8" standalone="no"?>
<svg
   xmlns:dc="http://purl.org/dc/elements/1.1/"
   xmlns:cc="http://creativecommons.org/ns#"
   xmlns:rdf="http://www.w3.org/1999/02/22-rdf-syntax-ns#"
   xmlns:svg="http://www.w3.org/2000/svg"
   xmlns="http://www.w3.org/2000/svg"
   viewBox="0 0 144.8625 125.2125"
   height="125.2125"
   width="144.8625"
   xml:space="preserve"
   version="1.1"
   id="svg2"><metadata
     id="metadata8"><rdf:RDF><cc:Work
         rdf:about=""><dc:format>image/svg+xml</dc:format><dc:type
           rdf:resource="http://purl.org/dc/dcmitype/StillImage" /></cc:Work></rdf:RDF></metadata><defs
     id="defs6" /><g
     transform="matrix(1.25,0,0,-1.25,0,125.2125)"
     id="g10"><g
       transform="scale(0.1,0.1)"
       id="g12"><path
         id="path14"
         style="fill:#FFFFFF;fill-opacity:1;fill-rule:nonzero;stroke:none"
         d="m 264.082,456.102 c -14.012,0 -25.371,-11.368 -25.371,-25.379 l 0,-371.9261 -38.684,0 0,298.1051 c 0,14.016 -11.367,25.383 -25.379,25.383 -14.023,0 -25.378,-11.367 -25.378,-25.383 l 0,-298.1051 -38.672,0 0,371.9261 c 0,14.011 -11.3675,25.379 -25.3832,25.379 -14.0234,0 -25.3789,-11.368 -25.3789,-25.379 l 0,-397.305 c 0,-14.0235 11.3555,-25.38284 25.3789,-25.38284 l 178.8672,0 c 14.023,0 25.391,11.35934 25.391,25.38284 l 0,397.305 c 0,14.011 -11.368,25.379 -25.391,25.379 z m 680.293,492.433 c 34.602,0.578 62.105,-28.926 62.665,-62.668 0.58,-34.597 -28.935,-62.097 -62.665,-62.664 -34.59,-0.566 -62.109,28.934 -62.664,62.664 0.574,34.602 28.074,62.102 62.664,62.668 z M 925.918,774.121 c 56.699,-8.476 109.652,24.883 127.182,79.336 16.78,52.082 -10.81,111.59 -59.721,134.621 -52.227,24.602 -112.449,6.024 -144.512,-41.027 -12.082,-17.735 -17.578,-39.942 -17.929,-61.184 -0.008,-1.082 0.039,-2.137 0.136,-3.152 2.332,-53.098 41.172,-100.567 94.844,-108.594 z m -751.27,177.004 c 35.059,0.563 62.969,-29.328 63.528,-63.527 0.562,-35.059 -29.328,-62.969 -63.528,-63.528 -35.058,-0.562 -62.968,29.328 -63.527,63.528 0.578,35.058 28.469,62.949 63.527,63.527 z M 153.477,775.371 c 56.503,-10.137 108.769,22.109 129.101,74.746 19.758,51.133 -5.801,110.422 -51.836,137.071 C 183.809,1014.36 120.52,1002.3 86.6016,960.234 70.4297,940.168 61.5234,916.34 60.4688,890.672 c -0.0782,-0.996 -0.125,-2.02 -0.1094,-3.074 -0.0156,-1.086 0.0312,-2.129 0.1211,-3.125 2.2734,-52.754 40.1055,-99.59 92.9965,-109.102 z m 941.403,-316.66 c -3.52,13.574 -17.39,21.711 -30.95,18.164 -13.57,-3.535 -21.7,-17.402 -18.17,-30.957 l 25.39,-97.441 -42.42,-0.168 c -13.96,-0.055 -25.27,-11.407 -25.27,-25.379 l 0,-263.262 -33.694,0 0,263.445 c 0,14.016 -11.368,25.383 -25.391,25.383 -14.023,0 -25.383,-11.367 -25.383,-25.383 l 0,-263.445 -31.914,0 0,263.262 c 0,13.972 -11.297,25.324 -25.281,25.379 l -42.598,0.168 23.906,99.707 c 3.262,13.632 -5.136,27.324 -18.769,30.593 -13.633,3.262 -27.324,-5.125 -30.598,-18.757 L 767.734,351.563 c -0.468,-1.934 -0.703,-3.918 -0.703,-5.918 0,-26.418 21.504,-47.911 47.813,-47.911 l 21.465,-0.089 0,-240.8286 c 0,-26.418 19.257,-47.91015 42.91,-47.91015 l 57.441,0 c 1.504,0 2.981,0.15625 4.414,0.41016 1.082,-0.14453 2.18,-0.2461 3.301,-0.2461 1.445,0 2.859,0.14844 4.238,0.38282 1.7,-0.35157 3.457,-0.54688 5.266,-0.54688 l 57.431,0 c 23.66,0 42.91,21.49215 42.91,47.91015 l 0,240.8286 21.37,0.089 c 26.42,0 47.91,21.493 47.91,47.911 0,2.168 -0.28,4.316 -0.82,6.406 l -27.8,106.66 z m 63.33,-1.816 c -12.57,54.726 -41.03,165.722 -56.33,225.351 -3.77,14.707 -6.7,26.152 -8.34,32.617 -8.56,33.828 -54.4,41.7 -88.15,44.688 -29.003,2.547 -56.699,1.621 -62.128,1.394 -5.313,0.102 -31.895,0.403 -59.707,-2.703 -31.571,-3.515 -74.129,-11.777 -84.071,-42.558 L 678.164,452.363 c -2.605,-5.664 -2.937,-11.797 -1.394,-17.375 l -18.332,-18.992 c -2.403,3.672 -4.961,7.488 -7.579,11.317 -25.117,36.652 -39.277,49.015 -56.132,49.015 l -92.969,0 c -16.856,0 -31.016,-12.363 -56.133,-49.015 -2.629,-3.829 -5.176,-7.645 -7.566,-11.317 l -16.739,17.332 c -0.09,2.121 -0.414,4.27 -1.066,6.387 l -72.07,235.949 c -0.301,1.008 -0.672,1.992 -1.106,2.949 -5.176,11.563 -33.219,69.2 -77.351,69.2 l -190.1567,0 C 35.7031,747.813 0,712.117 0,668.242 L 0,396.27 c 0,-14.024 11.3672,-25.391 25.3906,-25.391 14.0117,0 25.3711,11.367 25.3711,25.391 l 0,271.972 c 0,15.879 12.9297,28.809 28.8086,28.809 l 190.1367,0 c 5.918,-0.41 21.199,-18.164 30.43,-37.852 l 65.527,-214.531 c -5.644,-9.59 -4.504,-22.109 3.594,-30.496 l 54.844,-56.82 c 4.824,-4.981 11.425,-7.754 18.261,-7.754 0.996,0 1.992,0.058 2.989,0.187 7.871,0.918 14.863,5.488 18.886,12.324 15.84,26.875 35.039,54.414 44.024,63.457 l 79.961,0 c 8.984,-9.043 28.183,-36.582 44.023,-63.457 4.024,-6.836 11.016,-11.406 18.887,-12.324 0.996,-0.129 1.992,-0.187 2.988,-0.187 6.836,0 13.438,2.773 18.262,7.754 l 54.844,56.82 c 8.175,8.465 9.257,21.16 3.418,30.769 l 115.722,251.2 c 0.227,0.48 0.43,0.968 0.625,1.457 10.606,7.656 55.137,13.574 95.91,12.578 0.614,-0.012 1.231,0 1.832,0.027 0.227,0 22.629,1.027 47.786,-0.594 35.93,-2.304 48.91,-8.105 52.59,-10.273 1.73,-6.77 4.35,-17.023 7.6,-29.699 15.24,-59.414 43.61,-170.008 56.03,-224.102 3.14,-13.66 16.76,-22.215 30.42,-19.062 13.65,3.136 22.19,16.757 19.05,30.422 z M 591.23,339.414 c -14.023,0 -25.378,-11.367 -25.378,-25.383 l 0,-36.883 -34.004,0 0,36.883 c 0,14.016 -11.36,25.383 -25.383,25.383 -14.016,0 -25.379,-11.367 -25.379,-25.383 l 0,-288.6482 C 481.086,11.3672 492.449,0 506.465,0 c 14.023,0 25.383,11.3672 25.383,25.3828 l 0,200.9962 34.004,0 0,-200.9962 C 565.852,11.3672 577.207,0 591.23,0 c 14.012,0 25.379,11.3672 25.379,25.3828 l 0,288.6482 c 0,14.016 -11.367,25.383 -25.379,25.383 z m -44.121,252.219 c 14.09,0.398 24.7,-11.613 25.079,-25.09 0.41,-14.094 -11.602,-24.699 -25.079,-25.09 -14.101,-0.398 -24.707,11.613 -25.086,25.09 0.399,14.09 10.985,24.676 25.086,25.09 z m 0,-100.942 c 42.09,-1.218 74.688,35.579 75.852,75.852 1.211,42.09 -35.578,74.687 -75.852,75.848 -40.086,1.164 -71.535,-32.157 -75.449,-70.118 -0.32,-1.785 -0.461,-3.687 -0.398,-5.73 -0.063,-1.816 0.078,-3.496 0.32,-5.117 3.586,-39.59 35.137,-69.571 75.527,-70.735" /></g></g></svg>