<?xml version="1.0" encoding="UTF-8" standalone="no"?>
<svg
   xmlns:dc="http://purl.org/dc/elements/1.1/"
   xmlns:cc="http://creativecommons.org/ns#"
   xmlns:rdf="http://www.w3.org/1999/02/22-rdf-syntax-ns#"
   xmlns:svg="http://www.w3.org/2000/svg"
   xmlns="http://www.w3.org/2000/svg"
   viewBox="0 0 51.200001 41.112499"
   height="41.112499"
   width="51.200001"
   xml:space="preserve"
   version="1.1"
   id="svg2"><metadata
     id="metadata8"><rdf:RDF><cc:Work
         rdf:about=""><dc:format>image/svg+xml</dc:format><dc:type
           rdf:resource="http://purl.org/dc/dcmitype/StillImage" /></cc:Work></rdf:RDF></metadata><defs
     id="defs6" /><g
     transform="matrix(1.25,0,0,-1.25,0,41.1125)"
     id="g10"><g
       transform="scale(0.1,0.1)"
       id="g12"><path
         id="path14"
         style="fill:#96BF0D;fill-opacity:1;fill-rule:evenodd;stroke:none"
         d="m 122.219,245.398 58.504,58.403 -8.297,8.301 c -2.5,2.5 -6.504,2.5 -8.91,0 l -49.598,-49.5 c -2.402,-2.5 -2.402,-6.504 0,-8.899 l 8.301,-8.305 z m 141.902,-3.796 6.496,6.5 1.504,2 c 2.695,5 0.899,12 -3.699,17.199 -4.699,5.199 -11.606,8.097 -18.801,3.402 l -1.308,-0.902 -6.192,-6.203 22,-21.996 z m -40,-98.102 58.399,58.504 -91.2,91.199 -58.507,-58.402 91.308,-91.301 z M 251.223,119 c 1.59,0 3.203,0.602 4.5,1.801 l 49.504,49.597 c 2.5,2.407 2.39,6.403 0,8.903 l -12.11,12.101 -58.398,-58.504 12.097,-12.097 C 248.02,119.602 249.621,119 251.223,119 Z M 74.2227,60.6016 179.719,165.504 163.422,182.102 58.3125,77.5 74.2227,60.6016 Z m 266.8903,-15.8008 0,36 -130.496,0 0,-36 130.496,0 z M 58.1172,44.5039 63.6133,50 47.7266,66.8984 42.2188,61.4023 58.1172,44.5039 Z M 27.8125,17.8047 c 0.7031,0 1.3125,0.1992 2.0039,0.3984 L 33.7227,20.1992 47.5195,34 31.5156,50.8008 16.9258,36.3008 15.4102,33.5 c -0.9844,-3.1953 -0.0977,-7.5 3.4101,-11.3984 1.9922,-2.3008 4.4922,-3.8008 7.1016,-4.2032 0.5937,-0.0937 1.2969,-0.0937 1.8906,-0.0937 z M 324.926,15 l 0,14.3984 -98.11,0 0,-14.3984 98.11,0 z M 28.3125,2.80469 C 20.1211,2.5 12.6211,6.60156 7.62109,12.1016 0.121094,20.5039 -4.1875,35.5039 6.01563,46.5 L 30.9219,71.4023 153.313,193.102 l -50,50 c -8.2935,8.3 -8.2935,21.8 0,30.101 l 49.597,49.496 c 8.313,8.301 21.809,8.301 30.11,0 l 48.496,-48.5 6.707,6.699 0.597,0.504 c 14.793,11.801 31.2,6.602 40.801,-4.101 9.297,-10.5 13.106,-27.399 2,-39.403 L 274.719,231 315.813,189.902 c 8.308,-8.3 8.308,-21.8 0,-30.199 L 266.32,110.199 C 262.121,106.098 256.723,104 251.223,104 c -5.41,0 -10.91,2.098 -15.11,6.199 L 190.922,155.504 43.8203,9.10156 43.2227,8.59766 C 38.3125,4.60156 33.1172,2.89844 28.3125,2.80469 Z M 224.926,0 c -0.41,0 -0.703,0 -1.106,0 -2.804,0.199219 -5.597,1.19922 -7.804,3.00391 -2.293,1.79687 -4.2,4.80078 -4.2,8.59769 l 0,18.1992 -1.503,0 c -8.094,0 -14.696,6.6015 -14.696,14.7031 l 0,36.5938 c 0,8.1015 6.602,14.7031 14.696,14.7031 l 131.105,0 c 8.098,0 14.695,-6.6016 14.695,-14.7031 l 0,-36.5938 c 0,-8.1016 -6.597,-14.7031 -14.695,-14.7031 l -1.492,0 0,-18.1992 c 0,-3.79691 -2.113,-6.89847 -4.406,-8.70316 C 333.313,1.09766 330.41,0.101563 327.617,0 c -0.301,0 -0.496,0 -0.801,0 l -101.89,0" /><path
         id="path16"
         style="fill:#96BF0D;fill-opacity:1;fill-rule:evenodd;stroke:none"
         d="m 348.313,167.402 c -1.895,0 -3.887,0.7 -5.293,2.2 -3.008,2.898 -3.008,7.699 -0.11,10.597 l 27.317,27.403 c 2.89,2.902 7.586,2.902 10.586,0 2.91,-2.899 2.91,-7.7 0,-10.598 l -27.2,-27.402 c -1.492,-1.5 -3.386,-2.2 -5.3,-2.2" /><path
         id="path18"
         style="fill:#96BF0D;fill-opacity:1;fill-rule:evenodd;stroke:none"
         d="m 363.613,134.102 c -3.687,0 -6.992,2.902 -7.39,6.796 -0.41,4.102 2.597,7.801 6.687,8.204 l 38.41,3.902 c 4.09,0.394 7.801,-2.606 8.196,-6.703 0.41,-4.098 -2.59,-7.801 -6.703,-8.199 l -38.387,-3.903 c -0.203,-0.097 -0.508,-0.097 -0.813,-0.097" /><path
         id="path20"
         style="fill:#96BF0D;fill-opacity:1;fill-rule:evenodd;stroke:none"
         d="m 400.41,84.1992 c -0.984,-0.0976 -1.988,0.1016 -2.984,0.5039 L 361.418,98.5 c -3.906,1.5 -5.801,5.801 -4.297,9.703 1.492,3.899 5.789,5.797 9.695,4.297 l 35.997,-13.8008 c 3.91,-1.4961 5.8,-5.8945 4.308,-9.6992 -1.105,-2.9023 -3.808,-4.6992 -6.711,-4.8008" /></g></g></svg>