<?xml version="1.0" encoding="UTF-8" standalone="no"?>
<svg
   xmlns:dc="http://purl.org/dc/elements/1.1/"
   xmlns:cc="http://creativecommons.org/ns#"
   xmlns:rdf="http://www.w3.org/1999/02/22-rdf-syntax-ns#"
   xmlns:svg="http://www.w3.org/2000/svg"
   xmlns="http://www.w3.org/2000/svg"
   viewBox="0 0 261.60001 83.449997"
   height="83.449997"
   width="261.60001"
   xml:space="preserve"
   version="1.1"
   id="svg2"><metadata
     id="metadata8"><rdf:RDF><cc:Work
         rdf:about=""><dc:format>image/svg+xml</dc:format><dc:type
           rdf:resource="http://purl.org/dc/dcmitype/StillImage" /></cc:Work></rdf:RDF></metadata><defs
     id="defs6" /><g
     transform="matrix(1.25,0,0,-1.25,0,83.45)"
     id="g10"><g
       transform="scale(0.1,0.1)"
       id="g12"><path
         id="path14"
         style="fill:#231f20;fill-opacity:1;fill-rule:nonzero;stroke:none"
         d="m 699.664,574.973 21.738,0 0,-103.957 81.692,103.957 23.562,0 -48.172,-60.754 63.36,-120.965 -22.774,0 -54.992,105.516 -42.676,-53.407 0,-52.109 -21.738,0 0,181.719" /><path
         id="path16"
         style="fill:#231f20;fill-opacity:1;fill-rule:nonzero;stroke:none"
         d="m 854.43,527.844 19.113,0 0,-30.117 c 8.125,22.781 20.691,34.043 39.277,34.043 2.364,0 4.715,-0.266 7.332,-0.528 l 0,-20.156 c -1.308,0 -2.351,0 -3.41,0 -25.652,0 -42.144,-19.121 -42.144,-50.273 l 0,-67.559 -20.168,0 0,134.59" /><path
         id="path18"
         style="fill:#231f20;fill-opacity:1;fill-rule:nonzero;stroke:none"
         d="m 938.758,527.844 19.89,0 0,-134.59 -19.89,0 0,134.59 z m 0,47.129 19.89,0 0,-19.903 -19.89,0 0,19.903" /><path
         id="path20"
         style="fill:#231f20;fill-opacity:1;fill-rule:nonzero;stroke:none"
         d="m 998.719,432.004 c 5.491,-16.496 19.641,-25.918 38.231,-25.918 18.85,0 30.37,9.687 30.37,22.773 0,16.504 -14.14,18.075 -38.75,24.09 -29.328,7.071 -42.937,15.711 -42.937,38.235 0,22.781 18.847,40.32 48.167,40.32 24.88,0 42.16,-12.039 48.71,-34.043 l -18.6,-3.926 c -4.19,13.875 -14.66,21.211 -30.89,21.211 -17.02,0 -27.23,-8.379 -27.23,-21.211 0,-16.758 15.18,-17.019 41.11,-23.562 28.02,-7.071 41.37,-17.805 41.37,-38.489 0,-24.089 -20.42,-41.894 -51.32,-41.894 -29.59,0 -50.009,14.394 -56.298,38.75 l 18.067,3.664" /><path
         id="path22"
         style="fill:#231f20;fill-opacity:1;fill-rule:nonzero;stroke:none"
         d="m 1115.77,513.176 -23.57,0 0,14.668 23.57,0 0,31.941 20.15,2.09 0,-34.031 31.95,0 0,-14.668 -31.95,0 0,-70.434 c 0,-25.133 2.37,-35.875 22.79,-35.875 4.19,0 8.9,0.262 13.87,1.571 l 0,-16.758 c -5.49,-1.309 -11.26,-2.09 -16.75,-2.09 -15.98,0 -26.98,4.707 -34.56,15.969 -5.5,7.859 -5.5,20.429 -5.5,37.703 l 0,69.914" /><path
         id="path24"
         style="fill:#231f20;fill-opacity:1;fill-rule:nonzero;stroke:none"
         d="m 1194.07,527.844 19.89,0 0,-134.59 -19.89,0 0,134.59 z m 0,47.129 19.89,0 0,-19.903 -19.89,0 0,19.903" /><path
         id="path26"
         style="fill:#231f20;fill-opacity:1;fill-rule:nonzero;stroke:none"
         d="m 1316.09,461.855 c -36.13,0 -54.73,-10.73 -54.73,-30.632 0,-14.668 10.47,-24.356 28.02,-24.356 23.57,0 42.41,21.211 42.41,47.391 l 0,7.07 c -5.5,0.527 -10.73,0.527 -15.7,0.527 z m 15.7,-43.203 c -9.16,-18.066 -25.92,-28.543 -46.34,-28.543 -27.5,0 -46.08,17.286 -46.08,40.848 0,30.371 27.23,46.086 80.91,46.086 3.66,0 7.59,0 11.51,-0.266 l 0,8.379 c 0,20.168 -10.73,30.117 -33.51,30.117 -20.42,0 -32.2,-7.332 -35.87,-23.308 l -19.11,2.879 c 5.49,24.094 25.13,36.66 58.39,36.66 35.08,0 49.74,-16.758 49.74,-53.152 l 0,-57.61 c 0,-10.207 0.79,-19.109 3.67,-27.488 l -20.16,0 c -2.09,7.598 -3.15,16.23 -3.15,25.398" /><path
         id="path28"
         style="fill:#231f20;fill-opacity:1;fill-rule:nonzero;stroke:none"
         d="m 1383.14,527.844 18.33,0 0,-24.883 c 11,19.383 24.87,28.543 43.47,28.543 28.53,0 43.72,-18.066 43.72,-53.152 l 0,-85.098 -19.38,0 0,86.934 c 0,22.253 -10.2,34.558 -27.75,34.558 -21.47,0 -38.75,-19.109 -38.75,-47.129 l 0,-74.363 -19.64,0 0,134.59" /><path
         id="path30"
         style="fill:#231f20;fill-opacity:1;fill-rule:nonzero;stroke:none"
         d="m 1526.9,432.004 c 5.5,-16.496 19.64,-25.918 38.23,-25.918 18.85,0 30.37,9.687 30.37,22.773 0,16.504 -14.14,18.075 -38.75,24.09 -29.32,7.071 -42.94,15.711 -42.94,38.235 0,22.781 18.85,40.32 48.18,40.32 24.87,0 42.16,-12.039 48.7,-34.043 l -18.59,-3.926 c -4.19,13.875 -14.66,21.211 -30.89,21.211 -17.02,0 -27.24,-8.379 -27.24,-21.211 0,-16.758 15.19,-17.019 41.11,-23.562 28.02,-7.071 41.37,-17.805 41.37,-38.489 0,-24.089 -20.42,-41.894 -51.32,-41.894 -29.59,0 -50.01,14.394 -56.3,38.75 l 18.07,3.664" /><path
         id="path32"
         style="fill:#231f20;fill-opacity:1;fill-rule:nonzero;stroke:none"
         d="m 1649.2,513.176 -23.57,0 0,14.668 23.57,0 0,31.941 20.15,2.09 0,-34.031 31.94,0 0,-14.668 -31.94,0 0,-70.434 c 0,-25.133 2.36,-35.875 22.78,-35.875 4.19,0 8.91,0.262 13.88,1.571 l 0,-16.758 c -5.5,-1.309 -11.26,-2.09 -16.76,-2.09 -15.96,0 -26.97,4.707 -34.56,15.969 -5.49,7.859 -5.49,20.429 -5.49,37.703 l 0,69.914" /><path
         id="path34"
         style="fill:#231f20;fill-opacity:1;fill-rule:nonzero;stroke:none"
         d="m 1794.26,461.855 c -36.13,0 -54.72,-10.73 -54.72,-30.632 0,-14.668 10.47,-24.356 28.01,-24.356 23.57,0 42.42,21.211 42.42,47.391 l 0,7.07 c -5.5,0.527 -10.74,0.527 -15.71,0.527 z m 15.71,-43.203 c -9.16,-18.066 -25.92,-28.543 -46.34,-28.543 -27.5,0 -46.09,17.286 -46.09,40.848 0,30.371 27.23,46.086 80.91,46.086 3.66,0 7.59,0 11.52,-0.266 l 0,8.379 c 0,20.168 -10.74,30.117 -33.52,30.117 -20.42,0 -32.21,-7.332 -35.87,-23.308 l -19.11,2.879 c 5.5,24.094 25.14,36.66 58.39,36.66 35.09,0 49.75,-16.758 49.75,-53.152 l 0,-57.61 c 0,-10.207 0.79,-19.109 3.67,-27.488 l -20.17,0 c -2.09,7.598 -3.14,16.23 -3.14,25.398" /><path
         id="path36"
         style="fill:#231f20;fill-opacity:1;fill-rule:nonzero;stroke:none"
         d="m 1908.97,513.703 c -20.42,0 -34.82,-19.125 -34.82,-53.156 0,-33.516 13.87,-52.625 35.08,-52.625 19.12,0 35.09,16.758 35.09,43.203 l 0,20.684 c 0,26.179 -14.14,41.894 -35.35,41.894 z m 54.73,-120.449 -18.07,0 0,26.707 c -9.17,-19.637 -23.83,-29.852 -41.64,-29.852 -29.06,0 -51.84,26.969 -51.84,69.649 0,43.73 23.3,71.219 53.16,71.219 16.23,0 29.84,-8.379 39.01,-24.082 l 0,68.078 19.38,0 0,-181.719" /><path
         id="path38"
         style="fill:#231f20;fill-opacity:1;fill-rule:nonzero;stroke:none"
         d="m 2003.24,432.004 c 5.5,-16.496 19.64,-25.918 38.23,-25.918 18.85,0 30.37,9.687 30.37,22.773 0,16.504 -14.14,18.075 -38.75,24.09 -29.32,7.071 -42.95,15.711 -42.95,38.235 0,22.781 18.86,40.32 48.19,40.32 24.87,0 42.15,-12.039 48.7,-34.043 l -18.6,-3.926 c -4.19,13.875 -14.65,21.211 -30.89,21.211 -17.02,0 -27.23,-8.379 -27.23,-21.211 0,-16.758 15.18,-17.019 41.11,-23.562 28.02,-7.071 41.37,-17.805 41.37,-38.489 0,-24.089 -20.42,-41.894 -51.32,-41.894 -29.59,0 -50.01,14.394 -56.3,38.75 l 18.07,3.664" /><path
         id="path40"
         style="fill:#231f20;fill-opacity:1;fill-rule:nonzero;stroke:none"
         d="m 699.664,345.078 19.641,0 0,-115.469 60.742,68.34 21.734,0 -41.363,-43.996 47.906,-90.594 -21.211,0 -40.054,76.457 -27.754,-29.589 0,-46.868 -19.641,0 0,181.719" /><path
         id="path42"
         style="fill:#231f20;fill-opacity:1;fill-rule:nonzero;stroke:none"
         d="m 910.465,230.656 c 0,34.297 -15.449,54.199 -38.75,54.199 -23.309,0 -38.496,-19.64 -38.496,-54.199 0,-34.308 15.449,-54.203 38.496,-54.203 23.039,0 38.75,20.16 38.75,54.203 z m -98.977,0 c 0,43.465 24.614,70.957 60.227,70.957 35.871,0 60.742,-27.492 60.742,-70.957 0,-43.203 -24.871,-70.957 -60.742,-70.957 -35.613,0 -60.227,27.754 -60.227,70.957" /><path
         id="path44"
         style="fill:#231f20;fill-opacity:1;fill-rule:nonzero;stroke:none"
         d="m 1096.65,300.828 c 26.44,0 41.11,-18.062 41.11,-52.371 l 0,-85.098 -19.39,0 0,86.934 c 0,21.992 -9.68,33.781 -25.13,33.781 -19.38,0 -36.13,-18.859 -36.13,-46.347 l 0,-74.368 -19.38,0 0,86.934 c 0,21.73 -9.69,33.781 -25.14,33.781 -19.371,0 -36.129,-18.859 -36.129,-46.347 l 0,-74.368 -19.637,0 0,134.59 18.328,0 0,-24.883 c 10.469,18.594 23.828,27.762 40.588,27.762 19.37,0 33.51,-10.476 38.75,-29.07 11.26,19.64 24.87,29.07 42.16,29.07" /><path
         id="path46"
         style="fill:#231f20;fill-opacity:1;fill-rule:nonzero;stroke:none"
         d="m 1310.07,300.828 c 26.45,0 41.11,-18.062 41.11,-52.371 l 0,-85.098 -19.38,0 0,86.934 c 0,21.992 -9.69,33.781 -25.13,33.781 -19.38,0 -36.14,-18.859 -36.14,-46.347 l 0,-74.368 -19.37,0 0,86.934 c 0,21.73 -9.69,33.781 -25.14,33.781 -19.37,0 -36.13,-18.859 -36.13,-46.347 l 0,-74.368 -19.64,0 0,134.59 18.33,0 0,-24.883 c 10.47,18.594 23.83,27.762 40.59,27.762 19.37,0 33.51,-10.476 38.75,-29.07 11.26,19.64 24.87,29.07 42.15,29.07" /><path
         id="path48"
         style="fill:#231f20;fill-opacity:1;fill-rule:nonzero;stroke:none"
         d="m 1488.15,163.359 -18.33,0 0,24.875 c -11,-19.375 -24.87,-28.535 -43.47,-28.535 -28.53,0 -43.72,18.067 -43.72,53.153 l 0,85.097 19.38,0 0,-86.933 c 0,-22.52 10.21,-34.563 27.75,-34.563 21.48,0 39.02,19.113 39.02,47.133 l 0,74.363 19.37,0 0,-134.59" /><path
         id="path50"
         style="fill:#231f20;fill-opacity:1;fill-rule:nonzero;stroke:none"
         d="m 1521.94,297.949 18.33,0 0,-24.883 c 11,19.387 24.87,28.547 43.47,28.547 28.53,0 43.73,-18.066 43.73,-53.156 l 0,-85.098 -19.39,0 0,86.934 c 0,22.258 -10.2,34.562 -27.75,34.562 -21.47,0 -38.75,-19.113 -38.75,-47.128 l 0,-74.368 -19.64,0 0,134.59" /><path
         id="path52"
         style="fill:#1d3c85;fill-opacity:1;fill-rule:nonzero;stroke:none"
         d="m 568.074,667.609 c 0,0 -0.207,-454.765 0,-478.886 C 568.578,129.992 562.508,90.7148 490.348,74.7656 420.16,59.2695 363.863,53.9531 316.512,33.0195 292.469,22.375 284.059,0 284.059,0 c 0,0 -8.438,22.375 -32.469,33.0195 C 204.215,53.9531 147.938,59.2695 77.7617,74.7656 5.57422,90.7148 -0.472656,129.992 0.0273438,188.723 c 0.2031252,24.121 0,478.886 0,478.886 l 568.0466562,0" /><path
         id="path54"
         style="fill:#122657;fill-opacity:1;fill-rule:nonzero;stroke:none"
         d="m 54.8906,460.852 c 1.3086,0.535 2.3047,1.464 2.9453,2.617 0.3555,-1.731 0.8829,-3.528 1.6524,-5.434 0.6328,-1.519 0.9258,-2.594 1.0664,-3.308 -0.7656,-0.164 -1.4453,-0.497 -2.0938,-0.926 -0.3789,0.281 -0.7109,0.566 -1.1328,0.828 -4.082,2.766 -4.7226,4.426 -4.8125,4.426 0.2227,0.496 1.4453,1.394 2.375,1.797 z m 458.3204,0 c 0.723,-0.293 2.148,-1.289 2.363,-1.543 0,-0.012 -0.429,-1.7 -4.828,-4.68 -0.496,-0.352 -0.933,-0.711 -1.414,-1.055 -0.555,0.305 -1.141,0.567 -1.777,0.664 0.129,0.715 0.422,1.778 1.047,3.282 0.82,2.023 1.394,3.964 1.757,5.808 0.645,-1.09 1.602,-1.98 2.852,-2.476 z M 366.266,308.965 c -0.879,3.203 -2.071,9.289 -1.278,16.465 1.082,-0.438 2.528,-0.867 4.461,-0.867 1.77,0 3.731,0.359 5.989,1.093 5.878,1.895 10.371,4.844 13.632,7.606 3.258,-2.684 7.008,-2.832 7.782,-2.832 2.812,0 5.234,1.965 5.839,4.707 0.176,0.801 0.5,1.808 1.008,3.164 1.551,4.59 3.739,9.179 5.938,13.183 3.074,-5.429 8.836,-8.691 14.832,-12.097 4.601,-2.602 9.64,-5.481 14.836,-9.746 -1.367,-1.875 -1.606,-4.375 -0.41,-6.446 0.359,-0.664 0.718,-1.34 1.054,-2.011 -3.437,-3.067 -6.933,-3.547 -25.168,-5.11 -7.851,-0.672 -17.597,-1.504 -30.801,-2.937 -6.777,-0.735 -12.636,-2.188 -17.714,-4.172 z m -97.664,210.012 -63.653,-86.543 c 1.485,43.632 27.34,77.675 63.653,86.543 z m 37.285,-176.653 c 0.039,-0.066 0.039,-0.125 0.058,-0.207 -0.019,0.024 -0.019,0.051 -0.058,0.051 l 0,0.156 z m -71.914,94.485 36.277,45.945 -1.406,-45.477 -34.871,-0.468 z m 123.152,35.808 c 0.637,-1.355 1.309,-3.504 1.445,-6.844 0.188,-4.628 -0.664,-6.847 -0.984,-7.55 -1.731,-1.289 -2.207,-3.192 -1.856,-5.36 0.379,-2.277 2.442,-3.789 4.657,-4.425 0.929,-0.282 1.828,-0.438 2.676,-0.547 -0.008,-2.598 -0.575,-4.871 -1.25,-6.883 -0.204,0.906 -0.442,1.797 -0.782,2.676 -3.742,10.195 -14.179,13.679 -15.371,14.05 -2.656,0.821 -5.527,-0.312 -6.933,-2.722 -1.399,-2.414 -0.918,-5.469 1.113,-7.375 1.398,-1.289 1.289,-4.239 0.781,-5.535 -3.66,-0.872 -6.844,-2.989 -8.789,-4.532 l -27.598,0.274 -0.8,81.773 c 9.25,-1.914 17.656,-5.504 24.902,-10.699 -0.574,-1.301 -0.984,-2.824 -1.035,-4.66 -0.156,-4.852 1.172,-8.789 3.945,-11.649 2.742,-2.863 6.785,-4.355 11.633,-4.355 1.07,0 2.187,0.066 3.32,0.215 0.145,0.019 0.262,0.058 0.399,0.097 1.972,-3.632 3.601,-7.492 4.863,-11.691 0.574,-1.941 2.102,-3.457 4.055,-4.012 0.523,-0.16 1.062,-0.234 1.609,-0.246 z M 312.449,334.699 c -0.558,1.375 -1.301,2.598 -2.187,3.668 0.984,-0.152 1.953,-0.113 2.859,0.207 -0.129,-0.808 -0.195,-1.707 -0.129,-2.656 0.024,-0.332 0.102,-0.625 0.141,-0.926 -0.235,-0.109 -0.449,-0.195 -0.684,-0.293 z m 58.262,53.004 c -1.281,1.887 -3.254,2.953 -5.422,2.953 -5.605,0 -7.148,-6.164 -7.812,-8.781 -0.762,-3.105 -1.825,-6.219 -3.172,-9.227 -0.168,-0.382 -0.305,-0.773 -0.371,-1.195 l -0.024,-0.015 c 0,0 -0.008,0 -0.015,0 -2.676,0.125 -9.563,0.613 -13.536,-2.981 -0.988,0.07 -2.089,0.098 -3.261,0.098 -5.852,0 -10.762,-1.25 -14.993,-3.856 -4.199,-2.597 -5.75,-3.246 -6.667,-3.613 -1.368,-0.59 -2.407,-1.074 -4.122,-2.656 -2.5,-2.317 -3.046,-4.825 -3.058,-6.535 -0.969,-1.141 -1.863,-2.559 -2.395,-4.153 l -0.289,59.543 26.168,0 c 1.926,-1.57 5.051,-3.68 8.684,-4.543 0.527,-1.304 0.625,-4.285 -0.762,-5.562 -2.031,-1.875 -2.5,-4.883 -1.152,-7.285 1.328,-2.395 4.14,-3.575 6.797,-2.852 1.179,0.328 11.765,3.484 15.625,13.504 2.461,6.359 1.535,13.555 -2.743,21.504 1.024,1.902 1.856,3.801 2.5,5.605 1.239,-1.355 2.965,-2.168 4.95,-2.168 0.949,0 1.964,0.176 3.156,0.547 0.242,0.078 0.457,0.149 0.699,0.235 1.469,-16.387 9.301,-24.844 13.918,-28.485 0,-0.168 0,-0.305 0,-0.461 0.02,-1.992 0.598,-3.769 1.867,-5.449 0.34,-0.422 0.731,-0.809 1.153,-1.172 -4.629,-6.66 -9.114,-14.316 -13.391,-22.715 0.305,9.172 -0.449,16.965 -2.332,19.715 z M 242.398,344.367 c -0.722,1.485 -1.835,3.074 -3.543,4.688 -1.117,1.043 -2.539,1.601 -4.003,1.64 -0.032,0.059 -0.063,0.086 -0.079,0.164 0.282,1.258 0.399,2.707 0.118,4.309 -0.403,2.156 -1.661,5.273 -5.539,7.762 -1.414,0.91 -3.125,1.164 -4.707,0.754 -9.071,12.929 -15.321,28.671 -18.106,45.242 l 63.34,-0.84 -0.438,-66.531 c -2.804,-2.356 -4.386,-5.461 -5.246,-8.399 -7.058,2.313 -13.781,5.782 -20.078,10.371 -0.515,0.391 -1.113,0.645 -1.719,0.84 z M 84.8672,351.191 C 82.0859,344.98 78.5117,338.906 75.0547,333.047 66.5977,318.73 57.875,303.938 59.625,285.723 c 0.2266,-2.395 -0.4492,-4.598 -1.9141,-6.219 -1.7773,-1.926 -4.3632,-2.609 -6.0742,-1.328 -3.2226,2.734 -3.0586,21.16 0.2071,39.988 2.3828,0.598 5.1523,1.867 7.5976,4.395 3.9649,4.062 5.8399,10.117 5.5938,18.027 -0.1446,5.656 1.1445,6.953 1.1445,6.953 0.0195,0.012 0.1367,0.039 0.332,0.039 0.7696,0 1.668,-0.351 1.8516,-0.437 2.2109,-1.133 4.8672,-0.793 6.6914,0.839 1.8555,1.629 2.4883,4.227 1.6484,6.532 -0.4179,1.164 -2.7617,7.011 -7.1953,9.836 -0.2148,0.136 -0.3984,0.215 -0.5976,0.34 2.4726,8.371 7.9531,31.085 1.3203,50.195 0.039,0.051 0.0781,0.09 0.1289,0.129 0.4765,0.789 0.9648,1.738 1.4062,2.754 0.0664,-0.09 0.086,-0.188 0.1641,-0.266 1.5039,-1.805 3.9453,-2.547 6.2109,-1.914 0.2149,0.07 0.3985,0.129 0.586,0.195 0.7695,-1.836 1.8476,-3.371 3.0468,-4.597 -0.3515,-1.875 -1.2968,-3.352 -2.1679,-4.348 -1.6016,-1.836 -1.9141,-4.481 -0.8008,-6.66 1.1328,-2.156 3.4766,-3.438 5.8984,-3.192 0.7617,0.079 1.4375,0.254 2.168,0.379 1.3984,-6.867 5.293,-30 -2.0039,-46.172 z m 408.1758,-18.66 c -3.469,5.836 -7.031,11.914 -9.832,18.125 -6.723,14.949 -3.676,37.137 -2.004,46.219 0.645,-0.105 1.309,-0.203 2.004,-0.273 2.41,-0.282 4.766,0.968 5.926,3.125 1.152,2.187 0.859,4.816 -0.723,6.679 -0.84,0.977 -1.758,2.414 -2.09,4.231 1.192,1.238 2.266,2.793 3.047,4.597 0.164,-0.058 0.383,-0.117 0.567,-0.175 2.285,-0.653 4.699,0.089 6.218,1.925 0.121,0.133 0.207,0.321 0.305,0.477 0.41,-0.906 0.84,-1.738 1.277,-2.449 0.043,-0.039 0.082,-0.078 0.121,-0.129 -6.75,-19.492 -0.89,-42.832 1.465,-50.664 -0.246,-0.137 -0.48,-0.242 -0.734,-0.399 -4.434,-2.832 -6.766,-8.691 -7.207,-9.855 -0.84,-2.274 -0.156,-4.805 1.633,-6.453 1.785,-1.621 4.433,-1.985 6.64,-0.949 0.25,0.117 1.16,0.46 1.922,0.46 0.188,0 0.305,-0.011 0.313,-0.011 l 0,0 c 0,0 1.328,-1.297 1.164,-6.961 -0.235,-7.903 1.648,-13.977 5.574,-18.028 2.473,-2.539 5.226,-3.8 7.617,-4.406 3.25,-18.828 3.438,-37.234 0.234,-39.961 -1.746,-1.328 -4.324,-0.625 -6.093,1.321 -1.453,1.601 -2.141,3.808 -1.914,6.218 1.718,18.172 -7,32.989 -15.43,47.336 z m -83.555,177.207 c -0.527,-1.582 -1.543,-4.785 0.45,-8.117 0.988,-1.648 2.453,-2.93 4.609,-3.965 -0.781,-1.277 -1.074,-2.746 -0.938,-4.051 0.332,-3.214 2.746,-5.285 5.743,-6.378 -0.079,-0.555 -0.086,-1.133 -0.028,-1.707 0.047,-0.5 0.145,-0.969 0.289,-1.418 -0.41,0.304 -0.828,0.605 -1.265,0.929 -2.414,1.797 -5.793,1.524 -7.883,-0.644 -2.246,-2.344 -5.184,-7.52 -3.809,-13.227 -0.332,0.082 -0.652,0.207 -0.926,0.317 -0.07,0.015 -0.136,0.039 -0.167,0.058 -0.977,4.453 -5.125,19.082 -20.403,35.828 1.098,1.516 2.063,3.117 2.719,4.895 0.137,0.359 0.223,0.711 0.332,1.082 5.113,-2.039 12.227,-3.242 21.277,-3.602 z M 284.059,200.273 c -2.43,4.219 -6.914,6.602 -10.711,7.715 -1.192,1.418 -2.735,2.461 -4.2,3.106 -0.128,0.066 -0.238,0.097 -0.351,0.156 -4.141,1.504 -7.793,2.238 -11.184,2.238 -5.664,0 -9.57,-2.035 -13,-3.82 -3.297,-1.727 -6.129,-3.223 -11.05,-3.223 -1.172,0 -2.434,0.11 -3.75,0.266 -5.391,0.684 -12.434,2.508 -15.364,7.312 -1.59,2.579 -1.726,5.555 -1.496,7.754 1.41,0.567 2.66,1.438 3.664,2.59 0.332,0.371 0.625,0.789 0.891,1.219 1.523,-0.41 3.203,-0.676 4.98,-0.676 3.946,0 9.735,1.32 15.059,7.531 1.277,1.512 1.734,3.547 1.199,5.442 -0.156,0.586 -0.391,1.109 -0.691,1.601 2.468,0.645 4.734,1.961 6.718,3.926 6.688,6.688 3.575,16.219 0.672,20.789 -1.121,1.758 -3.007,2.918 -5.164,2.832 -2.082,-0.066 -3.965,-1.14 -5,-2.949 -0.168,-0.281 -0.508,-0.613 -0.539,-0.664 0,0 -0.195,0.031 -0.566,0.234 -0.77,10.606 -6.668,44.778 -50.067,49.485 -13.195,1.433 -22.961,2.265 -30.793,2.937 -18.23,1.563 -21.707,2.043 -25.183,5.11 0.34,0.671 0.691,1.347 1.07,2 1.274,2.199 0.969,4.875 -0.64,6.808 5.457,4.52 10.73,7.469 15.234,9.949 5.816,3.223 11.746,6.524 14.754,12.278 2.734,-4.961 5.488,-10.781 7.012,-16.457 0.773,-2.813 3.457,-4.668 6.367,-4.364 1.894,0.184 3.789,0.782 5.468,1.805 3.204,-3.496 7.961,-6.863 14.747,-8.027 9.113,-1.531 11.562,-2.957 14.16,-4.481 0.508,-0.304 1.062,-0.519 1.648,-0.644 0.219,-0.051 5.754,-1.328 12.043,-1.328 4.805,0 8.508,0.761 11.406,1.914 17.676,-10.578 37.586,-16.184 57.578,-16.184 17.004,0 33.309,6.184 48.692,13.957 0.207,-2.023 0.734,-4.14 1.719,-6.25 2.324,-4.992 6.648,-8.75 12.882,-11.281 -14.992,-12.344 -17.843,-30.117 -18.363,-37.234 -0.293,-0.176 -0.437,-0.227 -0.437,-0.247 -0.157,0.098 -0.496,0.411 -0.586,0.547 -1.035,1.828 -2.957,2.961 -5.047,3.02 -2.207,0.152 -4.063,-1.008 -5.18,-2.766 -2.906,-4.57 -6.031,-14.101 0.676,-20.789 1.953,-1.965 4.23,-3.281 6.699,-3.926 -0.301,-0.492 -0.547,-1.015 -0.711,-1.593 -0.519,-1.903 -0.051,-3.938 1.231,-5.45 5.3,-6.211 11.121,-7.531 15.047,-7.531 1.796,0 3.468,0.266 4.972,0.676 0.274,-0.43 0.574,-0.848 0.899,-1.219 1.015,-1.152 2.234,-2.023 3.648,-2.59 0.227,-2.187 0.109,-5.136 -1.433,-7.703 -2.891,-4.824 -9.961,-6.679 -15.403,-7.363 -1.305,-0.156 -2.574,-0.266 -3.738,-0.266 -4.922,0 -7.774,1.496 -11.063,3.223 -3.449,1.785 -7.336,3.82 -13,3.82 -3.386,0 -7.039,-0.734 -11.179,-2.246 -0.11,-0.051 -0.235,-0.082 -0.344,-0.148 -1.465,-0.645 -3.016,-1.688 -4.227,-3.106 -3.781,-1.113 -8.273,-3.496 -10.675,-7.715 z m -0.02,-15.457 c -0.742,1.727 -1.699,3.125 -2.734,4.305 0.851,0.234 1.679,0.625 2.375,1.242 0.125,0.117 0.242,0.274 0.379,0.43 0.117,-0.156 0.214,-0.293 0.371,-0.43 0.691,-0.605 1.504,-0.996 2.363,-1.242 -1.055,-1.172 -2.012,-2.578 -2.754,-4.305 z m 261.106,151.102 c 2.039,8.848 -1.106,18.66 -9.368,29.18 -1.316,1.699 -2.312,3.105 -3.047,4.257 0.977,-0.214 1.993,-0.164 2.969,0.129 2.547,0.782 4.297,3.164 4.239,5.84 -0.196,8.309 -4.434,17.254 -13.379,17.254 -2.715,0 -5.633,-0.906 -8.68,-2.668 -0.512,-0.293 -0.93,-0.64 -1.399,-0.965 -0.476,3.172 -0.507,6.067 -0.156,8.555 3.567,-2.937 7.981,-3.309 9.961,-3.309 0.617,0 0.957,0.039 0.957,0.039 1.973,0.184 3.77,1.348 4.727,3.086 0.957,1.739 1.023,3.844 0.117,5.594 -0.938,1.817 -0.293,3.106 -0.078,3.469 11.437,14.57 14.988,23.531 11.863,29.93 -1.051,2.179 -3.836,5.808 -10.633,5.808 -2.566,0 -4.707,-0.535 -4.922,-0.574 -0.976,-0.223 -1.894,-0.508 -2.832,-0.77 0.618,0.567 1.231,1.114 1.836,1.622 7.004,5.761 9.778,11.531 8.254,17.183 -2.582,9.524 -16.418,12.25 -19.172,12.699 -2.168,0.36 -4.304,-0.539 -5.625,-2.199 -0.031,0.52 -0.086,1.027 -0.144,1.524 3.738,0.968 6.133,3.242 6.68,3.8 1.152,1.172 1.746,2.782 1.675,4.422 -0.066,1.653 -0.797,3.184 -2.058,4.27 -2.293,1.98 -2.332,3.133 -0.34,10.191 0.523,1.86 1.133,3.969 1.601,6.25 0.352,1.613 1.356,6.43 -1.41,10.168 0.918,2.59 1.067,5.305 0.539,7.676 -0.617,2.766 -2.109,4.426 -3.742,5.266 -0.055,1.621 -0.223,3.367 -0.586,5.156 2.824,0.918 4.504,2.48 5.52,3.847 1.445,1.981 2.851,5.469 1.203,10.719 -0.586,1.875 -2.149,3.383 -4.035,3.969 -1.883,0.574 -4.016,0.234 -5.559,-0.988 -0.789,0 -2.008,0.812 -3.238,2.187 l -0.766,0.832 c -5.679,6.336 -11.101,12.363 -17.262,14.559 -0.117,1.965 -0.031,5.129 0.829,9.785 0.507,2.922 -1.161,5.762 -3.954,6.719 -0.46,0.156 -2.179,0.675 -4.55,0.675 -1.75,0 -3.442,-0.292 -5.063,-0.839 -0.847,1.64 -2.437,2.898 -4.351,3.222 0,0 -0.793,0.145 -2.051,0.145 -5.41,0 -11.594,-2.695 -14.094,-10 -2.215,0.226 -4.473,0.383 -6.699,0.383 -4.934,0 -8.856,-0.676 -11.942,-2.012 -2.167,-0.969 -3.75,-2.617 -4.523,-4.727 -1.277,-0.039 -2.668,-0.089 -4.102,-0.089 -4.511,0 -7.019,0.343 -8.328,0.605 -3.488,0.715 -6.925,-0.77 -8.957,-3.895 -3.582,-5.507 -2.746,-16.113 -1.004,-20.988 0.321,-2.246 0.516,-4.773 0.418,-5.652 -0.546,-1.965 -0.324,-3.985 0.664,-5.735 0.606,-1.093 1.473,-1.914 2.461,-2.605 -6.523,0.586 -12.863,1.445 -15.031,2.656 -0.828,2.598 -2.859,7.664 -8.074,7.664 -2.625,0 -4.988,-1.496 -6.473,-4.011 -1.398,-1.282 -2.433,-2.532 -3.261,-3.723 -1.758,-0.086 -3.469,-0.938 -4.551,-2.402 -0.02,-0.02 -0.805,-1.036 -2.18,-2.266 -1.719,2.441 -3.73,4.269 -5.965,5.391 -0.07,0.117 -0.082,0.234 -0.136,0.363 -2.075,4.09 -5.864,6.738 -10.403,7.285 -1.844,0.223 -3.672,-0.441 -4.949,-1.75 -0.305,0.039 -0.598,0.078 -0.93,0.117 0.117,0.625 0.188,1.25 0.188,1.895 0,0.332 0,0.676 -0.039,1.008 6.55,3.074 18.152,10.64 25.711,27.734 1.164,-0.293 2.351,-0.441 3.554,-0.441 6.321,0 11.907,3.789 14.153,9.484 0.855,1.961 1.308,4.031 1.308,6.172 0,8.543 -6.957,15.476 -15.508,15.476 -4.882,0 -9.25,-2.265 -12.089,-5.808 -0.957,1.133 -2.141,2.129 -3.575,2.91 -4.296,2.207 -8.937,2.176 -12.668,0 -1.355,0.527 -3.007,0.937 -4.812,0.937 -3.137,0 -5.996,-1.191 -8.281,-3.449 -0.039,-0.027 -0.051,-0.058 -0.071,-0.086 -0.957,0.086 -1.882,0 -2.793,-0.136 -0.82,6.609 -6.484,11.738 -13.328,11.738 -3.207,0 -6.152,-1.133 -8.476,-3.02 0.359,0.969 0.535,1.985 0.515,3 -0.039,4.539 -3.933,9.227 -10.468,9.578 0.128,0.813 0.195,1.653 0.195,2.5 0,7.727 -5.332,14.102 -12.109,14.805 -1.493,5.734 -5.977,9.785 -11.434,9.785 -5.449,0 -9.941,-4.051 -11.445,-9.804 -6.692,-0.782 -11.946,-7.118 -11.946,-14.786 0,-0.847 0.059,-1.687 0.188,-2.5 -6.524,-0.351 -10.442,-5.039 -10.481,-9.578 0,-1.797 0.567,-3.613 1.7,-5.136 -2.43,2.515 -5.86,4.082 -9.649,4.082 -6.836,0 -12.488,-5.137 -13.332,-11.75 -0.918,0.156 -1.875,0.246 -2.809,0.148 -0.097,-0.012 -0.292,-0.039 -0.558,-0.078 -2.473,2.031 -5.41,3.105 -8.508,3.105 -1.285,0 -2.476,-0.199 -3.531,-0.461 -0.156,0.137 -0.371,0.262 -0.559,0.352 -1.777,1.066 -3.816,1.594 -6.015,1.594 -2.469,0 -4.512,-0.696 -5.274,-0.996 -2.129,-0.754 -3.769,-2.102 -4.988,-3.789 -2.852,3.523 -7.188,5.769 -12.043,5.769 -8.535,0 -15.488,-6.933 -15.488,-15.488 0,-3.223 1.007,-6.223 2.91,-8.711 2.883,-4.063 7.539,-6.473 12.519,-6.473 1.309,0 2.578,0.156 3.821,0.469 7.222,-16.016 18.086,-23.535 24.695,-26.801 -0.106,-0.562 -0.137,-1.109 -0.137,-1.707 0,-2.586 0.938,-4.961 2.481,-6.805 -0.75,-0.324 -1.504,-0.683 -2.293,-1.132 -2.278,-1.313 -3.203,-1.313 -3.84,-1.313 l -0.684,0.012 c -0.332,0 -0.664,0.012 -0.976,0.012 -1.77,0 -4.141,-0.235 -7.039,-2.043 -2.524,-1.582 -4.36,-4.231 -5.688,-7 -4.312,-0.879 -6.004,-6.016 -9.273,-17.11 -4.864,-16.543 -19.582,-31.203 -19.719,-31.347 -0.469,-0.461 -0.828,-1.008 -1.121,-1.543 -0.246,-0.078 -0.637,-0.176 -1.231,-0.215 1.649,5.859 -1.386,11.23 -3.703,13.633 -2.09,2.156 -5.449,2.441 -7.859,0.632 -0.441,-0.332 -0.859,-0.632 -1.289,-0.925 0.152,0.457 0.262,0.925 0.301,1.414 0.078,0.586 0.05,1.164 -0.028,1.699 2.989,1.094 5.41,3.184 5.75,6.379 0.137,1.308 -0.156,2.781 -0.949,4.051 2.172,1.035 3.637,2.316 4.613,3.964 1.786,3 1.161,5.86 0.645,7.571 17.957,0.644 28.398,4.531 30.976,11.609 1.18,3.223 1.219,8.203 -4.972,13.899 -1.477,2.515 -3.848,4.011 -6.485,4.011 -5.195,0 -7.226,-5.066 -8.046,-7.664 -2.383,-1.332 -9.688,-2.219 -16.766,-2.824 1.445,0.82 2.637,1.855 3.445,3.328 0.989,1.731 1.211,3.742 0.664,5.715 -0.097,0.891 0.11,3.398 0.43,5.637 1.836,5.23 2.117,15.605 -1.379,20.957 -1.687,2.586 -4.273,4.082 -7.129,4.082 -0.222,0 -0.719,-0.031 -0.957,-0.059 -2.281,-0.265 -5.789,-0.422 -10.074,-0.422 -1.016,0 -2.024,0.02 -2.961,0.02 -0.77,2.012 -2.324,3.613 -4.414,4.512 -3.098,1.359 -7.02,2.023 -11.965,2.023 -2.527,0 -5.133,-0.188 -7.613,-0.469 -2.656,6.688 -8.574,9.207 -13.7893,9.207 -1.2617,0 -2.0547,-0.136 -2.0547,-0.136 -1.6484,-0.301 -3.0234,-1.27 -3.914,-2.547 -2.0039,0.672 -3.8086,0.867 -5.1367,0.867 -2.3829,0 -4.0743,-0.527 -4.5508,-0.672 -2.7813,-0.977 -4.4532,-3.82 -3.9453,-6.719 0.8515,-4.668 0.9375,-7.812 0.8398,-9.789 -6.0547,-2.125 -11.3086,-7.984 -16.8047,-14.117 l -0.9883,-1.105 c -1.8164,-2.012 -2.9297,-2.168 -3.2422,-2.168 -0.1289,0 -0.2343,0.011 -0.3203,0.031 -1.4257,1.426 -3.2148,1.758 -5.2148,1.289 -2.0625,-0.461 -3.418,-2.285 -4.043,-4.309 -1.6523,-5.246 -0.2656,-8.718 1.1875,-10.711 1.0196,-1.386 2.7266,-2.941 5.5391,-3.847 -0.3789,-1.809 -0.5469,-3.535 -0.586,-5.168 -1.6406,-0.852 -3.125,-2.489 -3.7578,-5.262 -0.5312,-2.375 -0.3711,-5.09 0.5235,-7.668 -2.7539,-3.73 -1.7344,-8.555 -1.4024,-10.176 0.4961,-2.285 1.0821,-4.394 1.6094,-6.269 2,-7.051 1.9531,-8.184 -0.3516,-10.176 -1.2304,-1.094 -1.9921,-2.625 -2.0625,-4.277 -0.0664,-1.629 0.5508,-3.235 1.711,-4.414 0.5351,-0.547 2.9219,-2.833 6.6719,-3.797 -0.1016,-0.657 -0.1407,-1.34 -0.1797,-2.032 -1.3047,1.629 -3.4336,2.52 -5.625,2.168 -2.7305,-0.449 -16.5821,-3.175 -19.1368,-12.699 -1.5351,-5.652 1.25,-11.422 8.2305,-17.183 0.625,-0.508 1.2383,-1.055 1.8477,-1.622 -0.8789,0.243 -1.7305,0.508 -2.6367,0.711 -0.3946,0.098 -2.5391,0.633 -5.1172,0.633 -6.7969,0 -9.5703,-3.629 -10.625,-5.808 -3.125,-6.399 0.4179,-15.352 11.8632,-29.95 0.0118,-0.031 0.9688,-1.418 -0.0781,-3.449 -0.9179,-1.75 -0.8594,-3.855 0.0899,-5.594 0.9648,-1.738 2.7617,-2.91 4.7343,-3.086 0,0 0.3633,-0.039 0.9688,-0.039 2,0 6.3945,0.372 9.9687,3.309 0.3125,-2.371 0.3008,-5.09 -0.1171,-8.066 -0.4766,0.343 -0.9102,0.714 -1.4258,1.035 -3.0586,1.75 -5.9883,2.656 -8.711,2.656 -8.914,0 -13.1718,-8.945 -13.3515,-17.266 -0.0547,-2.675 1.6523,-5.058 4.2226,-5.839 0.9844,-0.301 2,-0.321 2.9688,-0.125 -0.7344,-1.145 -1.7188,-2.551 -3.0469,-4.25 -8.2344,-10.516 -11.3984,-20.332 -9.3672,-29.2 1.4336,-6.23 5.1836,-10.468 8.1953,-13.007 -3.5351,-12.918 -11.5273,-48.915 4.4336,-64.325 4.9297,-4.758 10.4766,-7.168 16.4844,-7.168 6.543,0 12.2539,2.891 16.5195,6.016 0.9883,-5.02 1.4492,-10.109 0.6875,-13.371 -0.4609,0 -0.9687,0.012 -1.4765,0.012 -15.6172,0 -20,-3.879 -21.9336,-6.797 -0.4883,-0.715 -0.8399,-1.465 -1.1055,-2.246 -1.7461,-0.774 -3.2617,-1.934 -4.4531,-3.45 -3.0078,-3.855 -3.7383,-9.394 -2.2031,-16.933 -3.3125,-7.031 -12.2969,-30.106 -0.1875,-51.758 0.4101,-0.73 0.957,-1.355 1.6289,-1.844 0.5078,-0.402 1.5429,-1.094 2.9336,-1.574 1.9492,-10.496 4.8046,-15.496 9.3554,-16.531 -1.6133,-2.578 -2.9023,-5.793 -2.5508,-9.219 0.2852,-2.727 1.5821,-5.176 3.6914,-7.102 1.4922,-9.96 4.9493,-11.562 6.3165,-12.175 0.9296,-0.43 1.8867,-0.645 2.8632,-0.645 4.961,0 7.1368,4.344 8.2149,9.012 1.8359,0.469 3.4258,1.277 4.707,2.363 1.5586,-3.152 4.3438,-6.101 9.5,-6.101 0.7695,0 1.6016,0.086 2.4414,0.242 0.5078,-0.606 1.3086,-1.778 1.8242,-2.528 2.2305,-3.293 4.3477,-6.386 8.2657,-6.386 2.7226,0 5.1173,1.726 6.1013,4.383 1.043,2.832 0.617,6.906 -0.008,10.109 1.368,-0.195 2.918,-0.324 4.629,-0.227 0.379,0.008 0.77,0.071 1.153,0.149 0.164,0 0.332,-0.059 0.507,-0.059 0.547,-0.265 1.598,-1.113 2.184,-1.601 1.633,-1.348 3.496,-2.864 6.164,-2.864 3.184,0 5.801,2.2 6.485,5.5 0.507,2.403 0,4.95 -0.762,7.118 0.508,-0.352 1.054,-0.735 1.601,-1.133 2.344,-1.778 5.625,-1.563 7.754,0.48 2.168,2.125 4.453,6.199 3.711,10.711 -0.605,3.703 -2.961,6.777 -6.941,9.207 -2.016,4.27 -7.102,9.027 -17.492,9.027 -1.825,0 -3.77,-0.136 -5.829,-0.441 -1.82,-0.242 -3.554,-0.391 -5.175,-0.391 -19.1605,0 -19.7698,19.368 -19.7777,21.77 -0.2226,6.785 1.7774,14.355 3.8672,14.687 1.0743,0.184 2.0508,0.665 2.8907,1.368 0.1953,0.164 0.4179,0.34 0.664,0.527 2.375,-9.582 9.6211,-10.41 12.0308,-10.41 4.239,0 7.793,2.051 8.469,2.449 0.938,0.566 1.66,1.414 2.125,2.395 3.266,-3.481 8.086,-5.969 15.481,-4.961 2.207,0.293 4.062,1.812 4.804,3.925 0.754,2.11 0.246,4.461 -1.281,6.114 -0.406,0.418 -3.387,3.75 -2.644,6.98 1.632,0.617 3.156,1.653 4.433,3.008 3.789,4.141 5.254,11.027 4.406,21.113 -0.421,5.196 -0.238,10.11 -0.031,14.875 0.371,9.629 0.75,19.512 -4.14,30.664 0.011,0.028 0.05,0.047 0.05,0.086 0.067,0.09 0.086,0.176 0.133,0.285 12.707,-1.75 35.324,-7.843 36.242,-18.136 0.52,-5.852 -2.656,-9.473 -7.937,-14.715 -5.442,-5.402 -13.535,-13.457 -7.094,-25.859 0.442,-7.305 3,-14.629 8.891,-16.223 0.691,-3.926 2.801,-8.172 7.476,-11.914 -1.129,-1.238 -1.558,-2.899 -1.328,-4.707 0.293,-2.254 2.141,-3.926 4.309,-4.656 0.41,-0.149 2.566,-0.84 5.234,-0.84 1.242,0 2.41,0.164 3.516,0.437 -0.481,-1.472 -0.391,-3.066 0.285,-4.461 0.738,-1.543 2.109,-2.695 3.75,-3.176 0.367,-0.097 1.766,-0.457 3.594,-0.457 3.316,0 7.019,1.278 9.578,4.469 2.519,-1.676 5.644,-3.367 9.297,-4.578 0.136,-2.004 0.691,-4.199 2.129,-6.18 1.261,-1.777 3.562,-3.839 7.597,-4.464 1.399,-3.829 4.082,-8.301 8.977,-9.012 0.39,-0.051 0.789,-0.071 1.14,-0.071 2.188,0 4.231,0.899 5.743,2.532 1.98,2.136 2.765,5.273 3.007,8.105 2.032,1.043 4.25,2.586 5.684,4.832 3.898,-2.508 7.559,-2.84 9.238,-2.84 0.84,0 1.399,0.067 1.641,0.118 0.383,-0.649 0.762,-1.368 1.016,-2.004 0.808,-1.973 2.597,-3.368 4.718,-3.66 0.282,-0.051 0.543,-0.059 0.821,-0.059 1.824,0 3.574,0.828 4.714,2.305 3.106,3.964 3.411,8.222 2.707,11.687 1.434,0.578 2.645,1.457 3.594,2.481 0.281,0.097 0.582,0.183 0.867,0.332 1.633,0.832 4.172,-0.157 4.329,-0.235 0.906,-0.527 1.921,-0.789 2.949,-0.789 1.23,0 2.461,0.379 3.496,1.141 0.469,0.344 0.887,0.762 1.258,1.203 0.312,-0.402 0.683,-0.793 1.113,-1.106 1.047,-0.789 2.316,-1.199 3.605,-1.199 0.985,0 1.981,0.254 2.879,0.731 0.008,0.019 2.649,1.125 4.328,0.254 0.274,-0.137 0.547,-0.215 0.801,-0.313 0.965,-1.043 2.188,-1.961 3.66,-2.539 -0.703,-3.457 -0.371,-7.684 2.707,-11.648 1.153,-1.477 2.887,-2.305 4.735,-2.305 0.265,0 0.539,0.008 0.812,0.059 2.098,0.292 3.907,1.707 4.696,3.66 0.246,0.597 0.636,1.32 1.035,2.004 0.246,-0.051 0.812,-0.118 1.64,-0.118 1.692,0 5.325,0.332 9.231,2.84 1.414,-2.246 3.66,-3.797 5.691,-4.832 0.246,-2.832 1.004,-5.969 2.981,-8.105 1.519,-1.633 3.582,-2.532 5.761,-2.532 0.379,0 0.743,0.02 1.153,0.09 4.922,0.703 7.586,5.067 9.004,8.993 4.004,0.644 6.297,2.707 7.578,4.464 1.414,1.981 1.972,4.176 2.117,6.18 3.645,1.211 6.77,2.902 9.297,4.578 2.558,-3.172 6.238,-4.469 9.59,-4.469 1.816,0 3.191,0.36 3.593,0.457 1.633,0.481 2.989,1.633 3.711,3.176 0.696,1.395 0.793,2.996 0.301,4.461 1.106,-0.273 2.278,-0.437 3.508,-0.437 2.688,0 4.855,0.691 5.266,0.84 2.156,0.73 4.07,2.324 4.375,4.589 0.254,1.875 -0.168,3.543 -1.407,4.793 4.657,3.723 6.766,7.981 7.489,11.895 5.871,1.582 8.429,8.918 8.879,16.223 6.453,12.402 -1.653,20.457 -7.102,25.859 -5.293,5.242 -8.457,8.863 -7.922,14.715 0.918,10.293 23.52,16.386 36.235,18.136 0.054,-0.109 0.078,-0.195 0.105,-0.285 0.07,-0.136 0.148,-0.203 0.215,-0.332 -5.028,-11.277 -4.656,-21.25 -4.27,-30.976 0.176,-4.754 0.375,-9.676 -0.066,-14.871 -0.809,-10.059 0.637,-16.954 4.433,-21.094 1.258,-1.367 2.786,-2.387 4.426,-3.02 0.742,-3.23 -2.226,-6.543 -2.609,-6.953 -1.563,-1.59 -2.09,-3.972 -1.336,-6.101 0.73,-2.129 2.613,-3.653 4.844,-3.965 7.304,-0.977 12.144,1.453 15.418,4.902 0.488,-0.937 1.242,-1.758 2.199,-2.336 0.652,-0.398 4.195,-2.429 8.445,-2.429 2.403,0 9.641,0.808 12.024,10.41 0.242,-0.196 0.457,-0.371 0.672,-0.547 0.832,-0.703 1.816,-1.153 2.871,-1.36 2.07,-0.339 4.054,-7.89 3.886,-14.882 -0.019,-2.207 -0.632,-21.563 -19.793,-21.571 -1.613,0 -3.363,0.137 -5.16,0.391 -2.047,0.293 -4.012,0.437 -5.836,0.437 -10.39,0 -15.468,-4.753 -17.48,-9.011 -4.004,-2.434 -6.34,-5.52 -6.938,-9.2 -0.742,-4.511 1.528,-8.593 3.703,-10.734 2.11,-2.031 5.411,-2.254 7.762,-0.488 0.453,0.351 0.93,0.683 1.379,0.996 -0.633,-2.012 -1.008,-4.285 -0.547,-6.465 0.684,-3.281 3.281,-5.476 6.465,-5.476 2.695,0 4.551,1.523 6.191,2.871 0.481,0.41 1.282,1.054 1.856,1.386 0.598,-0.234 1.269,-0.382 1.973,-0.422 1.691,-0.078 3.203,0.051 4.531,0.235 -0.574,-3.113 -0.899,-6.883 0.09,-9.57 0.972,-2.645 3.379,-4.383 6.113,-4.383 l 0,0 c 3.902,0 6.016,3.093 8.25,6.386 0.41,0.575 0.976,1.414 1.465,2.059 0.957,-0.215 1.902,-0.312 2.812,-0.312 5.157,0 7.93,2.96 9.492,6.113 1.29,-1.082 2.883,-1.895 4.715,-2.383 1.086,-4.668 3.266,-9.004 8.188,-9.004 1.004,0 1.972,0.203 2.871,0.637 1.375,0.644 4.851,2.246 6.348,12.187 2.109,1.934 3.378,4.383 3.671,7.098 0.372,3.43 -0.929,6.652 -2.539,9.23 4.52,1.024 7.379,6.012 9.356,16.524 1.375,0.457 2.441,1.172 2.945,1.582 0.637,0.488 1.203,1.101 1.594,1.836 12.101,21.64 3.144,44.715 -0.164,51.765 1.531,7.532 0.801,13.079 -2.207,16.926 -1.192,1.512 -2.727,2.684 -4.465,3.457 -0.242,0.77 -0.625,1.524 -1.082,2.246 -1.953,2.911 -6.34,6.786 -21.953,6.786 -0.512,0 -1.008,0 -1.477,-0.02 -0.742,3.262 -0.293,8.352 0.703,13.359 4.258,-3.105 9.981,-5.996 16.504,-5.996 6.028,0 11.563,2.422 16.504,7.168 15.957,15.43 7.957,51.406 4.414,64.317 3.028,2.539 6.778,6.789 8.196,13.027" /><path
         id="path56"
         style="fill:#e3c465;fill-opacity:1;fill-rule:nonzero;stroke:none"
         d="m 90.3281,124.91 c 0,0 2.0313,7.141 6.4649,1.75 0,0 1.7578,-6.726 0.8125,-9.277 -0.9571,-2.547 -4.8672,5.918 -7.2774,7.527" /><path
         id="path58"
         style="fill:#e3c465;fill-opacity:1;fill-rule:nonzero;stroke:none"
         d="m 109.664,131.23 c 0,0 2.461,8.645 6.492,3.879 0,0 2.922,-4.629 2.317,-7.578 -0.614,-2.929 -4.637,3.856 -8.809,3.699" /><path
         id="path60"
         style="fill:#e3c465;fill-opacity:1;fill-rule:nonzero;stroke:none"
         d="m 113.094,298.906 c 0,0 -7.043,16.887 10.945,27.266 0,0 -8.164,-14.082 -3.711,-20.848 7,-10.676 10.774,-18.625 6.785,-27.355 0,0 -0.398,5.066 -5.515,9.238 -5.164,4.199 -8.223,10.168 -8.504,11.699" /><path
         id="path62"
         style="fill:#e3c465;fill-opacity:1;fill-rule:nonzero;stroke:none"
         d="m 254.93,170.82 c 0,0 0.144,8.067 5.523,3.489 0,0 3.508,-5.246 -0.269,-10.09 0,0 -2.286,5.656 -5.254,6.601" /><path
         id="path64"
         style="fill:#e3c465;fill-opacity:1;fill-rule:nonzero;stroke:none"
         d="m 269.313,180.352 c 0,0 -2.059,6.906 1.906,7.793 0,0 6.394,-0.184 8.125,-8.145 0,0 -5.012,2.941 -10.031,0.352" /><path
         id="path66"
         style="fill:#e3c465;fill-opacity:1;fill-rule:nonzero;stroke:none"
         d="m 55.8633,381.074 c 1.7422,-2.109 2.4336,-4.656 2.8164,-7.695 0.3672,-2.871 0.3008,-5.625 -0.0703,-8.399 0.4375,0.137 0.8984,0.247 1.3672,0.286 0.6914,0.105 1.8281,0.242 2.9492,0.214 2.6172,8.563 16.8476,60.848 -24.4922,70.235 0,0 -22.4219,5.918 2.3359,-25.656 0,0 3.418,-4.317 0.5235,-9.883 0,0 13.6562,-1.063 7.9101,15.429 0,0 14.0039,-11.933 6.6602,-34.531" /><path
         id="path68"
         style="fill:#e3c465;fill-opacity:1;fill-rule:nonzero;stroke:none"
         d="m 55.8633,430.305 c -0.3789,-0.762 6.7305,-2.422 9.4336,-12.102 0,0 10.5273,16.68 -11.3164,31.496 -15.8789,10.75 -1.336,16.68 -1.336,16.68 0,0 -26.3984,-4.309 -8.0781,-19.375 4.3945,-3.606 13.2031,-12.922 11.2969,-16.699" /><path
         id="path70"
         style="fill:#e3c465;fill-opacity:1;fill-rule:nonzero;stroke:none"
         d="m 99.4805,568.223 c -0.5391,2.422 -2.5508,3.906 -2.5508,3.906 l -0.2813,5.109 c 0,0 8.4846,1.356 10.0936,-7.929 l -7.2615,-1.086" /><path
         id="path72"
         style="fill:#e3c465;fill-opacity:1;fill-rule:nonzero;stroke:none"
         d="m 108.523,501.504 c 0,0 14.122,15.891 35.118,14.414 22.488,-1.59 52.078,2.266 36.355,15.605 0,0 -2.031,5.247 -4.25,-2.468 -1.305,-4.59 -13.269,-5.821 -33.328,-7.102 0,0 -25.422,-1.211 -36.34,-17.762 0,0 0.41,-1.73 2.445,-2.687" /><path
         id="path74"
         style="fill:#e3c465;fill-opacity:1;fill-rule:nonzero;stroke:none"
         d="m 477.762,124.91 c 0,0 -2.016,7.141 -6.457,1.75 0,0 -1.758,-6.726 -0.813,-9.277 0.942,-2.547 4.848,5.918 7.27,7.527" /><path
         id="path76"
         style="fill:#e3c465;fill-opacity:1;fill-rule:nonzero;stroke:none"
         d="m 458.434,131.23 c 0,0 -2.481,8.645 -6.493,3.879 0,0 -2.941,-4.629 -2.316,-7.589 0.613,-2.918 4.617,3.867 8.809,3.71" /><path
         id="path78"
         style="fill:#e3c465;fill-opacity:1;fill-rule:nonzero;stroke:none"
         d="m 455.027,298.906 c 0,0 7.008,16.887 -10.968,27.266 0,0 8.144,-14.082 3.722,-20.848 -7.023,-10.676 -10.801,-18.625 -6.797,-27.355 0,0 0.379,5.066 5.516,9.238 5.137,4.199 8.203,10.168 8.527,11.699" /><path
         id="path80"
         style="fill:#e3c465;fill-opacity:1;fill-rule:nonzero;stroke:none"
         d="m 313.172,170.82 c 0,0 -0.156,8.067 -5.539,3.489 0,0 -3.477,-5.246 0.293,-10.09 0,0 2.265,5.656 5.246,6.601" /><path
         id="path82"
         style="fill:#e3c465;fill-opacity:1;fill-rule:nonzero;stroke:none"
         d="m 298.766,180.352 c 0,0 2.07,6.906 -1.895,7.793 0,0 -6.394,-0.184 -8.125,-8.145 0,0 5.02,2.941 10.02,0.352" /><path
         id="path84"
         style="fill:#e3c465;fill-opacity:1;fill-rule:nonzero;stroke:none"
         d="m 529.656,435.715 c -41.117,-9.328 -27.25,-61.113 -24.511,-70.078 1.406,0.242 3.066,-0.274 4.539,-1.074 -0.313,3.171 0.058,6.648 0.363,9.55 0.176,1.61 0.406,5.758 1.933,7.715 -6.789,22.117 6.891,33.777 6.891,33.777 -5.73,-16.492 7.902,-15.429 7.902,-15.429 -2.871,5.566 0.54,9.883 0.54,9.883 24.773,31.574 2.343,25.656 2.343,25.656" /><path
         id="path86"
         style="fill:#e3c465;fill-opacity:1;fill-rule:nonzero;stroke:none"
         d="m 512.234,430.305 c 0.379,-0.762 -6.742,-2.422 -9.425,-12.102 0,0 -10.528,16.68 11.3,31.496 15.887,10.75 1.344,16.68 1.344,16.68 0,0 26.371,-4.309 8.09,-19.375 -4.395,-3.606 -13.215,-12.922 -11.309,-16.699" /><path
         id="path88"
         style="fill:#e3c465;fill-opacity:1;fill-rule:nonzero;stroke:none"
         d="m 467.992,568.586 c 0.539,2.422 2.563,3.906 2.563,3.906 l 0.261,5.106 c 0,0 -8.464,1.355 -10.078,-7.95 l 7.254,-1.062" /><path
         id="path90"
         style="fill:#e3c465;fill-opacity:1;fill-rule:nonzero;stroke:none"
         d="m 460.32,501.504 c 0,0 -14.121,15.891 -35.129,14.414 -22.48,-1.59 -52.078,2.266 -36.336,15.605 0,0 2.02,5.247 4.227,-2.468 1.32,-4.59 13.262,-5.821 33.328,-7.102 0,0 25.442,-1.211 36.328,-17.762 0,0 -0.386,-1.73 -2.418,-2.687" /><path
         id="path92"
         style="fill:#e3c465;fill-opacity:1;fill-rule:nonzero;stroke:none"
         d="m 363.063,527.59 c -0.118,-0.031 -0.235,-0.051 -0.372,-0.031 -0.175,0.019 -0.339,0.019 -0.527,0.05 -0.117,-0.019 -0.203,-0.031 -0.32,-0.031 -16.465,-1.883 -11.485,-9.148 -11.485,-9.148 0,0 -3.039,-3.77 -0.722,-7.18 0,0 0.379,3.594 4.859,2.863 0,0 3.305,-1.347 5.129,0.918 0.156,0.332 0.313,0.645 0.574,0.946 0.121,0.265 0.215,0.566 0.305,0.871 0.027,0.398 0.344,0.73 0.734,0.761 2.157,0.196 3.985,0.496 5.465,0.821 1.516,0.613 2.844,1.367 4.055,2.254 -1.082,2.265 -3.672,6.574 -7.695,6.906" /><path
         id="path94"
         style="fill:#e3c465;fill-opacity:1;fill-rule:nonzero;stroke:none"
         d="m 362.059,529.875 c 0.195,0.008 0.379,0.008 0.535,0.008 -0.742,1.476 -2.383,3.664 -5.762,4.062 0,0 1.887,-3.769 -2.883,-2.422 0,0 -8.433,4.133 -15.797,-5.203 -2.113,-2.675 0.899,-4.121 0.899,-4.121 0,0 -2.688,-3.769 -0.715,-6.113 0,0 0.898,3.594 4.687,3.418 0,0 3.094,-1.848 3.918,0.351 0.332,0.84 0.633,1.329 0.899,1.622 -0.207,6.765 8.437,8.886 14.219,8.398" /><path
         id="path96"
         style="fill:#e3c465;fill-opacity:1;fill-rule:nonzero;stroke:none"
         d="m 343.816,498.32 c -0.722,1.164 -1.562,2.285 -1.339,3.723 0.019,0.086 0.07,0.156 0.128,0.234 0,0.243 0.106,0.496 0.321,0.653 0.019,0 0.051,0.019 0.078,0.039 l 0.019,0.019 c 2.043,3.567 -0.593,4.453 -0.593,4.453 -2.817,0.664 0.117,4.161 0.117,4.161 -2.141,-0.125 -5.637,-3.235 -5.637,-3.235 0,0 -3.476,0.696 -3.633,-4.293 -0.339,-9.875 7.61,-10.265 12.188,-9.699 -0.399,1.398 -0.891,2.695 -1.649,3.945" /><path
         id="path98"
         style="fill:#e3c465;fill-opacity:1;fill-rule:nonzero;stroke:none"
         d="m 274.637,431.379 -53.117,-0.715 55.253,69.992 -2.136,-69.277 z m 69.258,20.652 c 5.039,-4.668 3.242,-14.902 -1.243,-15.613 -4.5,-0.715 -8.613,-4.855 -8.613,-4.855 l -35.723,0.371 -0.886,91.875 c -7.364,1.796 -17.602,0.363 -17.602,0.363 L 201.5,417.648 c -0.262,-1.339 0.801,-2.675 0.801,-2.675 l 73.586,-0.989 -0.489,-75.644 c -6.328,-2.969 -6.054,-10.985 -6.054,-10.985 18.562,11.571 37.945,0.575 37.945,0.575 1.488,7.937 -7.359,10.41 -7.359,10.41 l -0.356,74.933 34.465,0 c 0,0 3.945,-4.132 8.43,-4.855 4.472,-0.715 6.269,-10.945 1.258,-15.625 0,0 22.246,6.125 7.519,29.258 14.727,23.144 -7.351,29.98 -7.351,29.98" /><path
         id="path100"
         style="fill:#e3c465;fill-opacity:1;fill-rule:nonzero;stroke:none"
         d="m 334.723,521.418 c -2.325,1.648 -1.973,4.285 -0.321,6.609 -14.172,6.114 -29.179,9.61 -45.422,9.61 -22.675,0 -42.812,-5.84 -60.417,-16.942 0.625,-1.191 0.222,-2.793 -0.793,-3.703 0.039,-4.558 -2.372,-9.715 -7.684,-9.375 -0.883,0.039 -1.367,0.969 -1.113,1.75 0.562,1.688 0.586,3.223 0.117,4.903 -26.27,-19.825 -42.629,-50.489 -42.629,-86.387 0,-23.723 7.402,-46.457 20,-65.52 1.75,2.414 6.23,4.075 8.898,4.407 3.321,0.39 7.227,-0.586 8.551,-4.028 1.262,-0.027 2.602,-0.73 3.41,-1.519 1.004,-0.981 1.692,-2.27 2.11,-3.633 0.144,0.113 0.351,0.195 0.547,0.262 0.468,0.128 1.113,0.031 1.554,-0.11 -14.496,19.375 -22.629,44.875 -22.629,70.766 0,53.23 35.43,98.699 88.653,98.699 17.976,0 34.59,-5.281 47.675,-15.977 0.508,0.625 1.086,1.172 1.758,1.661 -2.492,2.16 -3.211,5.312 -2.265,8.527" /><path
         id="path102"
         style="fill:#e3c465;fill-opacity:1;fill-rule:nonzero;stroke:none"
         d="m 381.063,525.605 c 0,0 -4.551,-6.367 -12.778,-8.671 -1.336,-0.594 -2.703,-1.067 -4.07,-1.375 -2.957,-0.684 -2.977,-4.055 -5.945,-5.059 -1.848,-0.625 -3.774,-0.391 -5.391,0.516 -0.539,-1.114 -0.606,-2.313 -0.09,-3.575 0.332,-0.73 -0.242,-1.433 -0.965,-1.562 -2.48,-0.469 -4.789,1.074 -5.625,3.449 -0.207,0.527 -0.324,1.074 -0.414,1.602 -1.375,-1.289 -0.457,-1.075 0,-2.188 0.844,-2.16 1.125,-4.211 0.129,-6.359 -0.203,-0.488 -0.605,-0.672 -1.035,-0.672 0,-0.02 -0.012,-0.02 -0.012,-0.039 5.492,-6.574 9.629,-14.121 12.328,-23.086 0,0 9.129,7.906 5.196,20.105 0,0 28.347,9.864 18.672,26.914" /><path
         id="path104"
         style="fill:#e3c465;fill-opacity:1;fill-rule:nonzero;stroke:none"
         d="m 269.422,202.754 c -0.141,1.75 -2.695,2.871 -2.695,2.871 -18.696,6.867 -17.942,-7.352 -37.676,-4.832 -29.563,3.758 -20.996,26.367 -20.996,26.367 0,0 6.269,-1.633 5.027,7.176 0,0 10.574,-8.973 19.91,1.973 0,0 -18.289,6.289 -7.711,12.91 0,0 8.59,-8.262 15.262,-1.59 5.098,5.113 -0.137,13.367 -0.137,13.367 0,0 -4.441,-7.812 -12.09,-0.281 0,0 1.446,41.465 -44.851,46.492 -46.301,5.02 -52.5,2.863 -60.168,10.324 0,0 -3.223,-7.031 -0.938,-10.644 2.286,-3.625 11.164,-13.184 8.743,-24.903 0,0 42.011,-4.433 43.757,-23.828 1.739,-19.375 -25.3,-22.187 -15.07,-39.433 0,0 0.395,-18.157 9.535,-10.215 0,0 -3.996,-8.176 4.852,-15.09 5.519,-4.316 0.945,-8.191 0.945,-8.191 0,0 10.363,-3.516 9.414,7.793 0,0 7.68,-4.844 3.098,-15.743 0,0 8.496,-2.422 8.762,8.34 0,0 7.117,-8.34 18.562,-10.082 0,0 -3.641,-10.789 7.805,-9.293 0,0 1.48,-8.476 5.254,-9.023 3.765,-0.539 3.101,8.75 3.101,8.75 0,0 15.879,4.031 0.266,13.054 0,0 7.004,0.262 11.699,-4.851 4.727,-5.109 9.699,-4.297 9.699,-4.297 0,0 -0.414,9.41 5.379,8.477 l 2.461,-1.711 c -0.027,0.109 -0.039,0.214 -0.027,0.324 0,0.113 0.019,0.223 0.019,0.332 -0.019,1.07 -0.39,2.664 -1.984,4.043 -1.609,1.394 -4.59,2.652 -10.039,2.652 -0.567,0 -1.152,0 -1.777,-0.027 -0.165,-0.027 -0.645,-0.086 -1.29,-0.086 -0.808,0.019 -1.875,0.086 -2.929,0.496 -1.035,0.391 -2.188,1.328 -2.461,2.832 l 0,0 c -0.145,0.734 0.344,1.445 1.074,1.582 0.723,0.137 1.438,-0.351 1.563,-1.094 0.089,-0.398 0.273,-0.578 0.832,-0.808 0.515,-0.227 1.304,-0.313 1.921,-0.305 0.301,0 0.567,0.012 0.743,0.031 0.168,0.008 0.246,0.02 0.246,0.02 l 0.125,0.019 c 0.683,0.028 1.316,0.039 1.953,0.039 5.859,0.008 9.543,-1.359 11.797,-3.324 2.082,-1.773 2.793,-3.972 2.898,-5.625 2.895,-0.926 4.301,2.102 4.301,2.102 -3.098,7.402 2.281,10.078 2.281,10.078 -0.125,0.273 -0.254,0.527 -0.398,0.762 -1.66,2.382 -3.977,3.535 -7.254,3.566 -1.621,0 -3.469,-0.324 -5.5,-0.988 -3.496,-1.133 -6.68,-1.453 -9.168,-1.453 -3.02,0 -4.934,0.476 -5.02,0.476 l 0,0 c -0.722,0.195 -1.156,0.918 -0.988,1.641 0.188,0.722 0.899,1.164 1.621,0.984 0,0 0.078,-0.027 0.274,-0.066 0.195,-0.039 0.476,-0.067 0.859,-0.125 0.781,-0.102 1.895,-0.227 3.254,-0.227 2.266,0 5.152,0.305 8.34,1.336 2.234,0.715 4.363,1.117 6.328,1.117 3.523,0.008 6.609,-1.281 8.75,-3.742 0.254,0.813 0.074,1.66 0.074,1.66 0,2.696 8.703,0 8.703,0 -1.062,6.629 -10.32,7.891 -10.32,7.891" /><path
         id="path106"
         style="fill:#e3c465;fill-opacity:1;fill-rule:nonzero;stroke:none"
         d="m 444.789,317.531 c -7.676,-7.461 -13.875,-5.304 -60.164,-10.324 -46.289,-5.027 -44.863,-46.492 -44.863,-46.492 -7.617,-7.531 -12.063,0.281 -12.063,0.281 0,0 -5.25,-8.254 -0.144,-13.367 6.672,-6.672 15.254,1.59 15.254,1.59 10.597,-6.621 -7.715,-12.91 -7.715,-12.91 9.336,-10.946 19.922,-1.973 19.922,-1.973 -1.258,-8.809 5.031,-7.176 5.031,-7.176 0,0 8.57,-22.609 -20.996,-26.367 -19.738,-2.52 -18.985,11.699 -37.696,4.832 0,0 -2.558,-1.121 -2.687,-2.871 0,0 -9.246,-1.262 -10.305,-7.891 0,0 8.696,2.696 8.696,0 0,0 -0.266,-0.828 -0.071,-1.621 2.305,2.707 5.821,4.16 9.754,4.16 1.926,0 3.938,-0.324 6.028,-1.015 3.175,-1.055 6.085,-1.317 8.32,-1.317 2.062,0 3.555,0.223 4.14,0.352 0.176,0.039 0.254,0.047 0.254,0.047 l 0,0 c 0.723,0.187 1.465,-0.266 1.629,-0.985 0.176,-0.722 -0.269,-1.449 -0.972,-1.621 -0.078,-0.031 -2.024,-0.5 -5.051,-0.5 -2.461,0 -5.676,0.325 -9.16,1.477 -1.836,0.586 -3.582,0.867 -5.188,0.867 -3.238,-0.008 -5.836,-1.094 -7.566,-3.066 -0.34,-0.516 -0.645,-1.082 -0.965,-1.719 0,0 5.391,-2.676 2.281,-10.078 0,0 1.172,-2.508 3.578,-2.274 0.133,1.707 0.938,3.914 3.035,5.77 2.325,2.062 6.153,3.547 12.122,3.547 0.601,0 1.218,-0.012 1.863,-0.059 l 0.137,-0.012 c 0,0 0.058,-0.007 0.253,-0.031 0.168,-0.015 0.442,-0.027 0.735,-0.027 0.594,0 1.394,0.078 1.922,0.305 0.539,0.253 0.722,0.417 0.82,0.82 0.148,0.742 0.84,1.211 1.563,1.07 0.742,-0.133 1.23,-0.836 1.074,-1.57 -0.266,-1.485 -1.426,-2.449 -2.461,-2.832 -1.055,-0.41 -2.11,-0.477 -2.918,-0.477 -0.656,0 -1.145,0.039 -1.309,0.067 -0.566,0.031 -1.133,0.05 -1.679,0.05 -5.52,0 -8.625,-1.367 -10.332,-2.871 -1.711,-1.496 -2.168,-3.242 -2.168,-4.289 0,-0.105 0.007,-0.215 0.015,-0.301 0,-0.097 0,-0.195 0,-0.285 0.063,-0.144 0.09,-0.242 0.09,-0.242 l 3.098,2.149 c 5.781,0.933 5.39,-8.477 5.39,-8.477 0,0 4.981,-0.812 9.676,4.297 4.719,5.113 11.719,4.851 11.719,4.851 -15.625,-9.023 0.273,-13.054 0.273,-13.054 0,0 -0.691,-9.289 3.098,-8.75 3.75,0.547 5.242,9.023 5.242,9.023 11.438,-1.496 7.805,9.293 7.805,9.293 11.433,1.742 18.594,10.082 18.594,10.082 0.242,-10.762 8.738,-8.34 8.738,-8.34 -4.59,10.899 3.086,15.743 3.086,15.743 -0.938,-11.309 9.426,-7.793 9.426,-7.793 0,0 -4.582,3.875 0.925,8.191 8.86,6.914 4.864,15.09 4.864,15.09 9.14,-7.942 9.55,10.215 9.55,10.215 10.223,17.246 -16.828,20.058 -15.078,39.433 1.758,19.395 43.742,23.828 43.742,23.828 -2.414,11.719 6.454,21.278 8.758,24.903 2.266,3.613 -0.949,10.644 -0.949,10.644" /><path
         id="path108"
         style="fill:#e3c465;fill-opacity:1;fill-rule:nonzero;stroke:none"
         d="m 316.98,345.605 c 0,0 1.954,-1.328 2.684,1.262 0.371,1.258 4.387,0.684 4.387,0.684 -0.93,-0.781 -1.711,-1.867 -2.403,-2.832 0,0 -1.613,-1.797 -1.25,-2.52 0.348,-0.722 -1.601,-2.871 -1.449,-5.929 0.188,-3.047 1.449,1.984 3.606,2.343 0,0 0.625,-1.679 1.855,-2.304 1.074,5.175 5.41,9.445 5.449,9.519 l 0,0 c 0.422,0.414 1.094,0.414 1.524,0 0.441,-0.418 0.441,-1.101 0,-1.519 0,0 -0.235,-0.246 -0.645,-0.704 -0.39,-0.46 -0.949,-1.144 -1.511,-1.945 -1.145,-1.609 -2.344,-3.777 -2.739,-5.918 0,-0.207 0.032,-0.398 0.071,-0.574 0,0 0,0 0.019,0 l 1.414,-1.262 c 0.356,-0.312 0.559,-0.742 0.559,-1.191 0.027,-1.434 0.722,-2.832 1.594,-3.985 0.105,-0.136 0.203,-0.261 0.308,-0.39 0.266,0.879 0.598,1.535 0.957,2.051 0.141,0.168 0.278,0.304 0.414,0.461 0.301,0.371 0.653,0.652 1.035,0.73 0.243,0.109 0.457,0.188 0.575,0.188 0.234,0.046 0.449,0.015 0.656,-0.04 0,0 0,0 0.058,-0.019 0.055,0 0.145,-0.02 0.243,-0.031 0.214,-0.047 0.527,-0.078 0.839,-0.078 0.528,-0.008 1.036,0.109 1.25,0.304 0.208,0.164 0.403,0.293 0.45,1.258 0,0.363 -0.047,0.801 -0.176,1.34 -0.359,1.719 -0.516,3.269 -0.516,4.648 0,5.067 2.032,7.715 2.196,7.918 l 0.254,0.266 c 6.671,5.137 11.992,12.93 15.07,18.113 -2.016,0.11 -7.805,0.41 -9.582,-1.629 0,0 3.144,-0.597 1.34,-1.476 -1.789,-0.899 -11.848,2.461 -20.286,-2.742 -8.425,-5.196 -7.531,-3.411 -9.863,-5.559 -2.336,-2.156 -0.351,-3.945 -0.351,-3.945 0,0 -4.121,-3.055 -3.594,-5.575 0,0 2.512,1.969 5.558,1.082" /><path
         id="path110"
         style="fill:#e3c465;fill-opacity:1;fill-rule:nonzero;stroke:none"
         d="m 363.285,380.422 c -0.879,-3.527 -2.066,-6.914 -3.504,-10.18 0.008,-0.25 -0.027,-0.496 -0.156,-0.73 -0.059,-0.106 -7.234,-15.496 -18.762,-24.578 -0.027,-0.039 -0.054,-0.09 -0.078,-0.137 -0.125,-0.227 -0.332,-0.578 -0.515,-1.047 -0.391,-0.965 -0.801,-2.5 -0.801,-4.598 0,-1.144 0.129,-2.461 0.437,-3.976 0.18,-0.723 0.246,-1.387 0.246,-2.012 0.032,-1.687 -0.703,-3.164 -1.797,-3.894 -1.093,-0.774 -2.226,-0.879 -3.125,-0.903 -0.457,0 -0.878,0.063 -1.218,0.102 -0.235,-0.352 -0.715,-1.321 -0.871,-3.508 -0.039,-0.586 -0.411,-1.094 -0.926,-1.336 -0.219,-0.109 -0.442,-0.156 -0.664,-0.156 -0.344,0 -0.676,0.097 -0.957,0.301 -0.078,0.039 -1.289,0.929 -2.571,2.433 -1.132,1.348 -2.382,3.301 -2.644,5.711 l -0.93,0.813 c -0.215,0.183 -0.371,0.429 -0.449,0.683 -11.992,-6.308 -25.098,-9.687 -37.52,-9.687 -17.519,0 -33.007,5.586 -45.867,14.988 0.047,-1.035 -0.05,-2.051 -0.429,-2.773 -0.723,-1.29 -1.536,-1.844 -2.637,-2.411 0.566,-1.66 0.73,-3.273 -0.141,-5.011 -0.855,-1.649 -1.726,-2.149 -3.004,-2.723 16.172,-9.719 34.801,-15.363 54.578,-15.363 20.422,0 40.079,9.785 56.711,19.035 0,0 -10.761,-19.746 15.789,-25.129 0,0 -6.464,15.793 0.364,33.367 8.015,20.656 5.761,59.945 1.441,42.719" /><path
         id="path112"
         style="fill:#e3c465;fill-opacity:1;fill-rule:nonzero;stroke:none"
         d="m 117.008,138.02 c 0.019,-0.012 0.039,-0.04 0.066,-0.051 0,0 0,0.039 0,0.09 -0.027,-0.024 -0.047,-0.032 -0.066,-0.039" /><path
         id="path114"
         style="fill:#e3c465;fill-opacity:1;fill-rule:nonzero;stroke:none"
         d="m 460.23,521.906 c -4.902,4.324 -11.25,7.664 -17.492,9.043 -3.101,0.672 -5.211,1.512 -6.687,2.625 -1.485,1.043 -2.313,2.578 -2.293,4.055 0.027,1.648 0.808,2.82 1.472,3.633 0.657,0.789 1.282,1.269 1.34,1.316 l 0.094,0.059 c 0.141,0.058 1.621,1.222 3.82,1.269 0.704,0 1.575,-0.176 2.325,-0.664 0.761,-0.508 1.367,-1.297 1.718,-2.234 0.149,-0.324 0.157,-0.664 0.11,-1.008 -1.153,0.402 -4.981,1.484 -6.633,-1.34 -0.332,-0.406 -0.496,-0.855 -0.477,-1.031 0.028,-0.207 -0.019,-0.422 0.758,-1.035 0.805,-0.606 2.445,-1.367 5.246,-1.977 6.985,-1.519 13.797,-5.133 19.199,-9.89 2.833,-2.489 5.262,-5.313 7.051,-8.368 1.336,-2.804 2.625,-6.347 2.071,-8.535 -0.352,-1.426 -0.774,-1.996 -1.18,-2.082 -0.324,0.071 -0.637,0.235 -0.891,0.449 -0.176,0.215 -0.34,0.5 -0.508,0.735 -0.031,0.144 -0.078,0.281 -0.097,0.418 -0.645,4.992 -4.055,10.246 -8.946,14.562 z m -29.882,32.047 c -0.028,0 -0.047,-0.027 -0.067,-0.027 l -1.332,-0.664 c 0.031,0.011 0.09,0.011 0.102,0.031 -0.078,-0.031 -0.141,-0.051 -0.215,-0.09 l 0.113,0.059 c -3.426,-0.965 -9.539,-0.145 -10.113,-0.067 -0.012,0 -0.02,0.008 -0.031,0.028 -2.078,-0.52 -1.649,-2.254 -1.356,-2.957 -0.187,0.086 -0.375,0.222 -0.508,0.41 -0.058,0.105 -0.824,0.957 -0.871,2.41 -0.039,0.762 0.403,1.769 1.282,2.297 0.679,0.437 1.531,0.633 2.617,0.703 0.152,0.039 0.34,0.059 0.515,0.059 0.274,-0.02 0.555,-0.032 0.84,-0.04 l 0.098,0 c 0.41,-0.019 0.793,-0.019 1.152,-0.019 3.02,-0.012 4.668,0.457 5.391,0.859 0.613,0.34 0.644,0.508 0.644,0.535 -0.136,0.95 0.481,1.848 1.438,2.083 1.016,0.234 2.019,-0.403 2.266,-1.407 0.015,-0.109 0.078,-0.351 0.078,-0.676 0.039,-0.886 -0.469,-2.5 -2.043,-3.527 z m 10.636,0.551 c 0.848,0.242 1.571,0.351 2.262,0.351 0.246,0 0.512,-0.031 0.742,-0.05 -0.711,2.207 0.051,3.855 0.801,4.812 -0.508,0.012 -1.051,0.043 -1.617,0.043 l -0.891,0 c -0.066,0 -0.156,0 -0.222,0.008 2.41,1.523 4.804,1.895 6.921,1.652 4.114,-0.793 6.653,-2.394 8.215,-4.14 2.188,-2.481 2.301,-5.039 2.301,-5.539 0,-0.047 0,-0.067 0,-0.067 0,-0.578 -0.465,-1.047 -1.051,-1.066 -0.011,0 -0.402,-0.02 -1.047,-0.02 -1.804,0 -5.546,0.098 -8.75,0.852 -3.093,0.769 -4.277,1.394 -5.402,1.363 -0.457,0 -0.965,-0.074 -1.668,-0.281 -0.574,-0.164 -1.172,0.176 -1.34,0.754 -0.152,0.574 0.168,1.172 0.746,1.328 z m -26.203,-74.262 c 0,0 -4.851,-5.066 -1.015,-10.406 1.992,0.367 3.925,0.547 5.761,0.547 8.133,-0.02 14.434,-2.949 15.657,-3.574 0.23,-0.079 0.429,-0.196 0.535,-0.305 0.879,-0.691 1.086,-1.934 0.488,-2.879 -0.516,-0.754 -1.434,-1.105 -2.297,-0.91 -0.015,0 -0.015,-0.02 -0.027,-0.027 -0.215,-0.079 -0.598,-0.313 -1.16,-0.754 -1.114,-0.918 -2.871,-2.774 -5.332,-6.18 -0.637,-0.879 -1.321,-1.613 -2.071,-2.16 1.66,-0.43 3.516,-0.731 5.504,-0.731 1.489,0.008 3.047,0.164 4.668,0.567 5.473,1.687 9.699,5.3 12.024,7.675 1.269,1.407 2.539,3.036 3.808,4.911 0.324,0.558 0.567,0.851 0.606,0.91 0.703,0.918 2.011,1.109 2.949,0.449 0.937,-0.645 1.199,-1.953 0.574,-2.93 -0.164,-0.246 -0.32,-0.5 -0.484,-0.742 -0.051,-0.078 -0.11,-0.156 -0.156,-0.265 -0.383,-0.665 -0.911,-1.7 -1.477,-3.145 -1.102,-2.898 -2.332,-7.461 -2.664,-13.895 -0.246,-5.703 -2.336,-9.523 -4.817,-11.796 2.54,0.593 5.665,2.089 9.18,5.429 4.778,4.52 10.227,12.578 15.52,26.375 0.41,1.153 0.73,1.953 0.84,2.227 0,0.012 0.015,0.012 0.015,0.012 0.024,0.066 0.031,0.097 0.031,0.097 0.461,1.082 1.692,1.61 2.786,1.168 1.082,-0.445 1.628,-1.648 1.226,-2.742 -0.281,-0.742 -0.547,-1.465 -0.828,-2.188 -0.223,-0.652 -0.477,-1.425 -0.723,-2.292 -0.761,-2.618 -1.523,-6.055 -1.511,-9.2 -0.012,-2.707 0.562,-5.058 1.812,-6.621 1.235,-1.523 3.188,-2.656 7.121,-2.695 0.246,0 0.481,0.019 0.735,0.019 -0.461,0.946 -0.782,2.098 -0.762,3.438 l 0,0.027 c 0,0.117 -0.031,0.215 -0.031,0.344 0.011,1.102 0.254,2.285 0.793,3.621 0.671,1.926 1.863,4.063 3.687,6.516 3.352,4.578 4.516,8.73 4.516,12.527 0.004,3.32 -0.969,6.387 -2.301,9.16 -0.793,1.535 -2.473,4.602 -4.684,7.344 -2.414,2.988 4.356,3.508 8.207,-3.105 0.196,-0.34 0.496,-0.907 0.883,-1.875 0.278,-0.665 0.512,-1.368 0.719,-2.137 0.289,-1.016 0.555,-2.16 0.719,-3.477 0.019,-0.07 0.011,-0.148 0.031,-0.226 0,-0.02 0.008,-0.028 0.008,-0.047 l -0.004,0 c 0.433,-1.778 0.726,-3.653 0.726,-5.637 0,-4.715 -1.523,-9.871 -5.363,-15.086 -2.898,-3.887 -3.609,-6.476 -3.59,-7.949 0.008,-1.191 0.36,-1.77 0.77,-2.227 0.41,-0.441 0.93,-0.714 1.055,-0.754 0.917,-0.3 1.523,-1.199 1.464,-2.175 -0.058,-0.989 -0.781,-1.797 -1.738,-1.985 -2.148,-0.418 -4.07,-0.613 -5.84,-0.613 -4.793,-0.031 -8.379,1.602 -10.515,4.324 -1.543,1.973 -2.278,4.328 -2.571,6.692 -3.437,-6.301 -6.894,-10.793 -10.246,-13.996 -3.387,-3.25 -6.707,-5.118 -9.676,-6.067 -0.078,-0.164 -0.175,-0.367 -0.312,-0.64 -0.266,-0.61 -0.637,-1.477 -1.024,-2.59 -0.753,-2.207 -1.496,-5.243 -1.496,-8.543 0,-3.418 0.762,-7.043 3.047,-10.528 0.52,-0.8 0.449,-1.875 -0.176,-2.609 0,0 0,0 -0.019,-0.02 -0.02,-0.019 -0.039,-0.046 -0.078,-0.097 -0.078,-0.086 -0.195,-0.223 -0.332,-0.41 -0.266,-0.371 -0.645,-0.926 -1.016,-1.61 -0.754,-1.359 -1.445,-3.215 -1.445,-5.058 0.019,-1.114 0.226,-2.258 0.851,-3.438 0.645,1.289 1.786,2.578 3.485,3.524 0.488,0.285 1.062,0.351 1.601,0.195 l 0.059,0 c 0.09,-0.02 0.176,-0.027 0.32,-0.066 0.305,-0.04 0.754,-0.079 1.313,-0.079 1.719,0.008 4.234,0.426 6.582,2.782 2.304,2.336 4.605,6.855 5.152,15.578 0.024,0.215 0.039,0.351 0.039,0.371 0.102,1.023 0.903,1.816 1.875,1.941 0.024,0.188 0.031,0.371 0.063,0.559 0,-0.188 0,-0.371 0.019,-0.559 0.117,0.02 0.235,0.02 0.352,0 1.172,-0.078 2.058,-1.093 1.988,-2.265 -0.016,-0.086 -0.016,-0.188 -0.016,-0.243 l 0,-0.382 c -0.019,-1.317 0.235,-4.629 2.168,-7.586 1.93,-2.895 5.332,-5.715 12.547,-6.524 -1.66,1.953 -4.062,5.742 -3.582,10.918 0,0 7.176,3.758 3.035,13.262 0,0 3.254,-4.473 8.262,-5.91 0,0 -4.394,8.976 -0.215,14.23 3.477,4.375 5.371,5.782 3.758,13.047 l 0.277,-0.41 c 5.243,-5.781 10.907,0.684 10.907,0.684 0,0 -8.223,-0.684 -3.223,11.425 4.981,12.129 -2.031,20.059 -2.031,20.059 6.476,-5.93 11.98,-0.266 11.98,-0.266 -7.008,6.055 -2.703,12.657 -0.691,22.207 2.031,9.571 -6.035,5.664 -6.035,5.664 8.203,3.77 4.836,14.661 3.496,9.676 -1.875,-6.961 -2.949,-1.07 -2.949,-1.07 0,0 2.804,10.508 -2.442,18.172 0,0 12.656,-2.332 9.61,7.355 0,0 -5.215,-4.14 -11.582,2.957 -6.368,7.082 -12.735,14.446 -18.633,14.278 0,0 -2.157,3.945 0,15.968 0,0 -6.414,2.188 -11.184,-4.269 -0.016,-0.028 -0.016,-0.067 -0.047,-0.086 0,0 -0.027,-0.051 -0.117,-0.156 -0.09,-0.137 -0.203,-0.313 -0.359,-0.559 -0.293,-0.457 -0.703,-1.152 -1.114,-1.992 -0.824,-1.66 -1.613,-3.906 -1.64,-6.121 -0.02,-0.754 -0.617,-1.328 -1.352,-1.328 l -0.015,0 c -0.735,0 -1.34,0.625 -1.329,1.367 0.028,1.445 0.301,2.82 0.665,4.082 -5.098,1.121 -20.391,4.121 -27.961,0.801 -2.864,-1.25 -0.489,-4.844 -0.489,-4.844 0,0 -13.125,-1.152 -20.039,0.273 -5.195,1.075 -4.98,-12.929 -2.976,-17.492 0,0 1.082,-6.601 0.418,-8.758 -0.692,-2.14 2.558,-3.086 7.804,-4.445 0,0 0.684,-5.449 4.356,-6.191 l 1.785,4.851 3.879,-1.258 c 0,0 0.086,-5.664 3.672,-5.828 l 2.781,4.043 c 0,0 26.66,-11.582 25.203,-21.894 -0.66,-4.785 -8.16,-10.461 -16.617,-2.895 -7.441,6.723 -15.059,7.805 -15.059,7.805 0,0 -0.351,1.992 -1.621,2.168 0,0 -1.34,0.187 -2.148,-2.168 l -2.883,-0.156 c 0,0 -0.332,2.656 -1.523,2.949 -2.051,0.539 -2.95,-2.949 -2.95,-2.949 0,0 -7.097,1.691 -7.371,-0.282 -0.402,-2.953 -4.211,-6.105 8.36,-8.254 0,0 2.05,-5.007 -3.332,-6.191 -5.372,-1.172 11.484,-7.617 10.07,4.766 0,0 13.105,-9.11 -4.504,-12.754 -5.652,-1.172 16.785,-15.059 15.703,5.215 0,0 5.09,-35.938 -27.09,-11.985 z m -7.617,-23.816 c 0.977,-0.301 1.602,-1.231 1.524,-2.235 -0.086,-1.007 -0.848,-1.828 -1.844,-1.953 0,0 -0.02,-0.019 -0.071,-0.019 -0.058,-0.012 -0.175,-0.031 -0.312,-0.071 -0.305,-0.078 -0.762,-0.214 -1.328,-0.437 -1.102,-0.449 -2.617,-1.25 -4.149,-2.676 -2.246,-2.121 -4.64,-5.586 -5.761,-11.601 2.656,2.769 6.504,5.683 11.629,7.144 1.007,0.297 2.07,-0.191 2.511,-1.129 0.457,-0.937 0.164,-2.062 -0.675,-2.676 0,0 -0.02,-0.031 -0.098,-0.078 -0.067,-0.058 -0.195,-0.16 -0.36,-0.293 -0.304,-0.254 -0.792,-0.636 -1.359,-1.172 -1.125,-1.066 -2.644,-2.656 -4.18,-4.746 -3.027,-4.16 -6.054,-10.207 -6.054,-17.949 0,-1.875 0.187,-3.847 0.578,-5.93 l 0.027,-0.312 0,-0.352 c 0,-0.711 -0.027,-2.429 -0.508,-4.406 -0.488,-1.969 -1.336,-4.305 -3.347,-6.031 -0.356,-0.305 -0.766,-0.586 -1.203,-0.813 -0.594,-0.437 -1.18,-0.656 -1.68,-0.722 -0.371,-0.086 -0.723,-0.184 -1.094,-0.242 -0.027,-0.11 -0.027,-0.247 -0.027,-0.356 0,-0.613 0.125,-1.187 0.547,-1.726 0.308,-0.391 0.84,-0.868 1.851,-1.258 2.778,3.367 11.203,13.242 19.914,18.554 0.528,0.332 1.145,0.411 1.739,0.223 0,0 0,0 0.019,0 0.039,-0.008 0.098,-0.019 0.156,-0.039 0.157,-0.039 0.371,-0.09 0.657,-0.137 0.562,-0.097 1.367,-0.215 2.246,-0.215 1.492,0 3.133,0.305 4.414,1.18 0.625,0.434 1.387,0.492 2.039,0.227 0.027,0.019 0.051,0.039 0.09,0.07 -0.012,-0.039 -0.024,-0.07 -0.039,-0.098 0.371,-0.168 0.672,-0.41 0.918,-0.742 0.671,-1 0.418,-2.336 -0.579,-3.019 -2.136,-1.438 -4.453,-1.856 -6.386,-1.914 0.156,-0.137 0.32,-0.274 0.508,-0.418 2.003,-1.653 4.796,-3.188 8.164,-3.164 3.906,0 9.035,1.98 15.293,9.57 0.175,0.195 0.371,0.34 0.578,0.469 -0.235,1.406 -0.332,2.781 -0.332,4.121 0.008,4.461 1.093,8.34 2.066,10.879 l -0.379,0 c -3.957,0 -6.379,1.406 -6.59,1.531 -0.824,0.469 -1.242,1.426 -1.007,2.344 0.207,0.91 0.996,1.593 1.945,1.652 0.039,0 0.086,0.008 0.152,0.008 0,0 0.547,0 1.379,0.187 0.82,0.164 1.906,0.516 2.969,1.18 2.07,1.367 4.308,3.801 4.668,9.777 0.129,2.625 0.398,4.981 0.762,7.078 0,0.372 0.011,0.743 0.031,1.125 -1.379,-1.156 -2.746,-2.113 -4.113,-2.902 -4.239,-2.461 -8.477,-3.348 -12.239,-3.348 -9.031,0.028 -15.418,4.832 -15.613,4.981 -0.938,0.672 -1.16,1.98 -0.488,2.937 0.664,0.969 1.965,1.211 2.937,0.586 0,-0.007 0,-0.007 0.024,-0.019 0.039,-0.02 0.066,-0.039 0.144,-0.086 0.125,-0.059 0.344,-0.168 0.617,-0.285 0.535,-0.227 1.278,-0.418 2.02,-0.399 1.105,0.028 2.14,0.262 3.43,1.981 2.175,3 3.886,4.98 5.3,6.281 -2.48,0.781 -5.898,1.523 -9.668,1.523 -1.738,0 -3.574,-0.156 -5.429,-0.531 -1.922,-0.406 -3.633,-0.574 -5.118,-0.574 -2.421,-0.02 -4.246,0.441 -5.605,1.008 -0.273,-1.059 -0.477,-2.317 -0.477,-3.567 0,-1.336 0.254,-2.597 0.848,-3.582 0.617,-0.968 1.543,-1.808 3.418,-2.394 z M 528.375,262.871 c 16.387,15.82 1.652,62.473 1.652,62.473 0,0 21.192,10.371 1.063,36.074 -15.438,19.687 1.672,15.652 2.871,13.777 0,0 -0.383,16.907 -13.098,9.563 -12.75,-7.375 -5.015,-33.184 -5.015,-33.184 0,0 0.261,-1.886 -0.371,-0.547 -2.864,5.879 -5.657,12.871 -13.684,7.762 -2.969,-1.902 -4.797,-6.883 -4.797,-6.883 0,0 12.563,6.453 12.024,-12.023 -0.536,-18.485 12.285,-16.778 12.285,-16.778 0,0 8.515,-43.015 -1.278,-50.261 -7.265,-5.391 -18.578,1.609 -17.5,12.91 2.235,23.309 -15.07,40.918 -24.765,62.449 -7.922,17.656 -3.774,43.262 -1.992,51.926 -3.829,1.629 -6.426,4.031 -8.079,6.582 -0.046,0.125 -0.144,0.262 -0.214,0.379 -1.161,-3.789 -2.832,-6.531 -4.739,-8.477 -3.308,-3.359 -7.183,-4.082 -9.644,-4.07 -0.727,0 -1.321,0.059 -1.789,0.125 -0.645,-0.496 -0.996,-1.008 -1.239,-1.492 -0.293,-0.625 -0.363,-1.281 -0.363,-1.738 0,-0.286 0.02,-0.489 0.039,-0.52 0.176,-0.887 -0.215,-1.816 -0.996,-2.305 -0.351,-0.195 -0.742,-0.293 -1.113,-0.293 -0.488,0 -0.969,0.168 -1.367,0.489 -1.121,0.918 -2.039,1.886 -2.774,2.902 -0.058,-0.078 -0.097,-0.156 -0.156,-0.258 -0.84,-1.344 -1.992,-3.367 -3.191,-5.918 -2.422,-5.066 -5.051,-12.312 -5.911,-20.808 -0.105,-1.141 -1.113,-2.012 -2.285,-1.934 -0.125,0 -1.433,0.109 -3.152,0.734 -1.25,0.465 -2.766,1.258 -4.063,2.606 l -0.871,-5.047 c -0.183,-1.035 -1.082,-1.789 -2.129,-1.789 -0.086,0 -1.101,0 -2.461,0.281 -1.359,0.293 -3.125,0.832 -4.714,2.141 -0.137,0.117 -0.286,0.254 -0.43,0.398 -0.039,-0.054 -0.078,-0.113 -0.109,-0.172 -0.223,-0.312 -0.442,-0.664 -0.684,-1.035 -0.066,-14.933 18.613,-13.652 36.973,-33.43 20.73,-22.343 -3.348,-44.949 -3.348,-44.949 -14.555,-19.902 -7.961,-34.054 -9.57,-53.711 -1.614,-19.648 6.875,-18.293 6.875,-18.293 5.906,-7.949 -2.297,-16.425 -2.297,-16.425 13.191,-1.747 14.258,12.375 14.258,12.375 1.894,-1.34 5.246,-0.403 5.246,-0.403 0,0 7.011,-6.601 0.418,-10.234 0,0 11.035,-6.738 12.097,7.687 0.539,7.137 9.836,-0.8 9.836,-0.8 9.422,-1.633 8.836,-20.782 8.836,-20.782 0,0 0.168,-31.672 -31.754,-27.109 -16.332,2.344 -17.597,-6.809 -17.597,-6.809 -10.586,-5.039 -3.957,-11.484 -3.957,-11.484 4.316,3.223 7.746,4.668 7.746,4.668 0.191,-2.059 2.226,-2.762 3.242,-2.957 0,0.019 -0.02,0.098 -0.02,0.262 0,0.839 0.172,3.664 2.371,6.347 2.227,2.715 6.446,5 13.86,4.981 1.426,0 2.969,-0.078 4.648,-0.254 l 0.117,-0.02 c 0,0.008 0.399,-0.086 1.036,-0.164 0.64,-0.09 1.492,-0.176 2.343,-0.176 0.692,0 1.383,0.055 1.895,0.196 0.523,0.144 0.816,0.32 0.887,0.429 0.031,0.086 0.05,0.098 0.058,0.293 0,0.086 -0.008,0.235 -0.058,0.43 -0.188,0.711 0.214,1.465 0.937,1.66 0.703,0.196 1.445,-0.215 1.66,-0.949 0.117,-0.391 0.156,-0.762 0.156,-1.141 0.032,-0.722 -0.222,-1.457 -0.664,-1.964 -0.41,-0.528 -0.937,-0.868 -1.484,-1.082 -1.094,-0.442 -2.258,-0.539 -3.387,-0.559 -1.828,0.02 -3.457,0.293 -3.832,0.371 -1.59,0.164 -3.015,0.234 -4.312,0.234 -6.926,-0.019 -10.141,-2.031 -11.789,-4.003 -1.356,-1.622 -1.649,-3.348 -1.731,-4.219 5.344,2.629 7.5,-8.309 7.5,-8.309 2.563,-0.109 4.668,0.371 5.864,0.711 l 0,0.402 c -0.024,2.149 0.566,4.676 2.441,6.786 1.875,2.101 4.93,3.683 9.512,4.25 l 0.086,0 c 0,0 0.078,0.007 0.285,0.047 0.215,0.019 0.508,0.07 0.84,0.148 0.64,0.137 1.375,0.469 1.757,0.809 0.254,0.222 0.348,0.429 0.399,0.734 0.09,0.73 0.762,1.277 1.496,1.172 0.73,-0.09 1.269,-0.742 1.191,-1.496 -0.129,-1.004 -0.675,-1.856 -1.289,-2.41 -0.625,-0.559 -1.347,-0.911 -2.004,-1.153 -1.14,-0.402 -2.175,-0.508 -2.461,-0.519 -4.128,-0.528 -6.445,-1.864 -7.8,-3.379 -1.328,-1.516 -1.77,-3.281 -1.77,-4.989 0,-1.25 0.266,-2.445 0.547,-3.261 0.109,-0.102 0.215,-0.188 0.215,-0.188 7.922,7.805 10.265,-2.508 10.265,-2.508 7.528,-2.882 8.243,3.231 9.149,7.528 1.172,5.617 7.527,4.668 7.527,4.668 -5.203,-10.75 6.117,-9.688 6.117,-9.688 0,0 1.063,-9.519 3.407,-8.437 2.324,1.074 3.215,10.051 3.215,10.051 8.621,4.851 -1.965,14.179 -1.965,14.179 -2.5,2.52 3.761,7.352 3.761,7.352 5.86,-10.039 8.829,10.41 9.649,17.375 -0.274,-6.27 4.004,-3.02 4.004,-3.02 12.742,22.805 -1.262,48.117 -1.262,48.117 4.504,18.106 -6.277,16.141 -6.277,16.141 4.121,9.863 -22.278,7.902 -22.278,7.902 -6.613,8.438 1.192,30.586 1.192,30.586 0,0 16.418,-20.734 32.031,-5.656 z M 416.266,366.633 c 0.195,-0.617 0.488,-1.035 0.859,-1.406 0.969,-0.735 2.031,-1.321 2.871,-1.192 l 2.063,11.914 c 0.066,0.496 0.156,1.016 0.269,1.563 0.246,1.148 1.36,1.875 2.512,1.668 1.144,-0.242 1.914,-1.336 1.711,-2.489 l -0.246,-1.398 c -0.067,-0.566 -0.086,-1.074 -0.086,-1.551 0,-1.672 0.379,-2.793 0.886,-3.633 0.5,-0.851 1.18,-1.449 1.934,-1.914 0.371,-0.265 0.813,-0.461 1.223,-0.605 2.351,16.941 10.855,28.308 10.976,28.476 0.047,0.079 0.106,0.137 0.172,0.196 -0.172,0.84 -0.254,1.66 -0.242,2.461 0.051,3.945 1.797,7.078 2.961,8.738 -0.5,0.867 -0.899,1.75 -1.262,2.629 -6.179,-6.926 -12.07,-9.524 -17.187,-9.524 l -0.039,0 c -4.715,0.02 -8.426,2.129 -10.887,4.141 -1.418,1.145 -2.441,2.277 -3.098,3.078 -7.617,-5.39 -15.168,-14.375 -16.98,-16.64 -0.293,-0.383 -0.449,-0.567 -0.449,-0.567 -0.266,-0.363 -0.664,-0.598 -1.086,-0.734 -5.282,-7.266 -11.336,-17.11 -17.657,-30.313 0,0 -1.894,-3.769 -4.394,-2.859 -0.828,-6.418 -2.344,-14.594 -5.078,-21.563 -0.469,-1.156 -0.852,-2.199 -1.114,-3.117 2.168,-0.594 2.883,-2.539 8.704,-0.652 11.836,3.863 17.019,12.48 17.019,12.48 -0.215,-7.414 6.231,-7.414 6.231,-7.414 0.261,1.164 0.664,2.453 1.179,3.809 4.653,13.75 14.387,26.953 14.438,27.082 0.476,0.652 1.297,0.996 2.105,0.84 0.813,-0.141 1.457,-0.735 1.692,-1.504 z m -48.504,89.16 c 5.215,-15.793 -7.715,-26.203 -0.703,-24.043 6.992,2.148 8.789,9.148 8.789,9.148 -3.332,-25.222 7.605,-35.808 11.953,-38.933 0.078,-0.012 0.176,-0.02 0.273,-0.02 1.219,0.02 1.903,0.352 2.539,0.86 0.606,0.496 1.121,1.308 1.473,2.254 0.762,1.867 0.867,4.218 0.859,4.882 l 0,0.039 c -0.418,2.286 -0.617,4.485 -0.617,6.555 0,5.789 1.488,10.781 3.457,14.824 -0.808,-1.156 -1.297,-2.011 -1.422,-2.257 -0.019,-0.067 -0.039,-0.067 -0.039,-0.067 -0.453,-0.89 -1.445,-1.367 -2.422,-1.125 -0.976,0.235 -1.664,1.094 -1.664,2.11 0.063,11.554 3.75,18.332 7.7,22.05 1.582,1.66 2.917,2.59 3.398,2.883 -0.5,0.516 -0.938,1.043 -1.27,1.629 -1.144,1.887 -1.488,3.945 -1.488,5.82 0.031,2.84 0.785,5.364 1.262,6.719 0.039,0.149 0.051,0.215 0.051,0.215 0,0 -2.2,15.519 -19.278,34.16 -2.343,-2.336 -5.422,-4.141 -8.136,-5.594 -1.7,-0.851 -3.25,-1.562 -4.395,-2.05 0.273,-1.055 0.496,-2.434 0.496,-4.114 0.024,-4.004 -1.375,-9.578 -6.414,-15.808 1.035,-1.946 2.188,-5.137 2.363,-9.903 0.371,-8.976 -2.5,-11.836 -2.5,-11.836 5.032,-1.457 5.735,1.602 5.735,1.602" /><path
         id="path116"
         style="fill:#e3c465;fill-opacity:1;fill-rule:nonzero;stroke:none"
         d="m 148.844,466.516 c -3.778,0.007 -7.18,-0.743 -9.68,-1.516 1.418,-1.316 3.137,-3.281 5.305,-6.289 1.277,-1.727 2.336,-1.953 3.437,-1.992 1.297,-0.039 2.637,0.676 2.793,0.781 l 0,0 c 0,0.02 0,0.02 0,0.02 0.977,0.617 2.285,0.363 2.942,-0.575 0.664,-0.968 0.449,-2.285 -0.489,-2.968 -0.175,-0.118 -6.562,-4.934 -15.597,-4.961 -5.098,-0.051 -10.938,1.64 -16.582,6.414 0.488,-2.403 0.859,-5.188 1.015,-8.367 0.235,-4.504 1.602,-6.985 3.106,-8.516 1.515,-1.543 3.293,-2.188 4.531,-2.453 0.828,-0.164 1.367,-0.164 1.367,-0.164 0.11,0 0.164,-0.02 0.235,-0.02 0.929,-0.109 1.687,-0.781 1.894,-1.691 0.195,-0.906 -0.215,-1.844 -1.016,-2.305 -0.222,-0.137 -2.664,-1.523 -6.601,-1.531 -0.137,0 -0.266,0.008 -0.371,0.008 0.945,-2.559 2.031,-6.438 2.051,-10.899 0,-1.336 -0.098,-2.715 -0.332,-4.121 0.214,-0.117 0.402,-0.273 0.566,-0.469 6.262,-7.578 11.398,-9.57 15.305,-9.57 3.152,-0.008 5.789,1.34 7.793,2.871 0.664,0.52 1.238,1.043 1.726,1.535 -1.609,0.43 -3.613,1.309 -5.515,3.125 l 0,0 c -0.872,0.828 -0.903,2.176 -0.09,3.055 0.812,0.859 2.179,0.891 3.058,0.07 1.035,-0.996 2.059,-1.543 2.938,-1.886 0.781,-0.137 1.64,-0.235 2.648,-0.301 0,0 0.078,-0.039 0.145,-0.09 0.312,0.012 0.644,-0.039 0.929,-0.156 4.93,-2 9.083,-5.274 12.391,-8.575 1.707,-2.285 2.871,-4.152 4.121,-4.589 0.031,-0.047 0.071,-0.106 0.11,-0.149 -0.024,0.043 -0.024,0.082 -0.051,0.129 0.793,-0.242 1.601,0.09 2.637,1.223 -3.848,2.683 -5.204,7.39 -5.899,12.715 -0.09,1.101 -0.195,2.168 -0.34,3.203 -0.89,9.754 -0.918,20.566 -10.422,24.746 -0.164,0.508 -0.164,1.082 0.078,1.59 0.391,0.89 1.34,1.394 2.286,1.242 4.14,-0.684 7.461,-3.43 9.902,-5.899 -0.676,5.926 -2.715,9.247 -4.637,11.211 -2.25,2.254 -4.582,2.774 -4.828,2.821 -0.008,0 -0.008,0 -0.008,0 -0.949,0.129 -1.687,0.898 -1.816,1.847 -0.106,0.965 0.422,1.883 1.309,2.254 1.652,0.711 2.519,1.555 3.046,2.383 0.52,0.852 0.754,1.797 0.754,2.832 0.008,1.145 -0.285,2.324 -0.617,3.274 -1.016,-0.325 -2.363,-0.547 -4.07,-0.547 -1.633,0 -3.613,0.203 -6.059,0.703 -1.844,0.379 -3.66,0.547 -5.398,0.547" /><path
         id="path118"
         style="fill:#e3c465;fill-opacity:1;fill-rule:nonzero;stroke:none"
         d="m 166.598,455.793 c 0.84,-0.52 1.757,-1.184 2.675,-2.063 1.465,-1.375 2.872,-3.261 4.004,-5.75 3.008,19.208 10.711,34.344 18.332,45.196 9.469,13.484 18.77,20.515 18.934,20.469 0.637,-0.157 1.906,0.015 2.258,1.015 l 0.633,3.582 c 1.074,-6.289 6.101,-1.668 6.101,-1.668 3.508,0.543 2.699,-4.836 2.699,-4.836 4.852,3.633 1.746,7.004 1.746,7.004 0,0 2.032,0.399 0.665,3.074 -1.864,3.762 -3.758,8.899 -10.774,4.864 -6.988,-4.024 -8.055,-0.547 -12.371,-3.242 -4.316,-2.696 -5.918,-12.911 -5.918,-12.911 l -1.074,4.024 c 0,0 0,6.476 -5.391,-11.824 -5.39,-18.301 -21.25,-33.926 -21.25,-33.926 0,0 0.02,-0.098 0.078,-0.293 0.586,-1.32 1.309,-3.477 1.328,-5.969 0.008,-1.621 -0.332,-3.437 -1.359,-5.086 -0.348,-0.598 -0.809,-1.144 -1.316,-1.66" /><path
         id="path120"
         style="fill:#e3c465;fill-opacity:1;fill-rule:nonzero;stroke:none"
         d="m 154.188,362.637 -0.649,0.586 c -3.258,-2.293 -6.91,-3.848 -7,-3.895 -0.633,-0.273 -1.328,-0.226 -1.941,0.117 -0.578,0.34 -0.969,0.957 -1.059,1.641 l -0.586,5.367 c -0.504,-0.523 -1.043,-0.973 -1.59,-1.324 -2.422,-1.68 -4.715,-1.867 -4.929,-1.887 -1.164,-0.086 -2.207,0.774 -2.325,1.946 -1.203,12.253 -6.347,21.296 -9.035,25.281 -0.554,-0.879 -1.269,-1.739 -2.129,-2.539 -0.398,-0.399 -0.937,-0.594 -1.484,-0.594 -0.293,0 -0.574,0.047 -0.859,0.176 -0.789,0.351 -1.297,1.133 -1.297,2.011 0,0 0,0 0,0.067 0.019,0.273 -0.032,1.57 -0.442,2.871 -0.359,1.086 -0.898,2.051 -1.75,2.668 -0.465,-0.078 -1.101,-0.137 -1.824,-0.137 -2.469,-0.019 -6.355,0.703 -9.668,4.063 -1.914,1.953 -3.562,4.687 -4.734,8.496 -0.09,-0.141 -0.157,-0.266 -0.235,-0.391 -1.6637,-2.597 -4.3747,-5.082 -8.3317,-6.699 1.1328,-4.934 6.7891,-32.199 -1.9922,-51.719 -9.6875,-21.523 -26.9804,-39.14 -24.7734,-62.441 1.082,-11.309 -10.2266,-18.321 -17.4922,-12.934 -9.793,7.258 -1.2695,50.278 -1.2695,50.278 0,0 12.832,-1.711 12.2929,16.777 -0.5468,18.504 12.0235,12.031 12.0235,12.031 0,0 -1.8555,4.981 -4.8164,6.856 -8.0352,5.117 -10.8086,-1.856 -13.6797,-7.746 -0.6445,-1.336 -0.3789,0.554 -0.3789,0.554 0,0 7.7422,25.813 -4.9922,33.176 -12.7539,7.363 -13.0938,-9.559 -13.0938,-9.559 1.211,1.895 18.2891,5.926 2.8711,-13.769 -20.1679,-25.703 1.0743,-36.098 1.0743,-36.098 0,0 -14.7461,-46.637 1.6171,-62.449 15.6172,-15.09 32.0547,5.656 32.0547,5.656 0,0 7.7813,-22.168 1.1485,-30.597 0,0 -26.375,1.972 -22.2461,-7.911 0,0 -10.7617,1.985 -6.2891,-16.14 0,0 -13.9922,-25.324 -1.2578,-48.098 0,0 4.2852,-3.25 4.0156,3.008 0.8008,-6.961 3.7696,-27.43 9.6172,-17.383 0,0 6.3008,-4.836 3.7695,-7.344 0,0 -10.5664,-9.336 -1.9609,-14.179 0,0 0.8945,-8.965 3.2305,-10.039 2.332,-1.094 3.3984,8.437 3.3984,8.437 0,0 11.3086,-1.094 6.125,9.688 0,0 6.3672,0.929 7.5274,-4.668 0.8984,-4.325 1.6093,-10.41 9.1406,-7.528 0,0 2.3359,10.223 10.207,2.578 0.0078,0.055 0.0274,0.125 0.0469,0.196 0.293,0.633 0.5547,1.707 0.5547,2.879 -0.0078,1.613 -0.4453,3.359 -1.8047,4.894 -1.375,1.524 -3.7422,2.93 -7.8516,3.516 -0.4101,0.039 -2.6953,0.234 -4.5508,0.926 -0.6836,0.265 -1.3476,0.566 -1.9023,1.211 -0.3242,0.363 -0.5781,0.91 -0.5469,1.496 -0.0117,0.593 0.2031,1.113 0.5078,1.543 0.4493,0.601 1.2657,0.742 1.8828,0.308 0.5782,-0.406 0.7227,-1.168 0.3907,-1.754 0.1875,-0.121 0.4804,-0.246 0.8203,-0.371 0.8789,-0.293 2.0508,-0.488 2.832,-0.597 0.5078,-0.067 0.832,-0.086 0.832,-0.086 l 0.1055,-0.012 c 4.5391,-0.652 7.5977,-2.285 9.4805,-4.395 1.8747,-2.089 2.5117,-4.578 2.5117,-6.679 0,-0.02 -0.02,-0.078 -0.02,-0.086 1.165,-0.352 3.387,-0.86 6.067,-0.742 0,0 2.051,10.378 7.098,8.503 -0.301,1.114 -0.907,2.551 -2.305,3.84 -1.766,1.641 -4.949,3.172 -10.879,3.172 -1.301,0 -2.7422,-0.066 -4.3165,-0.234 -0.3711,-0.078 -2.0234,-0.371 -3.8281,-0.371 -0.8398,0 -1.7305,0.05 -2.5586,0.265 -0.8515,0.223 -1.6992,0.594 -2.3437,1.356 -0.4102,0.539 -0.6524,1.262 -0.6446,1.972 0,0.383 0.0664,0.762 0.168,1.165 0.1914,0.722 0.9336,1.132 1.668,0.925 0.6914,-0.203 1.125,-0.957 0.9101,-1.648 -0.0625,-0.207 -0.0703,-0.363 -0.0703,-0.442 0.0078,-0.195 0.0391,-0.222 0.086,-0.281 0.0429,-0.082 0.1875,-0.176 0.4218,-0.285 0.5078,-0.223 1.4375,-0.332 2.3633,-0.332 0.832,0 1.6992,0.078 2.3359,0.168 0.625,0.074 1.0235,0.156 1.0235,0.156 l 0.1172,0.02 c 1.6914,0.176 3.254,0.261 4.668,0.261 6.379,0.012 10.344,-1.699 12.703,-3.875 2.395,-2.207 3.078,-4.785 3.344,-6.183 0,-0.086 0.008,-0.164 0.008,-0.234 1.015,0.07 3.097,0.515 3.496,2.675 0,0 3.418,-1.425 7.715,-4.66 0,0 6.652,6.457 -3.946,11.488 0,0 -1.25,9.149 -17.597,6.805 -31.934,-4.558 -31.7582,27.102 -31.7582,27.102 0,0 -0.5664,19.16 8.8476,20.769 0,0 9.2774,7.949 9.8125,0.821 1.0743,-14.403 12.1331,-7.676 12.1331,-7.676 -6.6057,3.633 0.398,10.246 0.398,10.246 0,0 3.371,-0.957 5.235,0.39 0,0 1.086,-14.14 14.277,-12.375 0,0 -8.223,8.457 -2.285,16.407 0,0 8.476,-1.336 6.867,18.3 -1.613,19.661 4.969,33.79 -9.563,53.704 0,0 -24.0816,22.617 -3.347,44.949 18.98,20.48 37.652,17.98 36.797,34.035 -0.137,0.203 -0.285,0.41 -0.41,0.594" /><path
         id="path122"
         style="fill:#e3c465;fill-opacity:1;fill-rule:nonzero;stroke:none"
         d="m 234.742,344.719 c 0,0 -0.672,-5.254 -5.515,-5.793 0,0 -1.211,2.179 -3.633,1.926 0.554,0.457 1.101,0.984 1.629,1.57 4.687,5.246 0.793,7.676 0.793,7.676 0,0 3.367,4.433 -1.887,7.804 0,0 0.137,-4.172 -2.676,-5.254 0,0 -3.652,3.77 -6.211,-0.136 -2.539,-3.899 -6.777,-7.715 -12.246,-3.77 -1.609,1.168 -0.625,1.27 4.942,1.981 5.566,0.722 2.968,4.308 2.968,4.308 -1.269,3.145 4.114,1.973 4.114,1.973 -0.903,4.383 -5.383,2.625 -5.743,4.129 -0.351,1.523 -2.148,2.234 -2.148,2.234 -2.785,1.078 -6.641,-1.16 -9.875,-3.035 -2.246,-1.316 -4.453,-1.004 -5.684,-0.633 -0.488,0 -0.996,0.172 -1.386,0.528 -2.09,1.851 -4.141,4.644 -6.2,7.878 -2.062,3.243 -4.074,6.895 -5.89,10.352 -3.289,6.398 -5.828,12.09 -6.199,12.922 0,0.027 -0.032,0.039 -0.032,0.059 -0.039,0.085 -0.117,0.234 -0.234,0.429 -0.242,0.371 -0.574,0.918 -1.024,1.59 -0.89,1.359 -2.226,3.215 -3.925,5.234 -2.922,3.477 -6.985,7.375 -11.731,9.844 -0.594,-0.781 -1.738,-2.07 -3.34,-3.379 -2.48,-2.031 -6.179,-4.14 -10.886,-4.14 l -0.024,0 c -5.125,0 -11.035,2.589 -17.215,9.519 -0.351,-0.918 -0.8,-1.812 -1.32,-2.742 1.098,-1.855 2.973,-5.625 3,-10.09 0.012,-0.816 -0.051,-1.637 -0.215,-2.476 1.504,-1.899 8.926,-11.817 11.133,-26.965 0.422,0.195 0.977,0.519 1.543,0.968 1.184,1.075 2.219,2.774 2.266,6.219 0,0.528 -0.028,1.106 -0.086,1.699 l -0.032,0.118 c -0.039,0.449 0.051,0.91 0.274,1.289 0.012,0 0.012,0 0.012,0 l 0,0.019 c 0.125,0.215 0.269,0.41 0.468,0.578 0,0 0.008,0 0.02,0 l 0,0 c 0.008,0.02 0.039,0.028 0.047,0.039 -0.008,0.086 -0.039,0.164 -0.047,0.254 0,0 0.039,-0.09 0.086,-0.226 0.293,0.226 0.664,0.39 1.066,0.429 0.391,0.04 0.75,-0.019 1.102,-0.175 0,0 0,0 0.012,0 l 0.015,-0.008 0.012,-0.02 c 0,0 0,0 0.012,0 0.386,-0.187 0.711,-0.48 0.933,-0.832 l 0,-0.008 c 0,-0.011 0.024,-0.019 0.024,-0.031 l 0,-0.019 c 0.007,0 0.007,0 0.015,-0.02 0,0 0,-0.027 0.012,-0.027 0.019,-0.02 0.019,-0.02 0.019,-0.02 0,0 0,-0.011 0.008,-0.031 l 0,0 c 0,-0.019 0.012,-0.019 0.012,-0.039 0,0 0,0 0,-0.02 0,0 0.02,-0.007 0.02,-0.031 l 0,-0.015 c 0.011,0 0.011,-0.024 0.011,-0.024 0.008,-0.008 0.008,-0.008 0.008,-0.027 0,0 0.02,0 0.02,-0.02 0.011,0 0.011,-0.027 0.011,-0.027 0,0 0,0 0,-0.02 0.067,-0.148 0.106,-0.324 0.125,-0.5 L 147.438,365 c 0.214,-0.066 0.441,-0.09 0.656,-0.09 1.57,0.883 3.394,2.024 4.605,3.137 0.031,0.031 0.071,0.058 0.09,0.078 0.227,0.266 0.352,0.449 0.391,0.535 0,0 0.066,-0.066 0.156,-0.211 0.332,0.125 0.684,0.196 1.047,0.172 0.605,-0.074 1.16,-0.387 1.512,-0.887 0.058,-0.117 11.406,-15.515 15.449,-30.41 1.394,0.137 6.023,1.074 5.84,7.395 0,0 3.679,-11.563 15.968,-13.653 9.52,-1.601 12.754,-3.222 16.161,-5.199 0,0 19.851,-4.664 25.292,4.574 1.36,2.286 -1.472,4.176 -1.472,4.176 0,0 8.75,3.363 1.609,10.102" /><path
         id="path124"
         style="fill:#e3c465;fill-opacity:1;fill-rule:nonzero;stroke:none"
         d="m 97.125,516.914 c 1.8242,3.449 4.492,6.641 7.664,9.445 5.383,4.727 12.219,8.348 19.172,9.883 1.613,0.352 2.812,0.742 3.711,1.102 1.133,0.226 3.008,0.859 2.305,2.59 -1.543,3.679 -5.997,2.117 -7.09,1.66 -0.067,0.332 -0.047,0.703 0.09,1.023 0.359,0.938 0.957,1.738 1.726,2.238 0.762,0.489 1.602,0.665 2.324,0.665 2.207,-0.051 3.684,-1.211 3.821,-1.262 l 0.086,-0.067 c 0.058,-0.05 0.695,-0.531 1.355,-1.32 0.637,-0.801 1.438,-1.961 1.457,-3.633 0.039,-1.453 -0.808,-3.008 -2.297,-4.062 -1.472,-1.082 -3.562,-1.934 -6.676,-2.606 -0.148,-0.039 -0.304,-0.09 -0.46,-0.117 -3.145,-0.961 -6.563,-2.219 -9.942,-3.918 -2.547,-1.433 -4.949,-3.133 -7.082,-5.019 -4.734,-4.161 -8.0546,-9.188 -8.8671,-14.012 -0.4453,-0.512 -1.0156,-0.949 -1.7266,-1.223 -2.2539,-0.84 -0.4414,5.801 0.4297,8.633 z m 13.457,40.789 c 1.438,1.594 3.691,3.09 7.219,3.93 2.027,0.254 4.648,0.027 7.722,-1.438 -0.019,0 -0.019,0 -0.019,0 -0.305,0.008 -0.598,0.008 -0.879,0.008 -0.613,0 -1.211,-0.027 -1.766,-0.055 0.789,-0.781 1.746,-2.324 0.946,-4.804 0.234,0.019 0.468,0.047 0.754,0.058 0.664,0 1.406,-0.129 2.234,-0.363 0.586,-0.156 0.918,-0.754 0.762,-1.336 -0.176,-0.566 -0.774,-0.879 -1.348,-0.742 -0.703,0.215 -1.211,0.281 -1.648,0.281 -1.145,0.031 -2.317,-0.605 -5.422,-1.367 -3.203,-0.75 -6.942,-0.84 -8.739,-0.84 -0.656,0 -1.054,0.012 -1.054,0.012 -0.508,0.019 -0.93,0.371 -1.035,0.867 0,0.07 -0.032,0.156 -0.012,0.246 0,0.516 0.117,3.074 2.285,5.543 z m 24.082,1.457 0,-0.008 c 0.254,1.004 1.262,1.641 2.277,1.383 0.957,-0.242 1.563,-1.168 1.407,-2.125 0.039,-0.043 -0.078,-0.137 0.39,-0.5 0.504,-0.41 1.992,-1.015 5.211,-1.015 0.727,0 1.543,0.039 2.453,0.089 0.157,0.02 0.293,0 0.442,-0.011 l 0,0 c 1.472,0 2.519,-0.223 3.367,-0.743 0.867,-0.527 1.309,-1.531 1.289,-2.304 -0.051,-1.453 -0.828,-2.285 -0.887,-2.403 -0.187,-0.253 -0.468,-0.418 -0.754,-0.488 0.618,2.188 -0.398,2.91 -1.574,3.098 -0.039,0.019 -0.074,0.027 -0.113,0.027 0,0 -5.859,-2.051 -10.774,0.176 -0.332,0.156 -0.625,0.332 -0.878,0.527 -1.543,1.086 -1.973,2.696 -1.946,3.567 0,0.351 0.063,0.613 0.09,0.73 z M 63.668,534.758 c -5.2461,-7.688 -2.4024,-18.184 -2.4024,-18.184 0,0 -1.0742,-5.898 -2.9687,1.082 -1.3477,5 -4.7071,-5.918 3.4961,-9.687 0,0 -8.0742,3.906 -6.0742,-5.645 2.0507,-9.558 6.3398,-16.164 -0.6446,-22.215 0,0 5.5078,-5.636 11.9727,0.262 0,0 -6.9922,-7.937 -2.0196,-20.039 4.9688,-12.117 -3.2343,-11.453 -3.2343,-11.453 0,0 5.9179,-6.047 11.1718,-0.254 -1.621,-7.285 0.3047,-8.703 3.7696,-13.066 C 80.9063,430.305 76.5,421.34 76.5,421.34 c 5.0469,1.426 8.25,5.926 8.25,5.926 -4.1094,-9.512 3.0703,-13.282 3.0703,-13.282 0.4961,-5.293 -2.0508,-9.148 -3.6953,-11.043 7.4844,0.731 10.957,3.614 12.9102,6.551 1.9375,2.969 2.1914,6.27 2.1914,7.586 0,0.16 0,0.305 0,0.402 -0.0118,0.09 -0.0118,0.149 -0.0118,0.235 -0.0898,1.172 0.8012,2.187 1.9922,2.265 0.012,0 0.039,0 0.059,0 0.011,0.247 0.031,0.481 0.039,0.715 0.011,-0.234 0.031,-0.468 0.058,-0.715 1.106,0 2.032,-0.847 2.141,-1.945 0,-0.027 0,-0.113 0.019,-0.308 0.536,-8.75 2.86,-13.293 5.176,-15.649 2.324,-2.351 4.852,-2.781 6.59,-2.781 0.91,0 1.555,0.137 1.652,0.168 l 0,0 c 0.497,0.113 1.024,0.066 1.493,-0.137 2.089,-1.008 3.32,-2.695 4.054,-4.316 0.262,0.886 0.371,1.773 0.379,2.691 0.039,4.192 -2.676,8.449 -2.969,8.813 -0.007,0.019 -0.007,0.019 -0.007,0.019 -0.528,0.711 -0.559,1.699 -0.063,2.442 0.395,0.593 0.727,1.191 1.059,1.796 -0.078,0 -0.141,-0.011 -0.188,-0.019 0.449,0.906 0.965,2.059 1.457,3.328 0.504,1.836 0.711,3.645 0.711,5.41 0.02,5.742 -2.254,10.676 -2.82,11.778 -2.973,0.968 -6.301,2.824 -9.688,6.074 -3.351,3.191 -6.796,7.695 -10.226,14.004 -0.3049,-2.383 -1.0353,-4.715 -2.59,-6.7 -2.1172,-2.722 -5.711,-4.363 -10.5157,-4.324 -1.7382,0 -3.6914,0.196 -5.8281,0.606 -0.9687,0.183 -1.664,1.015 -1.7187,1.992 -0.0782,0.965 0.5156,1.863 1.4531,2.168 l 0,0 c 0.0273,0.008 0.0977,0.047 0.1836,0.086 0.1875,0.097 0.4414,0.273 0.6875,0.488 0.4766,0.469 0.9336,1.055 0.9648,2.414 0.0118,1.465 -0.7109,4.063 -3.6054,7.957 -3.8438,5.195 -5.3789,10.371 -5.3789,15.078 0,1.895 0.2539,3.684 0.6445,5.364 0.0586,0.371 0.1172,0.722 0.1836,1.074 0.0703,0.496 0.1601,0.957 0.2539,1.387 0.1211,0.64 0.2461,1.25 0.3828,1.816 0.8906,2.07 2.0313,4.141 3.1953,5.547 0.8985,1.121 1.7149,2.117 2.7227,2.617 0.0781,0.066 0.164,0.137 0.2734,0.176 1.7891,0.886 4.2578,1.054 4.0234,-1.582 -0.0898,-1.125 -1.6601,-2.258 -2.3437,-2.981 -0.2148,-0.203 -0.4102,-0.418 -0.6172,-0.625 -0.7305,-1.062 -1.3359,-2.09 -1.7266,-2.746 -1.5507,-2.965 -2.6835,-6.383 -2.6835,-10.047 0,-3.789 1.1718,-7.949 4.5507,-12.519 2.4102,-3.289 3.711,-6.035 4.1875,-8.399 0.1172,-0.496 0.1875,-0.984 0.2149,-1.445 0.0117,-0.223 0.0273,-0.457 0.0273,-0.672 0.0117,-1.34 -0.3008,-2.492 -0.7695,-3.449 0.2422,0 0.5,0 0.7226,0 3.9258,0.031 5.8985,1.152 7.1211,2.687 1.2579,1.563 1.8243,3.926 1.8243,6.629 0.0117,4.16 -1.3282,8.797 -2.2266,11.446 -0.2734,0.722 -0.5547,1.476 -0.8203,2.218 -0.4219,1.102 0.1289,2.301 1.2226,2.754 1.0899,0.43 2.3243,-0.09 2.7813,-1.172 0.0117,-0.031 0.3828,-0.91 0.8672,-2.336 5.2971,-13.808 10.7661,-21.843 15.5271,-26.386 3.528,-3.34 6.645,-4.824 9.192,-5.418 -2.5,2.285 -4.59,6.101 -4.825,11.785 -0.527,10.09 -3.211,15.527 -4.277,17.285 -0.168,0.246 -0.32,0.527 -0.508,0.774 -0.625,0.984 -0.371,2.273 0.567,2.949 0.957,0.652 2.257,0.449 2.949,-0.469 0.058,-0.051 0.293,-0.371 0.625,-0.937 3.457,-5.157 7.023,-8.403 10.402,-10.372 0.067,-0.031 0.145,-0.05 0.211,-0.089 -0.047,0.058 -0.086,0.117 -0.125,0.168 1.145,-0.657 2.363,-1.262 3.684,-1.778 2.215,-0.742 4.312,-1.039 6.336,-1.039 1.965,-0.015 3.808,0.266 5.488,0.707 -0.762,0.555 -1.453,1.278 -2.078,2.156 -2.149,2.981 -3.75,4.786 -4.887,5.801 -0.816,0.742 -1.375,1.055 -1.629,1.172 -0.859,-0.203 -1.777,0.149 -2.285,0.918 -0.605,0.938 -0.398,2.18 0.457,2.863 0.149,0.106 0.317,0.223 0.551,0.321 1.23,0.597 7.508,3.554 15.672,3.574 1.738,0 3.586,-0.156 5.461,-0.488 3.906,5.351 -0.989,10.441 -0.989,10.441 -32.168,-23.965 -27.089,11.973 -27.089,11.973 -1.082,-20.274 21.347,-6.379 15.683,-5.215 -17.578,3.633 -4.472,12.754 -4.472,12.754 -1.426,-12.383 15.441,-5.93 10.039,-4.758 -5.372,1.164 -3.301,6.191 -3.301,6.191 12.558,2.149 8.738,5.313 8.332,8.254 -0.266,1.961 -7.356,0.274 -7.356,0.274 0,0 -0.898,3.496 -2.949,2.949 -1.199,-0.293 -1.523,-2.949 -1.523,-2.949 l -2.871,0.164 c -0.821,2.336 -2.176,2.16 -2.176,2.16 -1.231,-0.18 -1.613,-2.16 -1.613,-2.16 0,0 -7.61,-1.094 -15.079,-7.801 -8.437,-7.59 -14.648,-1.641 -15.695,3.047 -1.969,8.875 23.242,21.004 23.242,21.004 l 2.153,-3.856 c 3.164,0.449 4.226,6.016 4.226,6.016 l 5.02,1.609 1.515,-4.582 c 4.227,0.363 4.629,5.93 4.629,5.93 5.25,1.34 8.477,2.297 7.813,4.445 -0.688,2.125 0.398,8.738 0.398,8.738 2,4.59 1.602,18.04 -2.961,17.5 -7.039,-0.828 -20.047,-0.261 -20.047,-0.261 0,0 2.375,3.574 -0.507,4.832 -7.676,3.371 -23.368,0.226 -28.211,-0.86 0.449,-1.347 0.8,-2.863 0.933,-4.492 0.063,-0.73 -0.496,-1.375 -1.238,-1.433 -0.027,0 -0.066,0 -0.098,0 -0.7028,0 -1.2966,0.527 -1.3669,1.218 -0.2852,3.996 -2.3125,7.539 -3.0078,8.614 l -0.0078,0 c -0.0117,0.031 -0.0235,0.05 -0.0391,0.058 -4.7851,7.324 -11.6328,4.973 -11.6328,4.973 2.1602,-12.012 0,-15.969 0,-15.969 -5.9375,0.188 -12.0391,-7 -18.4063,-14.09 -6.371,-7.082 -11.5664,-2.968 -11.5664,-2.968 -3.0546,-9.668 9.5821,-7.344 9.5821,-7.344" /><path
         id="path126"
         style="fill:#e3c465;fill-opacity:1;fill-rule:nonzero;stroke:none"
         d="m 340.32,547.891 c -0.644,-0.996 -1.972,-1.278 -2.992,-0.625 -0.094,0.07 -0.215,0.136 -0.301,0.207 -0.007,0 -0.007,0 -0.039,0 -17.5,11.257 -35.457,15.039 -51.804,15.039 -18.071,0.008 -34.121,-4.649 -45.012,-8.899 -0.039,0 -0.051,-0.027 -0.067,-0.027 -0.175,-0.07 -0.343,-0.148 -0.5,-0.195 -7.91,-3.149 -13.046,-6.055 -14.265,-6.77 -0.195,-0.098 -0.293,-0.168 -0.293,-0.168 -0.352,-0.211 -0.715,-0.301 -1.113,-0.301 -0.723,0 -1.426,0.371 -1.836,1.036 -0.625,1.007 -0.305,2.335 0.722,2.968 0,0 0.145,0.078 0.391,0.227 0.019,0 0.035,0.019 0.047,0.039 0.09,0.039 5.488,3.281 14.48,6.863 0.141,0.059 0.254,0.117 0.383,0.168 0.09,0.027 0.164,0.047 0.266,0.078 11.316,4.473 27.918,9.305 46.797,9.336 17.129,0 36.113,-4.023 54.5,-16 1.015,-0.633 1.289,-1.969 0.636,-2.976 z m -17.765,-0.223 c 0,2.09 1.679,3.77 3.742,3.77 2.09,0 3.789,-1.68 3.789,-3.77 0,-2.082 -1.699,-3.762 -3.789,-3.762 -2.063,0 -3.742,1.68 -3.742,3.762 z m -21.106,7.793 10.121,1.902 7.618,-7.656 -9.7,-1.309 -8.039,7.063 z m -31.129,1.18 c 0,2.277 5.75,4.113 12.832,4.113 7.086,0 12.84,-1.836 12.84,-4.113 0,-2.266 -5.754,-4.121 -12.84,-4.121 -7.082,0 -12.832,1.855 -12.832,4.121 z m -24.043,-6.446 7.352,7.188 10.598,-2.18 -7.364,-6.461 -10.586,1.453 z m -12.558,-2.871 c 0,2.082 1.687,3.762 3.758,3.762 2.097,0 3.769,-1.68 3.769,-3.762 0,-2.09 -1.672,-3.769 -3.769,-3.769 -2.071,0 -3.758,1.679 -3.758,3.769 z m 103.269,-11.101 c -0.468,-1.094 -1.738,-1.594 -2.84,-1.106 -14.628,6.438 -28.859,9.426 -41.906,10.332 -0.32,0.02 -0.672,0.051 -0.996,0.071 -0.117,0 -0.215,0 -0.312,0.015 -2.489,0.149 -4.942,0.199 -7.332,0.199 -29.465,0.02 -51.555,-9.867 -54.043,-11.046 -0.176,-0.071 -0.246,-0.118 -0.246,-0.118 -0.047,-0.019 -0.11,-0.039 -0.157,-0.047 -0.047,-0.031 -0.066,-0.039 -0.066,-0.039 l 0,0 c -0.313,-0.168 -0.645,-0.246 -0.957,-0.246 -0.813,0 -1.555,0.45 -1.934,1.192 -0.527,1.074 -0.121,2.363 0.957,2.898 0.164,0.082 23.367,11.742 56.016,11.742 2.539,0 5.144,-0.07 7.793,-0.226 10.808,-0.594 22.422,-2.567 34.324,-6.66 3.508,-1.2 7.039,-2.567 10.606,-4.121 1.093,-0.489 1.582,-1.766 1.093,-2.84 z m -58.172,86.668 c 0.301,-0.262 0.555,-0.567 0.797,-0.86 1.399,-0.73 2.407,-0.808 3.481,0.352 1.16,1.504 3.699,-0.281 2.691,-1.914 -0.152,-0.281 -0.371,-0.567 -0.586,-0.809 -1.051,-1.699 0.586,-4.523 1.242,-6.125 0.332,-0.808 0,-1.609 -0.578,-2.012 0.071,-0.085 0.129,-0.203 0.2,-0.32 -0.09,0.106 -0.137,0.203 -0.208,0.32 -0.574,-0.39 -1.335,-0.41 -1.984,0.235 -1.305,1.308 -3.445,2.219 -4.922,0.652 -0.398,-0.418 -0.828,-0.562 -1.238,-0.562 -0.137,-0.207 -0.242,-0.41 -0.344,-0.618 l -0.066,-0.046 c 0.137,0.195 0.254,0.418 0.351,0.664 -1.191,0.058 -2.168,1.531 -1.25,2.812 1.133,1.57 1.817,4.246 0.157,5.672 -1.668,1.438 0.586,4.016 2.257,2.559 z m 102.207,-29.286 c -5.246,0 -9.503,-4.257 -9.503,-9.511 0,0 -0.086,-6.633 -4.93,-9.336 0,0 2.344,13.105 -3.945,16.609 -3.481,1.778 -5.981,0.821 -7.336,-0.105 2.492,-2.539 4.211,-6.399 4.367,-10.012 1.472,0.195 2.683,1.406 2.683,1.406 0,0 -1.336,-8.078 -5.468,-10.761 0,0 3.437,10.421 -3.926,17.863 0,0 -5.137,4.109 -9.18,0.144 3.582,-2.214 6.563,-6.289 6.242,-10.429 5.379,-0.469 -1.289,-12.508 -1.289,-12.508 -2.863,-2.246 -5.304,-2.348 -5.304,-2.348 9.597,22.074 -4.485,23.508 -4.485,23.508 -4.754,0 -8.609,-3.848 -8.609,-8.613 0,-4.754 3.855,-8.602 8.609,-8.602 0,0 -19.949,-11.426 -16.043,13.731 l 0.5,0.125 c 4.141,0 7.469,3.332 7.469,7.472 0,4.121 -3.328,7.45 -7.469,7.45 -4.133,0 -7.461,-3.329 -7.461,-7.45 0,0 0.332,-4.629 2.743,-6.418 0,0 -2.09,-11.765 -15.536,-10.527 0,0 -9.699,0.324 -8.8,13.105 0,-5.058 4.101,-9.148 9.152,-9.148 5.066,0 9.156,4.09 9.156,9.148 0,5.059 -4.09,9.153 -9.156,9.153 0,0 -2.109,-0.266 -4.121,-1.496 -1.223,-0.731 -4.184,6.3 5.652,6.476 7.531,0.125 4.973,8.739 -3.758,6.328 -8.586,-2.375 -6.601,-7.539 -6.601,-7.539 0,0 -3.899,0.918 -2.903,7.285 4.063,0 7.43,4.239 7.43,9.129 0,4.914 -3.289,8.887 -7.359,8.887 -1.684,0 -3.203,-0.672 -4.446,-1.785 0.247,0.906 0.215,1.894 0.223,3.492 0,4.445 -2.683,8.031 -5.992,8.031 -3.32,0 -6.008,-3.586 -6.008,-8.031 0,-1.461 0,-2.808 0.402,-3.512 -1.25,1.133 -2.793,1.805 -4.453,1.805 -4.062,0 -7.375,-3.973 -7.375,-8.887 0,-4.89 3.313,-8.875 7.375,-8.875 0.977,-6.359 -2.843,-7.539 -2.843,-7.539 0,0 1.992,5.164 -6.59,7.539 -8.75,2.411 -11.289,-6.203 -3.774,-6.328 9.836,-0.176 6.907,-7.207 5.668,-6.476 -2.035,1.23 -4.133,1.496 -4.133,1.496 -5.046,0 -9.16,-4.094 -9.16,-9.153 0,-5.058 4.114,-9.148 9.16,-9.148 5.051,0 9.153,4.09 9.153,9.148 l 0.019,-0.164 c 0.887,-12.773 -8.808,-14.023 -8.808,-14.023 -13.481,-1.25 -15.422,10.742 -15.422,10.742 2.422,1.797 2.637,6.207 2.637,6.207 0,4.125 -3.36,7.465 -7.481,7.465 -4.109,0 -7.469,-3.34 -7.469,-7.465 0,-4.137 3.36,-7.469 7.469,-7.469 l 0.481,0 c 3.894,-25.175 -16.008,-13.855 -16.008,-13.855 4.758,0 8.605,3.836 8.605,8.602 0,4.757 -3.847,8.605 -8.605,8.605 0,0 -14.11,-1.426 -4.5,-23.496 0,0 -2.422,0.086 -5.293,2.32 0,0 -4.836,10.805 -1.379,11.926 -0.125,2.344 0.996,5.312 1.887,6.652 0.8,1.258 2.546,3.243 4.336,3.836 -4.434,3.672 -9.141,0.489 -9.141,0.489 -7.348,-7.442 -3.879,-17.957 -3.879,-17.957 -4.121,2.695 -5.469,10.769 -5.469,10.769 0,0 0.742,-0.391 1.563,-0.73 0,2.031 0.683,4.304 1.347,5.652 0.633,1.289 1.387,2.578 2.52,3.488 0.5,0.371 0.879,0.633 1.23,0.789 -2.753,1.614 -6.191,0.157 -6.191,0.157 -6.094,-2.071 -4.687,-17.247 -4.687,-17.247 -4.825,2.676 -4.93,9.317 -4.93,9.317 0,5.265 -4.262,9.531 -9.504,9.531 -5.266,0 -9.512,-4.266 -9.512,-9.531 0,-2.012 0.645,-3.758 1.746,-5.164 1.692,-2.442 4.504,-4.055 7.707,-4.055 2.547,0 4.864,1.016 6.551,2.664 0.91,-1.129 1.399,-2.594 1.399,-2.594 9.425,-24.211 27.722,-28.808 27.722,-28.808 l 0.824,-1.34 c -1.289,-0.82 -2.14,-2.273 -2.14,-3.926 0,-2.578 2.09,-4.668 4.66,-4.668 0.469,0 0.926,0.078 1.363,0.196 l 3.789,-8.399 0.051,0.012 c 1.777,0.976 52.402,29.012 112.332,3.203 l 2.152,4.988 0.165,0.352 c 0.019,0 0.019,0 0.031,0 2.566,0 4.668,2.09 4.668,4.668 0,1.261 -0.508,2.394 -1.313,3.23 l 0.356,0.852 c 0.293,0.508 0.476,0.832 0.476,0.832 0,0 18.301,4.597 27.735,28.808 0,0 0.597,1.766 1.711,2.938 1.648,-1.473 3.828,-2.371 6.218,-2.371 3.946,0 7.317,2.441 8.684,5.879 0.508,1.16 0.801,2.449 0.801,3.789 0,5.254 -4.258,9.511 -9.532,9.511" /></g></g></svg>